<?xml version="1.0" encoding="UTF-8"?>
<!DOCTYPE svg PUBLIC "-//W3C//DTD SVG 1.1//EN" "http://www.w3.org/Graphics/SVG/1.1/DTD/svg11.dtd">
<!-- Creator: CorelDRAW X6 -->
<svg xmlns="http://www.w3.org/2000/svg" xml:space="preserve" width="4064px" height="769px" version="1.1" style="shape-rendering:geometricPrecision; text-rendering:geometricPrecision; image-rendering:optimizeQuality; fill-rule:evenodd; clip-rule:evenodd"
viewBox="0 0 207006 39143"
 xmlns:xlink="http://www.w3.org/1999/xlink">
 <defs>
  <style type="text/css">
   <![CDATA[
    .fil0 {fill:#00547D}
    .fil1 {fill:#569BBB}
   ]]>
  </style>
 </defs>
 <g id="Layer_x0020_1">
  <metadata id="CorelCorpID_0Corel-Layer"/>
  <g id="_206005128">
   <path class="fil0" d="M96946 8648c392,1180 1061,6251 379,7197 -417,9870 -10809,9815 -12394,7613 -1102,-1530 -634,-17975 -633,-21216 2098,-470 6866,-100 8584,746 1839,906 3584,3105 4065,5660zm6549 1180c-526,-1673 -905,-2421 -1514,-3901 -287,-313 -538,-685 -825,-1026 -1092,-1300 -1970,-2112 -3482,-2885 -5644,-2885 -13856,-1788 -21126,-1906 -850,-14 -1433,-112 -2016,327l54 1013c3286,5 4011,612 4128,3861l2 15927c-101,3360 -872,3949 -4182,4027 -8,1702 -1041,1329 4986,1328 5043,0 12455,443 16505,-1159 5922,-2342 8569,-7414 7469,-15606z"/>
   <path class="fil0" d="M116845 4514c382,431 707,1883 895,2286l6535 20547c1521,-27 1240,-773 2254,-3883 478,-1465 929,-2911 1378,-4351 871,-2792 1798,-5849 2744,-8502 571,825 2377,6889 2859,8410 438,1382 2357,7716 2883,8310 1177,-22 900,-147 1836,-2991 422,-1283 771,-2420 1191,-3687 916,-2762 5021,-16702 6290,-18111 440,-488 744,-660 1485,-839 1436,-347 1080,48 1083,-1587l-9022 320 52 1014c5402,40 3003,3416 500,11104 -287,882 -1005,3568 -1541,4297 -606,-2046 -4999,-15917 -5543,-16738l-884 10 -5349 16609 -3066 -8935c1014,116 2076,845 2713,491 -240,-709 -970,-791 -2215,-1291 -1277,-513 -985,-732 -1466,-2176 -1047,-3147 548,-3359 3354,-3375l78 -1009c-453,-341 74,-150 -743,-304l-11465 -28c-775,-11 -1263,-75 -1802,332l54 1013c2941,4 4227,576 4909,3065z"/>
   <path class="fil0" d="M175239 1447c3301,-3 4003,721 4150,3873l-2 16014c-181,3400 -787,3846 -4158,3931l0 1327 10453 0 -1 -1329c-2081,-53 -3514,-96 -3986,-2013 -467,-1898 -305,-15205 -244,-17452l17405 20677c613,758 685,860 1871,864 379,-2753 -182,-17760 115,-22281 207,-3144 932,-3612 4128,-3609l74 -1013 -10505 -319 29 1331c4376,9 4221,1731 4218,5779 -3,3395 54,6834 -17,10223l-11679 -13812c-1590,-1918 -2506,-3519 -3992,-3541 -836,-13 -1720,18 -2565,18 -1734,0 -3468,0 -5203,0l-93 1333z"/>
   <path class="fil0" d="M150292 1395c1410,395 2139,360 2590,1648 652,1866 381,14129 381,16704 -1,4138 -25,5406 -4190,5518l0 1326c6125,3 19427,248 24196,-49l349 -6213 -1148 0c-992,1230 -46,4192 -4881,4191 -9781,-2 -8800,1213 -8803,-10927 6150,9 7122,-594 7529,4244l1330 0 -1 -10506c-1694,1 -1300,-347 -1434,1326 -68,857 -215,1513 -696,2012 -1109,1148 -4781,905 -6729,904l0 -9439c2749,0 9271,-503 10771,1003 826,830 828,1868 1072,2524 279,753 -179,718 1527,718l-354 -6269 -20150 -11c-1468,-18 -1362,-130 -1359,1296z"/>
   <path class="fil0" d="M22258 1448c2875,492 2932,1684 2939,4716 9,3781 157,12241 -21,15503 -182,3337 -1117,3322 -4176,3648l-2 1216c2039,229 23102,240 24253,-68l341 -6133 -1378 0c-411,2320 -730,3566 -2938,4025 -1472,306 -5543,234 -7178,159 -2639,-122 -3153,-1205 -3292,-3725 -127,-2296 -47,-4820 -38,-7140 1349,-142 4226,-128 5451,170 1899,462 2032,1671 2022,3917l1334 93 0 -10418 -1011 -79c-243,322 -109,42 -254,540 -177,611 -68,1289 -317,1961 -264,712 -812,1176 -1552,1422 -1039,345 -4486,416 -5673,241l-2 -9306c1936,-199 6016,-160 7992,-10 3022,229 3428,1499 4025,4199l1354 1 -356 -6227 -21428 -37 -95 1333z"/>
   <path class="fil0" d="M16125 12320c1,-8035 -1137,-10845 4180,-10875l-93 -1331 -13818 28 6 1265c2991,254 3887,363 4093,3488 289,4392 60,17568 60,22493 0,2114 197,5393 -428,7210 -603,1756 -2535,3309 -4826,2070 -2431,-1315 -1000,-4171 -2893,-4771 -2854,-905 -2765,2596 -1798,4161 1841,2983 7150,4015 11054,1988 3680,-1910 4468,-5347 4462,-10659 -5,-5022 -1,-10045 0,-15067z"/>
   <path class="fil0" d="M47323 1406c3312,277 3989,503 4139,3914l-5 16131c-157,3437 -966,3512 -4142,3862l0 1216c2054,236 24171,239 25314,-66l340 -6133 -1378 -2c-833,4711 -2525,4191 -7348,4191 -8362,-1 -7162,1238 -7160,-15807 1,-4430 -879,-7288 4144,-7261l-1 -1339 -13828 4 -74 1289z"/>
   <path class="fil1" d="M97325 15845c682,-946 13,-6017 -379,-7197 -2344,1129 -6958,5943 -7871,8129 634,504 4148,1939 5089,2164l1467 -1975c430,-547 1410,-1633 1721,-1867l-27 747z"/>
   <path class="fil1" d="M101982 5927c609,1480 988,2228 1514,3901 2205,-947 3504,-1836 6197,-2557 1934,-518 6427,-1315 8047,-470 -187,-404 -513,-1855 -895,-2286 -73,384 224,406 -1441,149 -1944,-299 -4230,-364 -6181,-235 -2925,194 -4709,797 -7241,1498z"/>
   <path class="fil0" d="M185894 34972l-66 -794 13 -2226c1338,7 2298,117 2190,1584 -87,1188 -974,1422 -2137,1436zm-1806 -2896c195,1247 99,2538 108,3801 26,3387 -398,1622 -1169,2972l3983 -1c-616,-959 -1811,101 -1063,-3291 950,625 1596,2781 2653,3291l2547 0c-390,-1008 -572,-184 -1830,-1357 -460,-428 -1179,-1349 -1514,-1827 881,-532 1458,-353 1824,-1309 352,-918 64,-1961 -455,-2438 -1012,-931 -4464,-603 -6145,-605 512,888 141,113 1063,765z"/>
   <path class="fil0" d="M21001 31388c33,40 93,80 119,99l801 455c1219,857 1797,6412 2850,7085 625,-870 1110,-3312 1592,-4533l1248 3633c260,773 286,730 555,900 621,-853 1120,-3084 1493,-4210 1690,-5096 1300,-1819 2115,-3505l-2974 -1c545,1120 222,-206 971,964l-1070 3476c-917,-1008 -1053,-3249 -1809,-4412 -338,291 -43,-165 -406,521 0,0 -200,572 -218,634 -117,403 -201,736 -331,1150 -242,772 -452,1569 -831,2191l-1129 -3788c957,-703 510,225 1058,-745l-4033 86z"/>
   <path class="fil0" d="M90132 39040c447,-571 901,-2382 1170,-3262l564 -1252c225,784 443,1508 703,2307 257,789 469,1813 958,2208 813,-1039 1469,-4390 2113,-6148 604,-1648 959,-561 1548,-1582l-3026 0c518,1070 1373,-5 672,2042 -281,820 -537,1731 -883,2359 -473,-695 -838,-2308 -1186,-3310 -223,-644 -181,-619 -512,-1075 -783,756 -890,3085 -1698,4366 -562,-790 -895,-2255 -1191,-3425 495,-801 545,-101 1032,-956l-3980 -1 892 618c426,297 351,162 604,860 388,1070 1522,5660 2220,6252z"/>
   <path class="fil0" d="M142917 31952c1777,0 2924,93 3467,1567 1599,4337 -3320,6410 -3476,3439 -82,-1557 22,-3407 9,-5006zm-2811 6894c3911,3 8234,725 8339,-3616 111,-4589 -4466,-3915 -8335,-3918 588,698 991,402 1151,1384 84,511 17,1746 16,2331 -1,687 61,1703 4,2348 -20,226 -3,318 -94,537 -276,665 -716,362 -1081,934z"/>
   <path class="fil0" d="M62440 32480c0,-1059 2275,-450 2752,-105 1295,938 1423,4857 -472,5680 -2931,1273 -2279,-1645 -2280,-5575zm-2348 -779c292,235 155,46 398,304 599,639 268,5719 268,5721 -332,1291 -650,144 -1133,1068 3876,375 8213,542 8341,-3551 142,-4544 -4566,-3934 -8340,-3931l467 389z"/>
   <path class="fil0" d="M121809 35720c553,500 1801,1680 2015,2436l-1460 303c-960,-905 -1085,-1379 -555,-2739zm623 -1585c-474,-1194 -599,-2481 1027,-2268 461,1101 -143,1835 -1027,2268zm-1733 -1965c-112,1369 94,1703 523,2645 -605,682 -1439,820 -1315,2291 164,1943 2339,2288 3786,1739 1060,-402 243,-492 1129,-110 1335,576 2180,363 2555,-1044 -1474,453 -1009,380 -2189,-154 658,-2743 1320,-1492 1648,-2460l-2910 -1c194,623 -234,-90 278,297 514,389 869,141 637,1481 -868,-443 -1222,-1074 -1903,-2041l754 -609c3113,-2051 -52,-4576 -2992,-2036z"/>
   <path class="fil0" d="M75391 36088c-996,-4642 4029,-5933 4735,-1877 796,4568 -3901,5767 -4735,1877zm-1715 0c1322,4947 9322,3289 8176,-1878 -1149,-5179 -9572,-3349 -8176,1878z"/>
   <path class="fil0" d="M155826 35875c-734,-4642 4183,-5648 4795,-1485 686,4661 -4169,5448 -4795,1485zm991 -4497c-5346,1967 -2250,9350 2899,7457 5091,-1871 2302,-9371 -2899,-7457z"/>
   <path class="fil0" d="M172051 32008c3211,-1679 4581,4643 1854,6157 -1668,926 -2982,-482 -3310,-1908 -442,-1920 214,-3600 1456,-4249zm-3284 3655c657,4837 8930,4421 8337,-1029 -227,-2093 -2385,-3825 -4850,-3488 -2104,287 -3815,2103 -3487,4517z"/>
   <path class="fil0" d="M45675 38848l2971 -1c-731,-1155 -1473,1151 -1138,-5740 910,918 1719,2056 2627,3087 1081,1227 1985,2758 2806,2811l41 -6872 1180 -821 -3026 1c1128,1292 1324,-607 1209,4795 -773,-693 -3479,-3883 -3939,-4756l-2733 -48c42,59 120,52 148,141 109,347 860,158 1014,1245 42,294 293,4901 -394,5543 -239,223 -166,97 -389,276 -471,377 -46,-198 -377,341z"/>
   <path class="fil0" d="M196237 36298l0 2762c688,-237 529,-514 1336,-310 785,199 744,428 1819,286 1076,-142 2067,-1088 2038,-2312 -64,-2659 -5164,-2839 -3443,-4617 1470,-1538 2145,1283 2814,1753l-27 -2816c-1685,660 -307,253 -1998,89 -2225,-215 -3970,2536 -633,4323 4543,2431 486,4433 -1197,1625 -528,-881 92,-495 -708,-783z"/>
   <path class="fil0" d="M105314 38273c-794,187 -1599,224 -2247,-268 -447,-339 -379,-373 -627,-841 -626,-1178 151,-505 -744,-863l1 2759c1127,-452 76,-633 1404,-271 2012,549 3834,50 3791,-2058 -57,-2801 -4440,-2313 -3652,-4447 554,-1113 1851,-542 2327,462l320 785c22,49 61,124 79,164 19,41 50,114 82,166l232 -1375c4,-479 -26,-966 -70,-1442 -903,269 -108,525 -977,331 -785,-176 -850,-422 -1926,-189 -1121,243 -1840,1232 -1403,2674 667,2198 4636,1510 3410,4413z"/>
   <path class="fil0" d="M40159 38847c-368,-573 -807,-266 -1083,-934 -205,-498 -87,-2252 -88,-2887 -2,-3029 -252,-2545 875,-3453l-3686 -261c509,891 135,107 1059,763 208,1314 98,2683 110,4015 27,3102 -430,1467 -1170,2756l3983 1z"/>
   <path class="fil0" d="M203321 25477c-293,-2172 2761,-2763 3073,-601 317,2199 -2802,2603 -3073,601zm608 -2148c-2734,1660 -373,4930 1981,3763 2376,-1178 511,-5276 -1981,-3763z"/>
   <path class="fil0" d="M204636 25374c816,900 55,805 1176,1004 -176,-476 -174,-451 -418,-901 1154,-1454 95,-1537 -1358,-1541l0 2444 449 -3 152 -1003z"/>
  </g>
 </g>
</svg>
