<?xml version="1.0" standalone="no"?>
<!DOCTYPE svg PUBLIC "-//W3C//DTD SVG 1.1//EN" "http://www.w3.org/Graphics/SVG/1.1/DTD/svg11.dtd" >
<svg xmlns="http://www.w3.org/2000/svg" xmlns:xlink="http://www.w3.org/1999/xlink" version="1.1">
<metadata></metadata>
<defs>
<font id="chevinregular" horiz-adv-x="1296" >
<font-face units-per-em="2048" ascent="1638" descent="-410" />
<missing-glyph horiz-adv-x="604" />
<glyph horiz-adv-x="0" />
<glyph horiz-adv-x="682" />
<glyph unicode=" "  horiz-adv-x="604" />
<glyph unicode="&#x09;" horiz-adv-x="604" />
<glyph unicode="&#xa0;" horiz-adv-x="604" />
<glyph unicode="!" horiz-adv-x="571" d="M176 100q0 50 35 85.5t86 35.5q49 0 84 -35.5t35 -85.5t-35 -85t-84 -35q-51 0 -86 35t-35 85zM199 1407q-2 44 23.5 74t74.5 30q47 0 72.5 -30t23.5 -74l-20 -901q-3 -88 -76 -88q-75 0 -78 88z" />
<glyph unicode="&#x22;" horiz-adv-x="733" d="M90 1409q-3 43 19.5 72.5t70.5 29.5q47 0 69.5 -29.5t20.5 -72.5l-18 -254q-6 -80 -72 -80q-68 0 -74 80zM449 1409q-2 43 20.5 72.5t69.5 29.5q48 0 71 -29t21 -73l-19 -254q-6 -80 -73 -80q-66 0 -72 80z" />
<glyph unicode="#" horiz-adv-x="1523" d="M49 457q0 35 25 59.5t59 24.5h234l61 405h-207q-35 0 -59.5 25.5t-24.5 60.5q0 34 24.5 59t59.5 25h232l49 324q6 35 34.5 55.5t63.5 15.5q34 -6 54 -34.5t16 -63.5l-45 -297h370l49 324q6 35 34.5 55.5t62.5 15.5q35 -6 55.5 -34.5t15.5 -63.5l-47 -297h207q34 0 59 -25 t25 -59q0 -35 -25 -60.5t-59 -25.5h-231l-62 -405h205q35 0 59.5 -24.5t24.5 -59.5t-24.5 -59.5t-59.5 -24.5h-231l-47 -322q-6 -34 -35 -54.5t-64 -14.5q-33 4 -53.5 33t-15.5 63l45 295h-371l-49 -322q-6 -34 -34 -54.5t-62 -14.5q-35 4 -56 33t-16 63l45 295h-207 q-34 0 -59 24.5t-25 59.5zM537 541h370l64 405h-373z" />
<glyph unicode="$" horiz-adv-x="1181" d="M102 129q0 35 23 61.5t59 26.5q17 0 68 -20t106 -31q89 -19 183 -19q182 0 272 74t90 203q0 89 -46.5 138t-151.5 81q-30 10 -189 43t-225 66q-185 90 -185 317q0 180 106.5 294.5t281.5 139.5v139q0 32 21.5 54t53.5 22q31 0 53.5 -22t22.5 -54v-133q162 -3 283 -55 q61 -23 61 -82q0 -36 -23.5 -62t-62.5 -26q-16 0 -60 17t-89 26q-68 14 -156 14q-144 0 -225.5 -68t-81.5 -186q0 -93 49.5 -139.5t153.5 -75.5q41 -12 140 -30t178 -40.5t128 -56.5q147 -96 147 -307q0 -194 -117.5 -312t-324.5 -140v-138q0 -31 -22.5 -53t-53.5 -22 q-32 0 -53.5 22t-21.5 53v134q-193 6 -332 63q-60 26 -60 84z" />
<glyph unicode="%" horiz-adv-x="1161" d="M115 1153v131q0 104 63.5 165.5t161.5 61.5q96 0 160.5 -62t64.5 -165v-131q0 -104 -64 -165.5t-161 -61.5q-98 0 -161.5 61t-63.5 166zM236 1147q0 -53 28 -83t76 -30q46 0 74 30t28 83v141q0 54 -27.5 83.5t-74.5 29.5q-48 0 -76 -29t-28 -84v-141zM264 61l518 1412 q9 24 31.5 33.5t46.5 0.5q23 -7 33 -29t2 -46l-518 -1414q-9 -23 -31.5 -32.5t-46.5 -1.5q-23 9 -33 31t-2 46zM596 209v131q0 103 63.5 165t159.5 62q98 0 163 -62t65 -165v-131q0 -104 -65 -165.5t-163 -61.5q-97 0 -160 61t-63 166zM717 203q0 -54 28 -83.5t74 -29.5 q49 0 78 29.5t29 83.5v141q0 54 -28.5 83.5t-78.5 29.5q-46 0 -74 -30t-28 -83v-141z" />
<glyph unicode="&#x26;" horiz-adv-x="1275" d="M102 403q0 80 26 149.5t74 125t98.5 95.5t117.5 81q-72 91 -113 172t-41 162q0 82 31.5 146.5t83.5 101.5t112.5 56t124.5 19q141 0 236 -53q57 -31 93 -79.5t36 -86.5q0 -36 -26 -61t-60 -25q-7 0 -13.5 1.5t-10.5 3t-10 6.5t-8.5 7t-9.5 9.5t-9 9.5q-17 23 -56 51 q-77 58 -160 58q-68 0 -120 -45t-52 -127q0 -21 7.5 -45t15 -41.5t27 -47t27 -40t32.5 -43t27 -35.5l374 -490q51 105 62 254q3 36 28 57t60 21t60.5 -24.5t25.5 -61.5q-2 -84 -34 -194.5t-87 -200.5l125 -164q21 -28 21 -55q0 -36 -26.5 -63t-62.5 -27q-44 0 -71 38 l-101 132q-170 -170 -426 -170q-105 0 -189 35.5t-135 95.5t-77.5 134.5t-26.5 157.5zM276 408q0 -112 70.5 -187.5t194.5 -75.5q191 0 311 140l-334 438q-115 -64 -178.5 -139t-63.5 -176z" />
<glyph unicode="'" horiz-adv-x="387" d="M102 1409q-2 43 21 72.5t70 29.5q48 0 70.5 -29.5t19.5 -72.5l-17 -254q-6 -80 -73 -80q-66 0 -72 80z" />
<glyph unicode="(" horiz-adv-x="606" d="M94 745q0 243 58.5 478.5t187.5 425.5q26 41 74 41q36 0 62 -25t26 -61q0 -30 -17 -58q-206 -333 -206 -801q0 -469 206 -800q17 -28 17 -58q0 -36 -26 -61t-62 -25q-48 0 -74 41q-130 190 -188 424.5t-58 478.5z" />
<glyph unicode=")" horiz-adv-x="606" d="M104 -113q0 30 17 58q207 332 207 800q0 466 -207 801q-17 28 -17 58q0 36 26 61t63 25q47 0 73 -41q129 -190 187.5 -425.5t58.5 -478.5q0 -244 -58 -478.5t-188 -424.5q-26 -41 -73 -41q-37 0 -63 25t-26 61z" />
<glyph unicode="*" horiz-adv-x="985" d="M102 1227q13 36 44 47t59 -2l227 -90l-14 243q-2 35 17.5 59.5t58.5 24.5q37 0 56 -24.5t17 -59.5l-14 -243l227 90q28 13 60 2t43 -47q11 -37 -6.5 -63t-51.5 -34l-235 -61l153 -188q24 -25 23 -57.5t-33 -55.5q-35 -22 -62 -13.5t-46 38.5l-131 206l-134 -206 q-19 -30 -46 -38.5t-62 13.5q-32 23 -33 55.5t23 57.5l153 188l-235 61q-34 8 -51.5 34t-6.5 63z" />
<glyph unicode="+" horiz-adv-x="1126" d="M127 567q0 35 24.5 59.5t59.5 24.5h268v269q0 35 24.5 59.5t59.5 24.5t59.5 -24.5t24.5 -59.5v-269h268q35 0 59.5 -24.5t24.5 -59.5t-24.5 -59.5t-59.5 -24.5h-268v-268q0 -35 -24.5 -59.5t-59.5 -24.5t-59.5 24.5t-24.5 59.5v268h-268q-35 0 -59.5 24.5t-24.5 59.5z " />
<glyph unicode="," horiz-adv-x="485" d="M109 104q0 49 35 83t85 34q54 0 87.5 -39t33.5 -102q0 -59 -24 -114t-57 -89t-64 -54t-49 -20t-30.5 12.5t-12.5 30.5q0 15 11.5 29t26.5 24.5t30 34.5t20 56q-40 9 -66 41t-26 73z" />
<glyph unicode="-" horiz-adv-x="1003" d="M143 600q0 35 24.5 59.5t59.5 24.5h551q34 0 58 -24.5t24 -59.5q0 -34 -24 -59t-58 -25h-551q-35 0 -59.5 25t-24.5 59z" />
<glyph unicode="." horiz-adv-x="497" d="M123 102q0 50 35 84.5t86 34.5q49 0 83.5 -34.5t34.5 -84.5q0 -51 -34 -85.5t-84 -34.5q-51 0 -86 34.5t-35 85.5z" />
<glyph unicode="/" horiz-adv-x="663" d="M-16 -47l524 1636q10 34 42 50.5t64 5.5q34 -10 50.5 -42.5t5.5 -64.5l-525 -1636q-10 -34 -42 -50.5t-64 -5.5q-34 10 -50 41.5t-5 65.5z" />
<glyph unicode="0" horiz-adv-x="1146" d="M100 520v453q0 110 28.5 205.5t84.5 170.5t148.5 118.5t211.5 43.5q118 0 210.5 -43.5t149 -118.5t85.5 -170.5t29 -205.5v-453q0 -111 -29 -206.5t-85.5 -170.5t-148.5 -118t-211 -43t-211.5 43t-148.5 118t-84.5 170.5t-28.5 206.5zM285 520q0 -172 72.5 -270 t215.5 -98q142 0 215.5 98t73.5 270v451q0 172 -74 271t-215 99q-142 0 -215 -99t-73 -271v-451z" />
<glyph unicode="1" horiz-adv-x="1146" d="M71 1109q7 36 38 56l481 328q27 18 57 18q38 0 65 -27t27 -65v-1245h201q37 0 62.5 -25.5t25.5 -60.5q0 -37 -25.5 -62.5t-62.5 -25.5h-729q-37 0 -62.5 25.5t-25.5 62.5q0 35 25.5 60.5t62.5 25.5h344v1086l-350 -240q-29 -22 -65 -14.5t-56 38.5q-20 29 -13 65z" />
<glyph unicode="2" horiz-adv-x="1146" d="M121 88q0 138 57.5 243t159.5 197q44 40 107.5 88t113 83t103 80.5t88.5 87.5t58 96.5t23 113.5q0 114 -65.5 190t-194.5 76q-112 0 -204 -47q-27 -15 -55 -35.5t-45 -30t-36 -9.5q-34 0 -61 26t-27 62q0 41 33 67q153 135 399 135q90 0 165 -24.5t125 -66t85 -98 t50.5 -118t15.5 -127.5q0 -94 -34 -175t-89.5 -141.5t-123.5 -115t-140 -106t-134 -103.5t-110.5 -119t-65.5 -141h609q37 0 62.5 -25.5t25.5 -62.5t-25.5 -62.5t-62.5 -25.5h-719q-39 0 -63.5 24.5t-24.5 63.5z" />
<glyph unicode="3" horiz-adv-x="1146" d="M92 186q0 35 23.5 58.5t56.5 23.5q14 0 27.5 -7.5t40 -27.5t49.5 -34q86 -56 217 -56q143 0 221 78.5t78 202.5q0 255 -320 262q-92 0 -92 80q0 75 94 80q42 2 81 10t79.5 26t70.5 44t49 68.5t19 95.5q0 39 -7.5 75t-26.5 70t-48 58.5t-74.5 39.5t-103.5 15 q-114 0 -204 -56q-22 -13 -46.5 -32.5t-39.5 -28t-33 -8.5q-31 0 -53.5 21.5t-22.5 58.5t41 75q58 58 151 95.5t213 37.5q91 0 165 -25t121.5 -65.5t79 -94t45 -107t13.5 -109.5q0 -246 -237 -336q129 -39 198.5 -126.5t69.5 -239.5q0 -84 -30.5 -160t-87.5 -136t-149.5 -95 t-207.5 -35q-128 0 -220.5 32t-168.5 107q-31 31 -31 65z" />
<glyph unicode="4" horiz-adv-x="1146" d="M96 373q0 15 10 45l453 1038q15 35 49.5 48.5t69.5 -1.5q34 -14 48 -50t-1 -71l-403 -923h358v278q0 37 26.5 63.5t63.5 26.5t63.5 -26.5t26.5 -63.5v-278h105q35 0 59.5 -25.5t24.5 -60.5t-24.5 -60.5t-59.5 -25.5h-105v-215q0 -37 -26.5 -63.5t-63.5 -26.5t-63.5 26.5 t-26.5 63.5v215h-500q-35 0 -59.5 24.5t-24.5 61.5z" />
<glyph unicode="5" horiz-adv-x="1146" d="M156 152q0 35 25 61.5t61 26.5q28 0 53 -17q96 -76 231 -76q76 0 134 25t92 68.5t50.5 97.5t16.5 117q0 151 -69 226t-191 75q-90 0 -164 -54q-19 -14 -42.5 -36t-38.5 -30.5t-35 -8.5q-38 0 -62.5 26t-23.5 66l22 688q1 37 28 61.5t62 24.5h535q35 0 60.5 -25.5 t25.5 -62.5q0 -35 -25.5 -60.5t-60.5 -25.5h-455l-16 -461q86 60 202 60q202 0 317.5 -121.5t115.5 -341.5q0 -92 -28 -174.5t-84 -150.5t-150.5 -108t-215.5 -40q-196 0 -325 92q-45 33 -45 78z" />
<glyph unicode="6" horiz-adv-x="1146" d="M117 535q0 129 40.5 263.5t111 256t152 226t177.5 200.5q28 28 66 28q40 0 66 -27t26 -65q0 -34 -29 -63q-252 -249 -354 -512q98 59 207 59q91 0 170.5 -27.5t141.5 -81.5t98 -141.5t36 -199.5q0 -215 -127.5 -342t-333.5 -127q-207 0 -327.5 152t-120.5 401zM301 535 q0 -193 76.5 -289t189.5 -96q130 0 202.5 78.5t72.5 217.5q0 140 -75.5 216.5t-201.5 76.5q-141 0 -256 -98q-8 -47 -8 -106z" />
<glyph unicode="7" horiz-adv-x="1146" d="M102 1405q0 37 25.5 62.5t60.5 25.5h752q37 0 62.5 -25.5t25.5 -62.5q0 -24 -10 -51l-512 -1313q-13 -35 -48.5 -51t-70.5 -2t-50.5 48.5t-2.5 69.5l481 1213h-627q-35 0 -60.5 25.5t-25.5 60.5z" />
<glyph unicode="8" horiz-adv-x="1146" d="M86 387q0 59 15.5 109.5t42 89t67 74t83.5 61.5t99 53q-112 59 -174.5 139.5t-62.5 210.5q0 184 117 284.5t298 100.5q183 0 298.5 -102t115.5 -277q0 -110 -58 -188.5t-177 -144.5q71 -33 120 -64t96 -78.5t71 -114t24 -151.5q0 -182 -132 -294.5t-354 -112.5 t-355.5 108.5t-133.5 296.5zM270 403q0 -119 83.5 -187.5t217.5 -68.5q140 0 223 69.5t83 182.5q0 36 -9.5 68t-23.5 56t-40 46.5t-48 37.5t-60.5 33t-64 28.5t-70.5 27.5q-66 -27 -111 -51t-90 -59.5t-67.5 -81t-22.5 -101.5zM334 1116q0 -51 18.5 -91t56.5 -70t77 -50 t98 -43q107 49 166 107t59 143q0 113 -65.5 174.5t-170.5 61.5t-172 -61.5t-67 -170.5z" />
<glyph unicode="9" horiz-adv-x="1146" d="M129 1042q0 214 127 340.5t332 126.5q208 0 328 -152t120 -401q0 -129 -40.5 -263.5t-111 -256t-152 -226t-177.5 -200.5q-28 -28 -66 -28q-39 0 -65.5 27.5t-26.5 64.5q0 34 29 63q252 249 354 512q-95 -59 -205 -59q-91 0 -170.5 28t-141.5 82t-98 142t-36 200z M311 1044q0 -140 76 -216t203 -76q137 0 254 100q8 44 8 104q0 193 -76 289t-190 96q-130 0 -202.5 -79t-72.5 -218z" />
<glyph unicode=":" horiz-adv-x="497" d="M123 102q0 50 35 84.5t86 34.5q49 0 83.5 -34.5t34.5 -84.5q0 -51 -34 -85.5t-84 -34.5q-51 0 -86 34.5t-35 85.5zM123 741q0 50 35 84.5t86 34.5q49 0 83.5 -34.5t34.5 -84.5q0 -51 -34 -85.5t-84 -34.5q-51 0 -86 34.5t-35 85.5z" />
<glyph unicode=";" horiz-adv-x="489" d="M113 104q0 49 35 83t85 34q54 0 87.5 -39t33.5 -102q0 -59 -24 -114t-57 -89t-64 -54t-49 -20t-30.5 12.5t-12.5 30.5q0 15 11.5 29t26.5 24.5t30 34.5t20 56q-40 9 -66 41t-26 73zM113 741q0 49 35 84t85 35q49 0 84 -35t35 -84q0 -50 -35 -85t-84 -35t-84.5 35.5 t-35.5 84.5z" />
<glyph unicode="&#x3c;" horiz-adv-x="890" d="M127 571q0 36 33 66l479 446q23 23 56 22t55 -26q23 -23 21.5 -55t-26.5 -55l-423 -398l423 -395q25 -23 26.5 -55.5t-21.5 -57.5q-22 -23 -55 -24t-56 22l-479 447q-33 30 -33 63z" />
<glyph unicode="=" horiz-adv-x="1212" d="M170 373q0 35 24.5 59.5t59.5 24.5h704q35 0 59.5 -24.5t24.5 -59.5t-24.5 -59.5t-59.5 -24.5h-704q-35 0 -59.5 24.5t-24.5 59.5zM170 780q0 34 24.5 59t59.5 25h704q35 0 59.5 -25t24.5 -59q0 -35 -24.5 -59.5t-59.5 -24.5h-704q-35 0 -59.5 24.5t-24.5 59.5z" />
<glyph unicode="&#x3e;" horiz-adv-x="890" d="M120 120q1 33 25 56l424 395l-424 398q-24 23 -25 55t21 55q23 25 55.5 26t57.5 -22l479 -446q31 -31 31 -66q0 -32 -31 -63l-479 -447q-25 -23 -57.5 -22t-55.5 24q-22 24 -21 57z" />
<glyph unicode="?" horiz-adv-x="1003" d="M88 1319q0 51 78 104q125 88 313 88q57 0 113.5 -13.5t110.5 -44t95 -75t66 -110.5t25 -146q0 -66 -15 -119t-49.5 -98.5t-68 -78t-90.5 -78.5q-100 -81 -129 -134t-29 -122q0 -35 -23.5 -58.5t-60.5 -23.5q-38 0 -62 24t-24 64q0 101 34.5 172t143.5 159q48 39 69 57 t50 48t40.5 52t20.5 53.5t9 68.5q0 81 -37 137t-90 79.5t-115 23.5q-144 0 -240 -93q-22 -16 -49 -16q-37 0 -61.5 24t-24.5 56zM307 102q0 50 34.5 84.5t84.5 34.5q51 0 86 -34.5t35 -84.5q0 -51 -35 -85.5t-86 -34.5q-50 0 -84.5 34.5t-34.5 85.5z" />
<glyph unicode="@" horiz-adv-x="1695" d="M137 623q0 113 28 223t87.5 210.5t143.5 176.5t204 121t260 45q151 0 272 -35.5t199.5 -94t131 -139t74.5 -166t22 -178.5q0 -92 -27 -176.5t-74.5 -149.5t-119.5 -104t-156 -39q-153 0 -205 138q-94 -133 -250 -133q-105 0 -157 74t-52 184q0 81 26.5 160t73 143.5 t118.5 104.5t155 40q108 0 215 -35q51 -16 39 -78l-43 -194q-19 -102 -19 -148q0 -141 107 -141q104 0 175 104.5t71 247.5q0 79 -18 149t-60.5 135t-107 111.5t-164 74.5t-224.5 28q-119 0 -220 -39.5t-169.5 -105.5t-117 -151.5t-71 -176.5t-22.5 -182q0 -97 18.5 -180.5 t60 -156.5t104.5 -124.5t156 -81t210 -29.5q90 0 203 23q18 4 37.5 9.5t30.5 8t20 2.5q27 0 42 -17t15 -42q0 -49 -59 -62q-128 -36 -289 -36q-138 0 -250.5 35t-190.5 96.5t-131 147.5t-77.5 187t-24.5 216zM657 586q0 -60 25 -92.5t70 -32.5q78 0 131.5 61t74.5 160 l46 207q-56 16 -117 16q-64 0 -118.5 -49.5t-83 -122t-28.5 -147.5z" />
<glyph unicode="A" horiz-adv-x="1161" d="M31 94q161 646 432 1317q24 58 52.5 79t64.5 21t65 -21t53 -79q266 -651 432 -1317q4 -15 4 -28q0 -30 -20 -52q-30 -32 -74 -32q-31 0 -55 18t-33 53q-34 137 -82 295h-585q-56 -200 -80 -295q-9 -35 -32.5 -53t-53.5 -18q-43 0 -71 32q-21 23 -20 54q0 12 3 26z M332 516h491q-107 350 -245 698q-141 -364 -246 -698z" />
<glyph unicode="B" horiz-adv-x="1292" d="M170 92v1309q0 37 27 64.5t65 27.5h408q114 0 200 -29.5t137 -81t76 -116.5t25 -142v-59q0 -217 -197 -297q122 -37 190 -123.5t68 -206.5v-55q0 -383 -454 -383h-453q-38 0 -65 27t-27 65zM354 172h357q153 0 214.5 59.5t61.5 167.5v50q0 104 -81 162.5t-224 58.5h-328 v-498zM354 836h224q167 0 257.5 48t90.5 163v57q0 98 -64 156.5t-194 58.5h-314v-483z" />
<glyph unicode="C" horiz-adv-x="1122" d="M137 625v243q0 143 29.5 257t91 202t165.5 136t245 48q99 0 189.5 -31t152.5 -94q34 -37 34 -67q0 -32 -23 -57.5t-63 -26.5q-10 0 -20.5 4t-15.5 7t-20 15.5t-21 16.5q-83 65 -213 65q-177 0 -261.5 -120t-84.5 -359v-237q0 -249 80 -363t255 -114q131 0 230 71 q3 2 10.5 8t10 7.5t8.5 6t8.5 6t8 4.5t8.5 4t8 2.5t9 2t9 0.5q34 1 55.5 -22.5t21.5 -57.5q0 -37 -32 -69q-66 -66 -163.5 -98.5t-191.5 -32.5q-520 0 -520 643z" />
<glyph unicode="D" horiz-adv-x="1325" d="M170 92v1309q0 37 27 64.5t65 27.5h400q95 0 173 -19.5t131.5 -51.5t94 -78t64.5 -94t38.5 -105.5t19.5 -106.5t5 -102v-383q0 -52 -5 -100.5t-19.5 -105.5t-38.5 -105t-64.5 -94t-94 -77.5t-131.5 -51t-173 -19.5h-400q-38 0 -65 27t-27 65zM354 172h297q86 0 150.5 22 t102.5 57.5t61 87.5t31 103t8 113v379q0 63 -8 114.5t-31 103t-61 86.5t-102.5 57t-150.5 22h-297v-1145z" />
<glyph unicode="E" horiz-adv-x="1136" d="M170 88v1317q0 36 26 62t62 26h682q36 0 62 -26t26 -62q0 -37 -25.5 -62.5t-62.5 -25.5h-586v-486h535q35 0 59.5 -25.5t24.5 -60.5t-24.5 -60.5t-59.5 -25.5h-535v-483h617q37 0 62.5 -25.5t25.5 -62.5q0 -36 -26 -62t-62 -26h-713q-37 0 -62.5 25.5t-25.5 62.5z" />
<glyph unicode="F" horiz-adv-x="1069" d="M170 74v1331q0 36 26 62t62 26h666q36 0 62 -26t26 -62q0 -37 -25.5 -62.5t-62.5 -25.5h-570v-486h475q35 0 60.5 -25.5t25.5 -60.5t-25.5 -60.5t-60.5 -25.5h-475v-585q0 -38 -27 -65t-65 -27t-65 27t-27 65z" />
<glyph unicode="G" horiz-adv-x="1259" d="M137 627v241q0 143 29.5 257t91.5 202t166.5 136t245.5 48q230 0 346 -127q35 -28 35 -67q0 -33 -23 -57.5t-63 -24.5q-8 0 -15 1t-12 2.5t-13.5 7t-12 8t-14.5 11t-15 11.5q-82 67 -213 67q-178 0 -263 -119.5t-85 -359.5v-235q0 -250 80 -364.5t255 -114.5 q156 0 231 88.5t75 250.5v109h-246q-35 0 -60.5 25.5t-25.5 60.5t25.5 60.5t60.5 25.5h336q38 0 63 -26t25 -66v-184q0 -111 -28.5 -202t-86 -161t-152 -108.5t-217.5 -38.5q-520 0 -520 643z" />
<glyph unicode="H" horiz-adv-x="1384" d="M170 74v1345q0 37 27 64.5t65 27.5t65 -27.5t27 -64.5v-602h676v602q0 37 27 64.5t65 27.5t65 -27.5t27 -64.5v-1345q0 -38 -27 -65t-65 -27t-65 27t-27 65v575h-676v-575q0 -38 -27 -65t-65 -27t-65 27t-27 65z" />
<glyph unicode="I" horiz-adv-x="522" d="M170 74v1345q0 37 27 64.5t65 27.5t65 -27.5t27 -64.5v-1345q0 -38 -27 -65t-65 -27t-65 27t-27 65z" />
<glyph unicode="J" horiz-adv-x="897" d="M8 84q0 37 23 62.5t63 25.5q3 0 68 -10q44 -6 96 -6q169 0 239 86.5t70 287.5v889q0 37 27 64.5t65 27.5q37 0 65 -27.5t28 -64.5v-889q0 -265 -117.5 -406.5t-376.5 -141.5q-88 0 -176 16q-36 7 -55 31t-19 55z" />
<glyph unicode="K" horiz-adv-x="1165" d="M170 74v1345q0 37 27 64.5t65 27.5t65 -27.5t27 -64.5v-659l580 719q26 32 70 32q32 0 57 -22q29 -23 33 -61v-9q0 -32 -21 -57l-426 -504q265 -369 471 -741q12 -24 12 -45q0 -25 -16 -48q-32 -42 -80 -42q-51 0 -80 51q-184 332 -430 684l-170 -205v-438q0 -38 -27 -65 t-65 -27t-65 27t-27 65z" />
<glyph unicode="L" horiz-adv-x="1071" d="M170 88v1331q0 37 27 64.5t65 27.5t65 -27.5t27 -64.5v-1243h613q37 0 62.5 -25.5t25.5 -62.5t-25.5 -62.5t-62.5 -25.5h-709q-37 0 -62.5 25.5t-25.5 62.5z" />
<glyph unicode="M" horiz-adv-x="1607" d="M170 66v1359q0 37 25 61.5t63 24.5q63 0 90 -55l457 -958l459 962q25 51 86 51q38 0 63 -25t25 -61v-1357q0 -35 -25.5 -60.5t-60.5 -25.5t-60.5 25.5t-25.5 60.5v1032l-379 -807q-24 -53 -84 -53t-84 53l-379 805v-1032q0 -34 -25.5 -59t-60.5 -25t-59.5 25t-24.5 59z " />
<glyph unicode="N" horiz-adv-x="1368" d="M170 68v1357q0 36 25 61t65 25q62 0 90 -51l678 -1100v1065q0 35 25.5 60.5t60.5 25.5t59.5 -25.5t24.5 -60.5v-1357q0 -36 -25 -61t-65 -25q-62 0 -88 45l-680 1103v-1062q0 -35 -25.5 -60.5t-60.5 -25.5t-59.5 25.5t-24.5 60.5z" />
<glyph unicode="O" d="M137 535v423q0 87 16 165t54 150t95 124t146 83t201 31q111 0 199.5 -31t146 -83t95 -124t53.5 -150t16 -165v-423q0 -87 -16 -165t-53.5 -150t-95 -124t-146 -83t-199.5 -31q-112 0 -201 31t-146 83t-95 124t-54 150t-16 165zM322 535q0 -385 327 -385q89 0 154.5 29.5 t102.5 83t54 121t17 151.5v423q0 84 -17 150.5t-53.5 120t-102 83t-155.5 29.5q-327 0 -327 -383v-423z" />
<glyph unicode="P" horiz-adv-x="1210" d="M170 74v1327q0 37 27 64.5t65 27.5h391q126 0 220.5 -35t147 -94t78 -128t25.5 -146v-105q0 -177 -120.5 -286t-331.5 -109h-318v-516q0 -38 -27 -65t-65 -27t-65 27t-27 65zM354 760h314q137 0 204.5 64t67.5 163v100q0 43 -14 81.5t-46 73.5t-93.5 56t-145.5 21h-287 v-559z" />
<glyph unicode="Q" d="M137 535v423q0 87 16 165t54 150t95 124t146 83t201 31q111 0 199.5 -31t146 -83t95 -124t53.5 -150t16 -165v-423q0 -209 -88 -349l121 -108q29 -28 29 -60.5t-25 -58.5q-23 -26 -55 -29h-5q-30 0 -57 25l-118 113q-127 -86 -312 -86q-112 0 -201 31t-146 83t-95 124 t-54 150t-16 165zM322 535q0 -385 327 -385q110 0 180 43l-61 57q-27 26 -29.5 59t21.5 56q24 24 55 24t59 -24l60 -56q43 87 43 226v423q0 84 -17 150.5t-53.5 120t-102 83t-155.5 29.5q-327 0 -327 -383v-423z" />
<glyph unicode="R" horiz-adv-x="1241" d="M170 74v1327q0 37 27 64.5t65 27.5h389q238 0 356.5 -107t118.5 -284v-88q0 -130 -76 -231t-223 -136q194 -311 303 -534q12 -23 12 -44q0 -25 -18 -47q-32 -40 -80 -40q-55 0 -79 53q-135 269 -334 581h-277v-542q0 -38 -27 -65t-65 -27t-65 27t-27 65zM354 786h293 q145 0 220 66t75 162v88q0 95 -71 157t-222 62h-295v-535z" />
<glyph unicode="S" horiz-adv-x="1181" d="M102 131q0 35 23 61.5t59 26.5q17 0 68 -20t106 -31q85 -18 183 -18q181 0 271.5 73.5t90.5 200.5q0 91 -46.5 140t-151.5 81q-25 7 -186.5 41t-227.5 66q-185 90 -185 317q0 206 135.5 324t346.5 118q205 0 340 -57q61 -23 61 -82q0 -35 -24 -61.5t-62 -26.5 q-16 0 -60 17t-89 26q-68 14 -156 14q-144 0 -225.5 -68t-81.5 -186q0 -93 49.5 -139.5t153.5 -75.5q44 -13 143 -31t176 -40t127 -56q147 -96 147 -305q0 -218 -143.5 -338t-388.5 -120q-231 0 -393 65q-60 23 -60 84z" />
<glyph unicode="T" horiz-adv-x="1173" d="M18 1403q0 37 25.5 63.5t62.5 26.5h959q37 0 63.5 -26.5t26.5 -63.5t-26.5 -62.5t-63.5 -25.5h-387v-1241q0 -38 -27 -65t-65 -27t-65 27t-27 65v1241h-388q-37 0 -62.5 25.5t-25.5 62.5z" />
<glyph unicode="U" d="M137 485v934q0 38 27 65t65 27q37 0 63.5 -27t26.5 -65v-930q0 -71 18 -131t55 -109t103 -76.5t154 -27.5t153 27.5t102.5 76.5t55 109t17.5 131v930q0 37 27 64.5t65 27.5q37 0 64.5 -27.5t27.5 -64.5v-934q0 -105 -31.5 -195t-92.5 -159.5t-160.5 -109t-227.5 -39.5 t-228 39.5t-161 109t-92 159t-31 195.5z" />
<glyph unicode="V" horiz-adv-x="1159" d="M31 1393q-4 16 -4 30q1 31 21 55q30 34 75 33q29 0 52 -17.5t32 -49.5q177 -601 377 -1157q220 613 381 1161q9 31 30 47t47 16q44 1 72 -31q19 -21 19 -50q0 -14 -5 -29q-171 -589 -442 -1327q-35 -92 -108 -92q-41 0 -68 21.5t-45 72.5q-257 711 -434 1317z" />
<glyph unicode="W" horiz-adv-x="1777" d="M37 1425q0 38 28.5 62t65.5 24q30 0 53.5 -18t32.5 -53q113 -520 285 -1147q163 594 276 1110q24 108 113 108q85 0 108 -108q127 -565 277 -1110q161 576 285 1147q9 35 32.5 53t53.5 18q37 0 65.5 -24t28.5 -62q0 -8 -4 -24q-135 -608 -336 -1313q-29 -106 -119 -106 q-43 0 -74.5 27.5t-44.5 76.5q-154 539 -274 1053q-116 -494 -275 -1053q-14 -50 -44.5 -77t-73.5 -27q-90 0 -119 106q-201 705 -336 1313q-4 16 -4 24z" />
<glyph unicode="X" horiz-adv-x="1116" d="M12 70q0 28 13 49q173 294 426 659q-203 296 -371 598q-10 20 -10 47q0 36 28 62t64 26q51 0 76 -49q143 -266 319 -524q164 237 322 524q27 49 75 49q38 0 66.5 -26.5t28.5 -63.5q0 -24 -13 -45q-163 -300 -368 -600q275 -402 424 -659q14 -22 14 -47q0 -36 -29 -62 t-65 -26q-48 0 -74 45q-159 274 -379 591q-222 -320 -377 -589q-28 -47 -76 -47q-36 0 -65 26t-29 62z" />
<glyph unicode="Y" horiz-adv-x="1030" d="M0 1421q0 38 28.5 64t65.5 26q57 0 80 -55q139 -316 342 -702q200 375 342 702q23 55 78 55q37 0 65.5 -25.5t28.5 -62.5q0 -17 -10 -37q-157 -368 -414 -839v-473q0 -38 -27 -65t-65 -27t-65 27t-27 65v473q-249 459 -414 835q-8 19 -8 39z" />
<glyph unicode="Z" horiz-adv-x="1062" d="M39 88q0 37 29 86l702 1143h-641q-37 0 -62.5 25.5t-25.5 62.5q0 36 26 62t62 26h803q40 0 63 -25t23 -63q0 -26 -27 -78l-710 -1151h653q37 0 61.5 -25.5t24.5 -62.5t-24.5 -62.5t-61.5 -25.5h-809q-38 0 -62 25.5t-24 62.5z" />
<glyph unicode="[" horiz-adv-x="565" d="M102 -111v1708q0 37 25.5 63t62.5 26h193q35 0 60.5 -26t25.5 -63q0 -35 -25.5 -61.5t-60.5 -26.5h-96v-1532h96q35 0 60.5 -25.5t25.5 -62.5q0 -35 -25.5 -61.5t-60.5 -26.5h-193q-36 0 -62 26t-26 62z" />
<glyph unicode="\" horiz-adv-x="749" d="M0 1507q-12 32 1.5 63.5t45.5 43.5t63.5 -1.5t43.5 -45.5l602 -1587q12 -32 -1.5 -63.5t-45.5 -43.5t-63.5 1.5t-43.5 45.5z" />
<glyph unicode="]" horiz-adv-x="565" d="M96 -111q0 37 25.5 62.5t62.5 25.5h97v1532h-97q-36 0 -62 26t-26 62q0 37 25.5 63t62.5 26h193q35 0 60.5 -26t25.5 -63v-1708q0 -35 -25.5 -61.5t-60.5 -26.5h-193q-36 0 -62 26t-26 62z" />
<glyph unicode="^" horiz-adv-x="1024" d="M96.5 890.5q-6.5 32.5 12.5 61.5l317 502q33 51 86 51q56 0 86 -51l317 -502q19 -29 13 -61.5t-35 -52.5q-29 -19 -62.5 -12t-52.5 36l-266 420l-266 -420q-19 -29 -52.5 -36t-62.5 12q-28 20 -34.5 52.5z" />
<glyph unicode="_" horiz-adv-x="960" d="M-80 -276q0 32 24 55.5t56 23.5h961q33 0 56 -23t23 -56q0 -34 -22.5 -57t-56.5 -23h-961q-33 0 -56.5 23.5t-23.5 56.5z" />
<glyph unicode="`" horiz-adv-x="1085" d="M389.5 1587q7.5 31 38.5 49q36 16 65 5.5t44 -39.5l153 -283q14 -28 4.5 -53.5t-35.5 -38.5q-26 -14 -51.5 -6t-42.5 36l-168 275q-15 24 -7.5 55z" />
<glyph unicode="a" horiz-adv-x="1032" d="M76 289v16q0 134 95 215.5t282 81.5h233v49q0 131 -44 188.5t-167 57.5q-119 0 -209 -51q-27 -13 -52 -10.5t-41 19t-23.5 37t1 44t33.5 39.5q116 72 301 72q109 0 183 -25.5t117 -79.5t61 -128t18 -179v-381q0 -58 13 -84t45 -45q34 -18 34 -59q0 -38 -24 -58t-64 -20 q-63 0 -106 43q-27 22 -41 61q-97 -104 -287 -104q-181 0 -269.5 82.5t-88.5 218.5zM254 287q0 -160 211 -160q105 0 163 54t58 161v121h-215q-217 0 -217 -160v-16z" />
<glyph unicode="b" horiz-adv-x="1069" d="M76 66q0 41 35 59q33 18 45 43.5t12 85.5v1141q0 37 25.5 62.5t62.5 25.5t63.5 -25.5t26.5 -62.5v-445q52 45 120 71t138 26q191 0 272.5 -114t81.5 -329v-196q0 -201 -93.5 -310.5t-286.5 -109.5q-152 0 -269 86q-15 -24 -37 -43q-49 -43 -108 -43q-39 0 -63.5 20 t-24.5 58zM346 223q93 -80 207 -80q117 0 171 63t54 189v232q0 132 -49 198t-162 66q-58 0 -118.5 -27.5t-102.5 -79.5v-561z" />
<glyph unicode="c" horiz-adv-x="872" d="M111 442v142q0 129 44 232t137.5 167t223.5 64q153 0 256 -60q28 -15 37.5 -42t-4.5 -58q-12 -28 -39.5 -38t-56.5 3q-80 41 -179 41q-114 0 -176.5 -79.5t-62.5 -213.5v-166q0 -140 58.5 -216.5t174.5 -76.5q104 0 187 41q31 14 58.5 3.5t39.5 -40.5q12 -31 2 -57.5 t-37 -40.5q-110 -59 -258 -59q-104 0 -183 33.5t-127 95.5t-71.5 143.5t-23.5 181.5z" />
<glyph unicode="d" horiz-adv-x="1069" d="M111 401v187q0 459 366 459q138 0 246 -80v428q0 37 26 62.5t64 25.5q37 0 62.5 -25.5t25.5 -62.5v-1141q0 -60 12 -85.5t45 -43.5q35 -18 35 -59q0 -38 -24.5 -58t-63.5 -20q-59 0 -108 43q-22 17 -39 47q-119 -90 -269 -90q-195 0 -286.5 105t-91.5 308zM291 391 q0 -127 51.5 -187.5t171.5 -60.5q109 0 209 86v568q-46 48 -104 71t-109 23q-219 0 -219 -277v-223z" />
<glyph unicode="e" horiz-adv-x="1011" d="M111 422v190q0 72 14 135t45.5 118.5t77.5 95.5t114 63t152 23q87 0 156 -23t114.5 -62t75.5 -94.5t42.5 -117.5t12.5 -134v-84q0 -31 -19 -50t-48 -19h-559v-55q0 -126 57.5 -196.5t173.5 -70.5q143 0 256 58q30 14 57.5 1.5t38.5 -42.5q11 -29 2 -55.5t-36 -41.5 q-140 -73 -324 -73q-86 0 -155 23t-114.5 62.5t-76 95t-44 118.5t-13.5 135zM289 604h452v35q0 127 -52 193.5t-171 66.5q-117 0 -173 -68t-56 -192v-35z" />
<glyph unicode="f" horiz-adv-x="645" d="M33 956q0 32 22 55t54 23h57v49q0 201 85 305.5t286 104.5h75q33 0 56.5 -23.5t23.5 -56.5q0 -34 -23 -58t-57 -24h-57q-122 0 -165.5 -55.5t-43.5 -192.5v-49h170q32 0 55 -23t23 -55q0 -31 -23 -53t-55 -22h-170v-803q0 -38 -26.5 -64t-63.5 -26t-63.5 26t-26.5 64v803 h-57q-32 0 -54 22t-22 53z" />
<glyph unicode="g" horiz-adv-x="1048" d="M111 473v135q0 439 364 439q137 0 250 -93v2q0 37 26 64t62 27q40 0 65 -26.5t25 -64.5v-880q0 -99 -23 -179t-70.5 -142t-129 -96t-191.5 -34q-166 0 -278 49q-53 24 -53 72q0 35 26 59q20 19 46 19q8 0 16 -2q13 -3 56 -16t83.5 -20t93.5 -7q130 0 188 74.5t58 214.5 v57q-58 -40 -126.5 -61t-127.5 -21q-99 0 -169.5 29.5t-112 87t-60 134.5t-18.5 179zM291 453q0 -129 48 -190.5t163 -61.5q50 0 113 22t110 64v501q-48 52 -108 76.5t-111 24.5q-113 0 -164 -65t-51 -195v-176z" />
<glyph unicode="h" horiz-adv-x="1089" d="M145 78v1317q0 37 25.5 62.5t62.5 25.5q38 0 64.5 -25.5t26.5 -62.5v-447q110 99 286 99q336 0 336 -375v-594q0 -38 -26.5 -64t-63.5 -26t-63.5 26t-26.5 64v577q0 108 -41.5 165t-151.5 57q-171 0 -249 -129v-670q0 -38 -26.5 -64t-64.5 -26q-37 0 -62.5 26t-25.5 64z " />
<glyph unicode="i" horiz-adv-x="468" d="M129 1372q0 43 30.5 74t73.5 31q44 0 75.5 -31t31.5 -74t-31.5 -73.5t-75.5 -30.5q-43 0 -73.5 30.5t-30.5 73.5zM145 78v878q0 37 26 64t62 27q38 0 64.5 -27t26.5 -64v-878q0 -38 -26.5 -64t-64.5 -26q-37 0 -62.5 26t-25.5 64z" />
<glyph unicode="j" horiz-adv-x="468" d="M-102 -299q0 33 20.5 55t56.5 23q89 6 129.5 54.5t40.5 170.5v952q0 37 26 64t62 27q39 0 65 -27.5t26 -63.5v-944q0 -387 -349 -387q-37 0 -57 22t-20 54zM129 1372q0 43 30.5 74t73.5 31q44 0 75.5 -31t31.5 -74t-31.5 -73.5t-75.5 -30.5q-43 0 -73.5 30.5t-30.5 73.5z " />
<glyph unicode="k" horiz-adv-x="956" d="M145 78v1317q0 37 25.5 62.5t62.5 25.5q38 0 64.5 -25.5t26.5 -62.5v-817l440 446q23 23 56.5 23t56.5 -25q24 -24 24 -56.5t-24 -56.5l-281 -280q199 -273 319 -520q9 -20 9 -39q0 -26 -17 -46q-30 -36 -76 -36q-49 0 -75 53q-107 222 -285 467l-147 -146v-284 q0 -38 -26.5 -64t-64.5 -26q-37 0 -62.5 26t-25.5 64z" />
<glyph unicode="l" horiz-adv-x="491" d="M137 221v1174q0 37 26.5 62.5t63.5 25.5t63.5 -25.5t26.5 -62.5v-1141q0 -59 14.5 -84.5t49.5 -44.5q35 -18 35 -59q0 -38 -24.5 -58t-63.5 -20q-58 0 -111 43q-80 67 -80 190z" />
<glyph unicode="m" horiz-adv-x="1701" d="M76 956q0 38 24.5 58t63.5 20q57 0 110 -43q27 -27 43 -59q115 115 310 115q198 0 276 -136q113 136 324 136q93 0 159.5 -27.5t103 -79t53 -116.5t16.5 -150v-596q0 -38 -27 -64t-64 -26t-63.5 26t-26.5 64v577q0 108 -40.5 165t-147.5 57q-85 0 -145 -35.5t-93 -96.5 q4 -46 4 -71v-596q0 -38 -26.5 -64t-63.5 -26t-63.5 26t-26.5 64v577q0 108 -40.5 165t-147.5 57q-163 0 -234 -119v-680q0 -38 -26.5 -64t-63.5 -26t-63.5 26.5t-26.5 63.5v690q0 58 -14.5 84t-48.5 45q-35 18 -35 59z" />
<glyph unicode="n" horiz-adv-x="1118" d="M76 956q0 38 24.5 58t63.5 20q57 0 110 -43q30 -30 45 -67q114 123 320 123q95 0 162 -28t104 -80.5t53.5 -117.5t16.5 -149v-594q0 -38 -26 -64t-64 -26q-37 0 -62.5 26t-25.5 64v577q0 109 -42 165.5t-153 56.5q-86 0 -149.5 -34.5t-98.5 -94.5v-670q0 -38 -26.5 -64 t-63.5 -26t-63.5 26.5t-26.5 63.5v690q0 58 -14.5 84t-48.5 45q-35 18 -35 59z" />
<glyph unicode="o" horiz-adv-x="1046" d="M111 412v211q0 90 24 165t72 134t128.5 92t186.5 33q107 0 188 -33t129.5 -92t72.5 -134t24 -165v-211q0 -90 -24 -165t-72.5 -134t-129.5 -92t-188 -33q-106 0 -186.5 33t-128.5 92t-72 134t-24 165zM291 412q0 -260 231 -260q234 0 234 260v211q0 258 -234 258 q-231 0 -231 -258v-211z" />
<glyph unicode="p" horiz-adv-x="1069" d="M76 969q0 38 24.5 58t63.5 20q59 0 108 -43q24 -21 39 -48q125 91 269 91q378 0 378 -414v-187q0 -458 -368 -458q-139 0 -244 80v-353q0 -38 -26.5 -64t-63.5 -26t-62.5 26t-25.5 64v1065q0 60 -12 85.5t-45 43.5q-35 18 -35 60zM346 238q46 -48 104 -71.5t109 -23.5 q219 0 219 277v223q0 127 -52 187.5t-173 60.5q-107 0 -207 -86v-567z" />
<glyph unicode="q" horiz-adv-x="1069" d="M111 430v197q0 201 94 310.5t287 109.5q151 0 268 -86q15 24 37 43q49 43 108 43q39 0 63.5 -20t24.5 -58q0 -42 -35 -60q-33 -18 -45 -43.5t-12 -85.5v-1065q0 -38 -25.5 -64t-62.5 -26q-38 0 -64 26t-26 64v369q-51 -45 -119.5 -70.5t-138.5 -25.5q-191 0 -272.5 114 t-81.5 328zM291 408q0 -133 49 -199t162 -66q58 0 118.5 27.5t102.5 79.5v561q-93 80 -209 80t-169.5 -63t-53.5 -189v-231z" />
<glyph unicode="r" horiz-adv-x="798" d="M76 956q0 36 24 57t64 21q21 0 29 -2q102 -26 137 -127q100 142 282 142q83 0 138 -25q28 -13 38 -44t-2 -60q-10 -31 -38 -48q-18 -11 -40 -11q-11 0 -24 3q-46 12 -102 12q-189 0 -228 -186v-610q0 -38 -26.5 -64t-63.5 -26t-63.5 26.5t-26.5 63.5v690q0 58 -14.5 84 t-48.5 45q-35 18 -35 59z" />
<glyph unicode="s" horiz-adv-x="892" d="M82 133q12 32 40.5 45.5t59.5 1.5q108 -41 236 -41q110 0 164.5 43t54.5 115q0 27 -8 48t-25.5 36t-35 25.5t-48 19.5t-52.5 14t-60 12.5t-60 12.5q-46 11 -79.5 22t-71 32.5t-60.5 49t-38 72t-15 100.5q0 143 98.5 224.5t251.5 81.5q151 0 264 -43q33 -13 45.5 -42 t1.5 -61q-11 -30 -38.5 -43.5t-59.5 -3.5q-101 39 -205 39q-92 0 -140 -39t-48 -104q0 -17 4 -32t9.5 -26.5t17.5 -22t20.5 -17.5t27.5 -14t30 -11t35 -9.5t35.5 -8t40.5 -8t40 -7.5q52 -11 86.5 -21.5t78 -32.5t69 -50.5t43.5 -76.5t18 -110q0 -154 -108.5 -234.5 t-284.5 -80.5q-168 0 -289 45q-31 10 -43 39.5t-2 60.5z" />
<glyph unicode="t" horiz-adv-x="690" d="M33 956q0 32 23 55t55 23h59v211q0 37 26.5 63.5t63.5 26.5t62.5 -26.5t25.5 -63.5v-211h191q32 0 54.5 -23t22.5 -55q0 -31 -22.5 -53t-54.5 -22h-191v-437q1 -81 9 -130.5t30 -85t60 -50t100 -14.5h41q34 0 58 -24t24 -58t-24 -58t-58 -24h-62q-83 0 -145.5 21 t-102.5 57.5t-64.5 93.5t-34 121.5t-9.5 148.5v439h-59q-32 0 -55 22t-23 53z" />
<glyph unicode="u" horiz-adv-x="1120" d="M145 360v596q0 37 26.5 64t64.5 27q36 0 62 -27t26 -64v-579q0 -109 42 -164t152 -55q178 0 248 137v661q0 37 26.5 64t63.5 27t63.5 -27t26.5 -64v-702q0 -59 14.5 -84.5t49.5 -44.5q34 -18 34 -59q0 -38 -24.5 -58t-63.5 -20q-57 0 -110 43q-30 24 -49 75 q-115 -118 -318 -118q-334 0 -334 372z" />
<glyph unicode="v" horiz-adv-x="948" d="M43 938q-5 16 -5 30q0 28 19 48q28 31 70 31q58 0 78 -60q127 -404 264 -764q140 368 270 764q10 29 32 44.5t48 15.5q43 0 71 -32q18 -20 19 -47q0 -15 -6 -32q-137 -421 -317 -858q-22 -51 -50.5 -70.5t-66.5 -19.5q-42 0 -70.5 19t-48.5 71q-162 407 -307 860z" />
<glyph unicode="w" horiz-adv-x="1449" d="M47 948q-3 11 -3 21q0 27 20 49q28 28 67 29q28 0 49.5 -16.5t30.5 -47.5q97 -383 209 -747q120 391 205 729q21 82 102 82q77 0 98 -82q90 -356 207 -729q115 384 207 747q9 31 30.5 47.5t49.5 16.5q39 -1 67 -29q20 -21 20 -49q0 -10 -3 -21q-111 -441 -252 -880 q-25 -80 -113 -80q-38 0 -67.5 20t-42.5 58q-124 398 -203 690q-86 -317 -203 -690q-13 -38 -42.5 -58t-67.5 -20q-88 0 -113 80q-141 439 -252 880z" />
<glyph unicode="x" horiz-adv-x="917" d="M61 109q13 24 26.5 48.5t30.5 51t29.5 46t33.5 49t31.5 44.5t35 47.5t32.5 43t35.5 46.5t32.5 43q-67 89 -98 131.5t-80 118.5t-82 142q-11 22 -11 41q-1 25 17 47q32 39 80 39q56 0 82 -54q64 -131 205 -317q149 200 209 321q23 50 73 50q45 0 75 -37q17 -21 17 -45 q0 -19 -10 -39q-83 -162 -260 -389q72 -92 108.5 -140t90.5 -128.5t90 -151.5q12 -23 12 -43q0 -24 -17 -46q-31 -40 -81 -40q-53 0 -78 51q-71 135 -235 354q-56 -74 -89.5 -121t-76.5 -113.5t-72 -123.5q-26 -47 -74 -47q-47 0 -76 37q-16 21 -16 44q0 19 10 40z" />
<glyph unicode="y" horiz-adv-x="927" d="M6 -287q0 34 22 59.5t62 26.5q90 3 159 48.5t130 160.5q-231 574 -342 928q-5 16 -5 30q0 28 20 50q28 31 71 31q58 0 78 -62q114 -356 266 -752l254 754q10 30 32 45t50 15q45 0 73 -35q18 -21 18 -48q0 -17 -7 -36l-277 -785q-93 -267 -208 -388t-298 -130h-3 q-43 0 -69 25q-26 26 -26 63z" />
<glyph unicode="z" horiz-adv-x="868" d="M43 88q0 32 16 53l529 731h-430q-32 0 -56 24t-24 58q0 33 23.5 56.5t56.5 23.5h585q34 0 59 -20.5t25 -59.5q0 -36 -24 -69l-522 -723h467q33 0 56 -24t23 -58q0 -33 -23 -56.5t-56 -23.5h-623q-32 0 -57 25t-25 63z" />
<glyph unicode="{" horiz-adv-x="647" d="M61 745q0 30 20 51t52 21h10q41 0 74 35.5t33 114.5q0 57 -40 196t-40 211q0 144 81.5 229t203.5 85h14q39 0 62.5 -25t23.5 -61q0 -33 -23 -57.5t-57 -24.5h-10q-46 0 -78.5 -40t-32.5 -114q0 -64 38 -195t38 -202q0 -162 -127 -219v-9q62 -28 94.5 -85t32.5 -136 q0 -69 -38 -199.5t-38 -195.5q0 -74 32.5 -114t78.5 -40h10q35 0 57.5 -24.5t22.5 -59.5t-23.5 -59.5t-62.5 -24.5h-14q-122 0 -203.5 85t-81.5 229q0 72 40 211t40 196q0 79 -33 114.5t-74 35.5h-10q-32 0 -52 20.5t-20 50.5z" />
<glyph unicode="|" horiz-adv-x="483" d="M150 -106v1703q0 38 27 65.5t65 27.5t65 -27.5t27 -65.5v-1703q0 -38 -27 -65.5t-65 -27.5t-65 27.5t-27 65.5z" />
<glyph unicode="}" horiz-adv-x="647" d="M92 -113q0 35 22.5 59.5t57.5 24.5h10q48 0 80.5 40t32.5 114q0 65 -39 195.5t-39 199.5q0 79 32.5 136t94.5 85v9q-127 57 -127 219q0 71 39 202t39 195q0 74 -32.5 114t-80.5 40h-10q-34 0 -57 24.5t-23 57.5q0 36 24 61t62 25h15q123 0 203.5 -85t80.5 -229 q0 -72 -40 -211t-40 -196q0 -79 33 -114.5t74 -35.5h10q32 0 52 -21t20 -51t-20 -50.5t-52 -20.5h-10q-41 0 -74 -35.5t-33 -114.5q0 -57 40 -196t40 -211q0 -144 -80.5 -229t-203.5 -85h-15q-37 0 -61.5 24.5t-24.5 59.5z" />
<glyph unicode="~" horiz-adv-x="1114" d="M125 559q0 70 78.5 115t179.5 45q63 0 122.5 -23.5t112 -47t99.5 -23.5q35 0 62.5 10t42 21.5t34 21.5t41.5 10q38 0 65 -27.5t27 -64.5q0 -70 -78.5 -114t-179.5 -44q-64 0 -123.5 23t-111.5 46t-99 23q-44 0 -75 -16t-55 -31.5t-50 -15.5q-38 0 -65 27t-27 65z" />
<glyph unicode="&#xa1;" horiz-adv-x="550" d="M156 926q0 51 34.5 86t85.5 35q50 0 84.5 -35t34.5 -86q0 -50 -34.5 -84.5t-84.5 -34.5q-51 0 -85.5 34.5t-34.5 84.5zM178 -379l21 899q3 90 77 90q73 0 76 -90l21 -899q2 -45 -24 -75.5t-73 -30.5q-49 0 -74.5 30.5t-23.5 75.5z" />
<glyph unicode="&#xa2;" horiz-adv-x="872" d="M111 442v142q0 180 87 306t248 150v105q0 32 22.5 54t53.5 22q32 0 54 -22t22 -54v-107q102 -10 174 -51q62 -39 33 -102q-12 -28 -39.5 -37.5t-56.5 4.5q-83 39 -179 39q-114 0 -176.5 -79.5t-62.5 -213.5v-164q0 -140 58.5 -216.5t174.5 -76.5q104 0 187 41 q31 14 58.5 3.5t39.5 -40.5q11 -31 1.5 -57t-36.5 -41q-79 -43 -176 -53v-107q0 -31 -22 -53t-54 -22q-31 0 -53.5 22t-22.5 53v105q-169 21 -252 140.5t-83 309.5z" />
<glyph unicode="&#xa3;" horiz-adv-x="1208" d="M113 88q0 21 8.5 37t29.5 29t35 19.5t47 19.5q59 43 93 100t34 162q0 67 -36 155h-97q-32 0 -54.5 23t-22.5 55t22.5 55t54.5 23h52q-66 166 -66 289q0 67 17.5 131t56 122t93.5 101.5t137 69.5t181 26q165 0 295 -47q70 -24 70 -84q0 -38 -23.5 -63t-60.5 -25 q-10 0 -19.5 2.5t-30 9t-42.5 11.5q-88 20 -176 20q-83 0 -146.5 -25t-98.5 -66t-52 -87.5t-17 -97.5q0 -47 11.5 -101.5t23 -88t35.5 -97.5h324q32 0 54.5 -23t22.5 -55t-22.5 -55t-54.5 -23h-281q35 -82 35 -155q0 -164 -117 -281h586q37 0 62.5 -25.5t25.5 -60.5 q0 -37 -25.5 -62.5t-62.5 -25.5h-813q-37 0 -62.5 25t-25.5 63z" />
<glyph unicode="&#xa4;" horiz-adv-x="1212" d="M92 584q0 28 20 47.5t48 19.5h57v185h-57q-28 0 -48 19.5t-20 47.5q0 29 20 49.5t48 20.5h61q10 121 45.5 217t98 169t160.5 112.5t225 39.5q100 0 190 -30.5t150 -94.5q34 -27 34 -67q0 -32 -23 -57.5t-63 -26.5q-10 0 -20.5 4t-15.5 7t-20 15.5t-21 16.5 q-83 65 -211 65q-307 0 -342 -370h370q29 0 48.5 -20.5t19.5 -49.5q0 -28 -19.5 -47.5t-48.5 -19.5h-377v-185h377q29 0 48.5 -19.5t19.5 -47.5q0 -29 -19.5 -49.5t-48.5 -20.5h-370q15 -187 94 -275.5t235 -88.5q134 0 230 71q3 2 10.5 8t10 7.5t8.5 6t8.5 6t8 4.5t8.5 4 t8 2.5t9 2t9 0.5q34 1 56.5 -23t22.5 -57q0 -35 -34 -69q-66 -66 -163.5 -98.5t-191.5 -32.5q-471 0 -516 532h-61q-28 0 -48 20.5t-20 49.5z" />
<glyph unicode="&#xa5;" horiz-adv-x="1030" d="M0 1421q0 38 28.5 64t65.5 26q57 0 80 -55q139 -316 342 -702q200 375 342 702q23 55 78 55q37 0 65.5 -25.5t28.5 -62.5q0 -17 -10 -37q-101 -236 -254 -538h137q32 0 55 -22t23 -54t-23 -55t-55 -23h-217q-15 -27 -43 -79t-37 -68v-45h297q32 0 55 -23t23 -55 q0 -31 -23 -53.5t-55 -22.5h-297v-274q0 -38 -27 -65t-65 -27t-65 27t-27 65v274h-299q-31 0 -53.5 22.5t-22.5 53.5q0 32 22.5 55t53.5 23h299v45q-16 26 -42 76t-38 71h-219q-31 0 -53.5 23t-22.5 55t22.5 54t53.5 22h139q-144 287 -254 534q-8 19 -8 39z" />
<glyph unicode="&#xa6;" horiz-adv-x="483" d="M150 -104v626q0 38 27 65t65 27t65 -27t27 -65v-626q0 -38 -27 -65.5t-65 -27.5t-65 27.5t-27 65.5zM150 969v628q0 37 27 64t65 27t65 -27t27 -64v-628q0 -38 -27 -65t-65 -27t-65 27t-27 65z" />
<glyph unicode="&#xa7;" horiz-adv-x="1112" d="M102 594q0 181 134 287q-78 81 -78 211q0 80 24 145.5t65.5 110t97.5 75t118 44.5t129 14q145 0 260 -41q80 -28 80 -84q0 -34 -21.5 -59t-56.5 -25q-12 0 -24 3.5t-32.5 11.5t-37.5 13q-91 27 -160 27q-122 0 -197 -55.5t-75 -165.5q0 -68 39.5 -107t121.5 -69 q25 -10 173 -55.5t202 -75.5q154 -90 154 -273q0 -180 -135 -286q80 -80 80 -211q0 -80 -24.5 -145.5t-65.5 -110.5t-97 -76t-118.5 -45t-129.5 -14q-138 0 -262 43q-78 28 -78 83q0 34 21.5 59t56.5 25q12 0 23.5 -3.5t32 -12t38.5 -14.5q94 -25 160 -25q122 0 197.5 55 t75.5 164q0 69 -40 108.5t-122 69.5q-23 9 -172.5 55.5t-202.5 76.5q-154 90 -154 272zM270 606q0 -21 4.5 -39.5t10 -32.5t18.5 -28t22 -23t29.5 -19.5t31.5 -16.5t37 -15t38 -13t42 -13t42 -13q9 -3 48 -14.5t56.5 -17t47 -16.5t51.5 -23q100 67 100 192q0 46 -18.5 80 t-55.5 56t-75 36.5t-95 31.5q-21 6 -31 9q-11 3 -47.5 14.5t-54.5 17.5t-47 17t-51 23q-103 -69 -103 -193z" />
<glyph unicode="&#xa8;" horiz-adv-x="1085" d="M195 1415q0 51 35.5 87t86.5 36q52 0 88.5 -36t36.5 -87q0 -53 -36 -89t-89 -36q-51 0 -86.5 36.5t-35.5 88.5zM643 1415q0 51 36.5 87t88.5 36q51 0 87 -36t36 -87q0 -52 -36 -88.5t-87 -36.5q-52 0 -88.5 36t-36.5 89z" />
<glyph unicode="&#xa9;" horiz-adv-x="1802" d="M137 745q0 155 60.5 297t163 244.5t244 163.5t296.5 61t296.5 -61t244 -163.5t163 -244.5t60.5 -297t-60.5 -296.5t-163 -243.5t-244 -162.5t-296.5 -60.5t-296.5 60.5t-244 162.5t-163 243.5t-60.5 296.5zM270 745q0 -171 84.5 -316.5t230 -230.5t316.5 -85t316.5 85 t230 230.5t84.5 316.5q0 128 -50 245t-134.5 202t-201.5 135.5t-245 50.5t-245 -50.5t-201.5 -135.5t-134.5 -202t-50 -245zM571 692v109q0 101 36.5 183t112 133.5t179.5 51.5q120 0 199 -36q39 -19 39 -58q0 -27 -17.5 -47t-44.5 -20q-13 0 -28 6q-63 28 -142 28 q-91 0 -144.5 -64.5t-53.5 -176.5v-109q0 -241 196 -241q82 0 148 28q10 6 26 6q27 0 44.5 -19.5t17.5 -45.5q0 -42 -39 -58q-88 -40 -201 -40q-162 0 -245 102.5t-83 267.5z" />
<glyph unicode="&#xaa;" horiz-adv-x="876" d="M76 848v14q0 110 78 177t233 67h186v39q0 105 -34.5 151.5t-132.5 46.5q-99 0 -170 -43q-29 -14 -52.5 -7.5t-38.5 26.5q-15 19 -10 46.5t31 45.5q98 59 248 59q174 0 243.5 -83t69.5 -257v-311q0 -48 10 -67.5t35 -34.5q29 -16 29 -51q0 -33 -20.5 -49.5t-55.5 -16.5 q-53 0 -88 35q-23 17 -33 47q-76 -82 -233 -82q-148 0 -221.5 68.5t-73.5 179.5zM227 846q0 -127 168 -127q86 0 132 43.5t46 128.5v96h-172q-174 0 -174 -127v-14z" />
<glyph unicode="&#xab;" horiz-adv-x="1265" d="M68 557q0 33 24 57l385 398q24 26 58.5 27t60.5 -23q25 -25 25 -59.5t-23 -59.5l-330 -340l330 -340q23 -25 23 -59.5t-25 -59.5q-26 -23 -60 -23t-59 25l-385 400q-24 21 -24 57zM614 557q0 28 25 57l385 398q24 26 59.5 27t59.5 -23q25 -25 26 -59.5t-24 -59.5 l-330 -340l330 -340q25 -25 24 -59.5t-26 -59.5q-25 -23 -59.5 -23t-59.5 25l-385 400q-25 25 -25 57z" />
<glyph unicode="&#xad;" horiz-adv-x="1003" d="M143 600q0 35 24.5 59.5t59.5 24.5h551q34 0 58 -24.5t24 -59.5q0 -34 -24 -59t-58 -25h-551q-35 0 -59.5 25t-24.5 59z" />
<glyph unicode="&#xae;" horiz-adv-x="1802" d="M137 745q0 155 60.5 297t163 244.5t244 163.5t296.5 61t296.5 -61t244 -163.5t163 -244.5t60.5 -297t-60.5 -296.5t-163 -243.5t-244 -162.5t-296.5 -60.5t-296.5 60.5t-244 162.5t-163 243.5t-60.5 296.5zM270 745q0 -171 84.5 -316.5t230 -230.5t316.5 -85t316.5 85 t230 230.5t84.5 316.5q0 128 -50 245t-134.5 202t-201.5 135.5t-245 50.5t-245 -50.5t-201.5 -135.5t-134.5 -202t-50 -245zM629 397v699q0 28 19.5 46.5t47.5 18.5h224q137 0 200.5 -62.5t63.5 -154.5v-57q0 -69 -40 -123.5t-116 -75.5l139 -262q9 -18 9 -29 q0 -30 -20.5 -48.5t-49.5 -18.5q-42 0 -59 41l-156 299h-127v-273q0 -28 -20 -47.5t-48 -19.5t-47.5 19.5t-19.5 47.5zM764 786h145q75 0 108.5 33t33.5 76v41q0 44 -31 76t-105 32h-151v-258z" />
<glyph unicode="&#xaf;" horiz-adv-x="1085" d="M262 1389q0 32 23 54.5t55 22.5h405q32 0 55 -22.5t23 -54.5t-23 -55t-55 -23h-405q-32 0 -55 23t-23 55z" />
<glyph unicode="&#xb0;" horiz-adv-x="831" d="M72 1169q0 141 101 241.5t243 100.5t243 -100.5t101 -241.5q0 -142 -100.5 -242t-243.5 -100t-243.5 100t-100.5 242zM217 1169q0 -83 58.5 -140.5t140.5 -57.5t139 57.5t57 140.5q0 82 -57 139.5t-139 57.5t-140.5 -57.5t-58.5 -139.5z" />
<glyph unicode="&#xb2;" horiz-adv-x="921" d="M197 668q0 56 17.5 105.5t52 90t58.5 62.5t64 53q17 14 50.5 39.5t52.5 40t44 38.5t38.5 43.5t23.5 46t10 54.5q0 66 -36.5 109t-108.5 43q-61 0 -117 -29q-15 -7 -39.5 -25t-40.5 -18q-23 0 -40 16t-17 39q0 26 20 43q93 80 236 80q87 0 147.5 -38.5t86.5 -95t26 -124.5 q0 -50 -15 -93t-47 -79.5t-59.5 -61t-73.5 -57.5q-54 -39 -73.5 -54.5t-55 -47.5t-53 -60.5t-26.5 -62.5h348q23 0 39 -17t16 -40t-16 -39.5t-39 -16.5h-418q-25 0 -40 15.5t-15 40.5z" />
<glyph unicode="&#xb3;" horiz-adv-x="921" d="M197 727q0 22 14.5 36.5t36.5 14.5q7 0 14 -3t13 -7.5l18 -13.5t24 -17q47 -32 123 -32q82 0 126 44.5t44 114.5q0 142 -182 146q-57 0 -57 51t59 51q69 4 119.5 36t50.5 101q0 62 -34.5 104t-112.5 42q-57 0 -117 -31q-12 -7 -26 -19t-24 -18t-22 -6q-20 0 -34.5 14.5 t-14.5 36.5q0 25 25 47q80 80 217 80q67 0 118 -22t78.5 -58t40.5 -75.5t13 -81.5q0 -139 -125 -195q143 -52 143 -213q0 -105 -73.5 -178.5t-207.5 -73.5q-147 0 -229 82q-18 18 -18 43z" />
<glyph unicode="&#xb4;" horiz-adv-x="1085" d="M390.5 1265.5q-9.5 25.5 4.5 53.5l154 283q15 29 43.5 39.5t64.5 -5.5q31 -18 38.5 -49t-7.5 -55l-168 -275q-17 -28 -42.5 -36t-51.5 6q-26 13 -35.5 38.5z" />
<glyph unicode="&#xb5;" horiz-adv-x="1120" d="M145 -315v1271q0 37 26.5 64t64.5 27q36 0 62 -27t26 -64v-579q0 -109 42 -164t152 -55q178 0 248 137v661q0 37 26.5 64t63.5 27t63.5 -27t26.5 -64v-702q0 -59 14.5 -84.5t49.5 -44.5q34 -18 34 -59q0 -38 -24.5 -58t-63.5 -20q-57 0 -110 43q-30 24 -49 75 q-115 -118 -318 -118q-85 0 -155 26v-329q0 -37 -26 -64t-62 -27q-38 0 -64.5 27t-26.5 64z" />
<glyph unicode="&#xb6;" horiz-adv-x="1333" d="M123 1112q0 161 115.5 275t279.5 114h664q34 0 57 -24t23 -58q0 -33 -23.5 -56.5t-56.5 -23.5h-86v-1577q0 -38 -27 -65t-65 -27q-37 0 -64 27t-27 65v1577h-229v-1577q0 -38 -27 -65t-65 -27q-37 0 -63.5 27t-26.5 65v961q-159 6 -269 118.5t-110 270.5z" />
<glyph unicode="&#xb7;" horiz-adv-x="497" d="M123 604q0 50 35 84.5t86 34.5q49 0 83.5 -34.5t34.5 -84.5q0 -51 -34 -86t-84 -35q-51 0 -86 35t-35 86z" />
<glyph unicode="&#xb8;" horiz-adv-x="1085" d="M354 -358q0 22 24 30.5t75 8.5q71 0 106 22.5t35 60.5q0 37 -29 55t-90 23q-43 3 -57.5 15.5t-11.5 44.5l6 104h96v-84q116 0 169.5 -44.5t53.5 -119.5q0 -78 -63.5 -124t-175.5 -46q-138 0 -138 54z" />
<glyph unicode="&#xb9;" horiz-adv-x="921" d="M177.5 1262q4.5 22 23.5 34l280 191q15 12 35 12q24 0 40.5 -16.5t16.5 -40.5v-719h113q23 0 39 -16t16 -39t-16 -39.5t-39 -16.5h-422q-23 0 -40 16.5t-17 39.5t17 39t40 16h195v616l-197 -135q-19 -12 -41.5 -7.5t-34.5 24.5q-13 19 -8.5 41z" />
<glyph unicode="&#xba;" horiz-adv-x="901" d="M111 948v172q0 155 84.5 252.5t255.5 97.5t255.5 -97.5t84.5 -252.5v-172q0 -73 -20 -134.5t-59.5 -110t-106.5 -76t-154 -27.5t-154 27.5t-106.5 76t-59.5 110t-20 134.5zM264 948q0 -209 187 -209q186 0 186 209v172q0 209 -186 209q-187 0 -187 -209v-172z" />
<glyph unicode="&#xbb;" horiz-adv-x="1265" d="M97 157.5q-1 34.5 24 59.5l330 340l-330 340q-25 25 -24 59.5t26 59.5q24 24 59.5 23t59.5 -27l385 -398q24 -27 24 -57q0 -33 -24 -57l-385 -400q-25 -25 -59.5 -25t-59.5 23q-25 25 -26 59.5zM645 157.5q0 34.5 23 59.5l329 340l-329 340q-23 25 -23 59.5t25 59.5 q26 24 60 23t58 -27l386 -398q24 -24 24 -57t-24 -57l-386 -400q-25 -25 -58.5 -25t-59.5 23q-25 25 -25 59.5z" />
<glyph unicode="&#xbc;" horiz-adv-x="921" d="M82 524q0 22 14.5 36.5t36.5 14.5h655q22 0 37 -14.5t15 -36.5t-15 -36.5t-37 -14.5h-655q-22 0 -36.5 14.5t-14.5 36.5zM178 -227q0 8 6 26l242 557q9 20 29.5 28t42.5 -1q20 -7 27.5 -28.5t-1.5 -41.5l-213 -489h181v145q0 22 15 38t38 16q21 0 36 -16t15 -38v-145h51 q22 0 36.5 -14.5t14.5 -36.5t-14.5 -37t-36.5 -15h-51v-110q0 -22 -14.5 -37.5t-36.5 -15.5q-23 0 -38 15.5t-15 37.5v110h-263q-22 0 -36.5 15t-14.5 37zM193 1279.5q4 21.5 22 33.5l258 176q17 10 33 10q23 0 38 -15.5t15 -37.5v-664h105q21 0 36 -15t15 -36 q0 -22 -14.5 -37.5t-36.5 -15.5h-392q-22 0 -36.5 15.5t-14.5 37.5q0 21 15 36t36 15h181v568l-181 -123q-19 -12 -39 -8.5t-32 22.5q-12 17 -8 38.5z" />
<glyph unicode="&#xbd;" horiz-adv-x="921" d="M82 524q0 22 14.5 36.5t36.5 14.5h655q22 0 37 -14.5t15 -36.5t-15 -36.5t-37 -14.5h-655q-22 0 -36.5 14.5t-14.5 36.5zM193 1279.5q4 21.5 22 33.5l258 176q17 10 33 10q23 0 38 -15.5t15 -37.5v-664h105q21 0 36 -15t15 -36q0 -22 -14.5 -37.5t-36.5 -15.5h-392 q-22 0 -36.5 15.5t-14.5 37.5q0 21 15 36t36 15h181v568l-181 -123q-19 -12 -39 -8.5t-32 22.5q-12 17 -8 38.5zM219 -379q0 51 16.5 96.5t48 83t54.5 58t59 49.5q16 12 47.5 36t48.5 37t41 36t36 41t21 43t9 51q0 60 -34 98.5t-101 38.5q-55 0 -107 -25q-14 -7 -36.5 -24 t-36.5 -17q-22 0 -38 15t-16 38t19 39q87 74 217 74q119 0 180.5 -70t61.5 -167q0 -47 -14.5 -87t-43.5 -74t-55 -57t-68 -53q-49 -36 -67.5 -50.5t-51 -44t-49 -56t-24.5 -58.5h321q22 0 37 -14.5t15 -36.5t-15 -37.5t-37 -15.5h-387q-23 0 -37 15t-14 38z" />
<glyph unicode="&#xbe;" horiz-adv-x="921" d="M82 524q0 22 14.5 36.5t36.5 14.5h655q22 0 37 -14.5t15 -36.5t-15 -36.5t-37 -14.5h-655q-22 0 -36.5 14.5t-14.5 36.5zM182 -227q0 17 6 26l242 557q9 20 29.5 28t40.5 -1q20 -7 28.5 -28.5t-0.5 -41.5l-213 -489h181v145q0 22 15 38t36 16q22 0 37.5 -16t15.5 -38 v-145h51q22 0 35.5 -14.5t13.5 -36.5t-14 -37t-35 -15h-51v-110q0 -22 -15.5 -37.5t-37.5 -15.5t-36.5 15.5t-14.5 37.5v110h-265q-20 0 -34.5 15t-14.5 37zM229 784q0 21 13.5 35.5t33.5 14.5q9 0 16.5 -4t22 -15.5t27.5 -19.5q44 -31 113 -31q75 0 115 41t40 106 q0 132 -166 136q-55 0 -55 47q0 44 55 49q63 2 110.5 31.5t47.5 93.5q0 56 -32 94.5t-103 38.5q-62 0 -109 -29q-11 -7 -23.5 -17t-21.5 -15t-20 -5q-20 0 -32.5 12.5t-12.5 34.5q0 24 22 43q30 32 82 53t117 21q62 0 109.5 -20.5t73 -54t38 -70t12.5 -74.5 q0 -130 -116 -180q133 -48 133 -199q0 -97 -68 -164t-192 -67q-138 0 -213 75q-17 17 -17 39z" />
<glyph unicode="&#xbf;" horiz-adv-x="935" d="M115 -96q0 67 15.5 120.5t49.5 99.5t67.5 78.5t90.5 78.5q100 81 129 134t29 122q0 35 23.5 58t60.5 23q38 0 62 -24t24 -64q0 -100 -34.5 -171.5t-142.5 -159.5l-69 -57.5t-50.5 -47.5t-41 -52t-20.5 -53.5t-9 -68.5q0 -61 21 -108.5t56.5 -75t77 -41.5t87.5 -14 q79 0 135 23.5t106 68.5q16 16 47 16q38 0 62 -24t24 -56q0 -50 -75 -104q-128 -88 -316 -88q-72 0 -142 22.5t-131 67.5t-98.5 122t-37.5 175zM457 926q0 51 35 86t86 35q50 0 85 -35t35 -86q0 -49 -35 -84t-85 -35q-51 0 -86 34.5t-35 84.5z" />
<glyph unicode="&#xc0;" horiz-adv-x="1161" d="M31 94q161 646 432 1317q24 58 52.5 79t64.5 21t65 -21t53 -79q266 -651 432 -1317q13 -49 -16.5 -80.5t-73.5 -31.5q-31 0 -55 18t-33 53q-34 137 -82 295h-585q-56 -200 -80 -295q-9 -35 -32.5 -53t-53.5 -18q-42 0 -70.5 31.5t-17.5 80.5zM332 516h491 q-107 350 -245 698q-141 -364 -246 -698zM446.5 1997q7.5 31 38.5 49q36 16 65 5.5t44 -39.5l153 -283q14 -28 4.5 -53.5t-35.5 -38.5q-26 -14 -51.5 -6t-42.5 36l-168 275q-15 24 -7.5 55z" />
<glyph unicode="&#xc1;" horiz-adv-x="1161" d="M31 94q161 646 432 1317q24 58 52.5 79t64.5 21t65 -21t53 -79q266 -651 432 -1317q13 -49 -16.5 -80.5t-73.5 -31.5q-31 0 -55 18t-33 53q-34 137 -82 295h-585q-56 -200 -80 -295q-9 -35 -32.5 -53t-53.5 -18q-42 0 -70.5 31.5t-17.5 80.5zM332 516h491 q-107 350 -245 698q-141 -364 -246 -698zM417.5 1675.5q-9.5 25.5 4.5 53.5l154 283q15 29 43.5 39.5t64.5 -5.5q31 -18 38.5 -49t-7.5 -55l-168 -275q-17 -28 -42.5 -36t-51.5 6q-26 13 -35.5 38.5z" />
<glyph unicode="&#xc2;" horiz-adv-x="1161" d="M31 94q161 646 432 1317q24 58 52.5 79t64.5 21t65 -21t53 -79q266 -651 432 -1317q13 -49 -16.5 -80.5t-73.5 -31.5q-31 0 -55 18t-33 53q-34 137 -82 295h-585q-56 -200 -80 -295q-9 -35 -32.5 -53t-53.5 -18q-42 0 -70.5 31.5t-17.5 80.5zM247 1731q2 28 26 51 l249 240q19 22 56 22q33 0 55 -22l250 -242q24 -23 25.5 -51t-17.5 -51q-21 -22 -48 -24.5t-52 18.5l-213 192l-213 -192q-26 -21 -53 -18t-48 26q-19 23 -17 51zM332 516h491q-107 350 -245 698q-141 -364 -246 -698z" />
<glyph unicode="&#xc3;" horiz-adv-x="1161" d="M31 94q161 646 432 1317q24 58 52.5 79t64.5 21t65 -21t53 -79q266 -651 432 -1317q13 -49 -16.5 -80.5t-73.5 -31.5q-31 0 -55 18t-33 53q-34 137 -82 295h-585q-56 -200 -80 -295q-9 -35 -32.5 -53t-53.5 -18q-42 0 -70.5 31.5t-17.5 80.5zM248 1805q-1 62 57.5 102.5 t136.5 42.5q51 1 99 -20t90 -42t80 -20q28 0 49 9.5t31.5 21t25.5 21t33 10.5q29 0 49.5 -23.5t20.5 -56.5q1 -62 -58.5 -103t-136.5 -43q-51 -1 -99 20t-89.5 42t-79.5 20q-28 -1 -49.5 -10.5t-32 -20.5t-26 -20.5t-32.5 -9.5q-29 -1 -49 22.5t-20 57.5zM332 516h491 q-107 350 -245 698q-141 -364 -246 -698z" />
<glyph unicode="&#xc4;" horiz-adv-x="1161" d="M31 94q161 646 432 1317q24 58 52.5 79t64.5 21t65 -21t53 -79q266 -651 432 -1317q13 -49 -16.5 -80.5t-73.5 -31.5q-31 0 -55 18t-33 53q-34 137 -82 295h-585q-56 -200 -80 -295q-9 -35 -32.5 -53t-53.5 -18q-42 0 -70.5 31.5t-17.5 80.5zM226 1825q0 51 35.5 87 t86.5 36q52 0 88.5 -36t36.5 -87q0 -53 -36.5 -89t-88.5 -36q-51 0 -86.5 36.5t-35.5 88.5zM332 516h491q-107 350 -245 698q-141 -364 -246 -698zM674 1825q0 51 36.5 87t88.5 36q51 0 87 -36t36 -87q0 -52 -36 -88.5t-87 -36.5q-53 0 -89 36t-36 89z" />
<glyph unicode="&#xc5;" horiz-adv-x="1161" d="M31 94q161 646 432 1317q24 58 52.5 79t64.5 21t65 -21t53 -79q266 -651 432 -1317q13 -49 -16.5 -80.5t-73.5 -31.5q-31 0 -55 18t-33 53q-34 137 -82 295h-585q-56 -200 -80 -295q-9 -35 -32.5 -53t-53.5 -18q-42 0 -70.5 31.5t-17.5 80.5zM332 516h491 q-107 350 -245 698q-141 -364 -246 -698zM340 1825q0 100 70 170t170 70t169.5 -70t69.5 -170t-69.5 -169.5t-169.5 -69.5t-170 69.5t-70 169.5zM440 1825q0 -58 41.5 -98.5t98.5 -40.5t98 40.5t41 98.5q0 57 -41 98t-98 41t-98.5 -41t-41.5 -98z" />
<glyph unicode="&#xc6;" horiz-adv-x="1804" d="M29 82q0 26 10 43q298 600 692 1266q33 56 70.5 79t101.5 23h707q35 0 60.5 -26.5t25.5 -61.5q0 -37 -25.5 -62.5t-60.5 -25.5h-543v-486h489q35 0 60.5 -25.5t25.5 -60.5t-25.5 -60.5t-60.5 -25.5h-489v-483h571q37 0 62.5 -25.5t25.5 -62.5t-25.5 -62.5t-62.5 -25.5 h-667q-36 0 -62 26t-26 62v258h-525q-73 -138 -153 -301q-26 -53 -82 -53q-39 0 -66.5 26t-27.5 64zM444 514h439v774q-245 -411 -439 -774z" />
<glyph unicode="&#xc7;" horiz-adv-x="1122" d="M137 625v243q0 143 29.5 257t91 202t165.5 136t245 48q99 0 189.5 -31t152.5 -94q34 -37 34 -67q0 -32 -23 -57.5t-63 -26.5q-10 0 -20.5 4t-15.5 7t-20 15.5t-21 16.5q-83 65 -213 65q-177 0 -261.5 -120t-84.5 -359v-237q0 -249 80 -363t255 -114q131 0 230 71 q3 2 10.5 8t10 7.5t8.5 6t8.5 6t8 4.5t8.5 4t8 2.5t9 2t9 0.5q34 1 55.5 -22.5t21.5 -57.5q0 -37 -32 -69q-62 -62 -149.5 -94t-178.5 -37v-66q115 0 170 -45.5t55 -120.5q0 -77 -64 -123.5t-177 -46.5q-138 0 -138 53q0 41 99 41q70 0 105.5 22.5t35.5 59.5q0 39 -29.5 57 t-89.5 21q-42 5 -57 17.5t-12 44.5l6 90q-451 40 -451 639z" />
<glyph unicode="&#xc8;" horiz-adv-x="1136" d="M170 88v1317q0 36 26 62t62 26h682q36 0 62 -26t26 -62q0 -37 -25.5 -62.5t-62.5 -25.5h-586v-486h535q35 0 59.5 -25.5t24.5 -60.5t-24.5 -60.5t-59.5 -25.5h-535v-483h617q37 0 62.5 -25.5t25.5 -62.5q0 -36 -26 -62t-62 -26h-713q-37 0 -62.5 25.5t-25.5 62.5z M459.5 1997q7.5 31 38.5 49q36 16 65 5.5t44 -39.5l153 -283q14 -28 4.5 -53.5t-35.5 -38.5q-26 -14 -51.5 -6t-42.5 36l-168 275q-15 24 -7.5 55z" />
<glyph unicode="&#xc9;" horiz-adv-x="1136" d="M170 88v1317q0 36 26 62t62 26h682q36 0 62 -26t26 -62q0 -37 -25.5 -62.5t-62.5 -25.5h-586v-486h535q35 0 59.5 -25.5t24.5 -60.5t-24.5 -60.5t-59.5 -25.5h-535v-483h617q37 0 62.5 -25.5t25.5 -62.5q0 -36 -26 -62t-62 -26h-713q-37 0 -62.5 25.5t-25.5 62.5z M464.5 1675.5q-9.5 25.5 4.5 53.5l154 283q15 29 43.5 39.5t64.5 -5.5q31 -18 38.5 -49t-7.5 -55l-168 -275q-17 -28 -42.5 -36t-51.5 6q-26 13 -35.5 38.5z" />
<glyph unicode="&#xca;" horiz-adv-x="1136" d="M170 88v1317q0 36 26 62t62 26h682q36 0 62 -26t26 -62q0 -37 -25.5 -62.5t-62.5 -25.5h-586v-486h535q35 0 59.5 -25.5t24.5 -60.5t-24.5 -60.5t-59.5 -25.5h-535v-483h617q37 0 62.5 -25.5t25.5 -62.5q0 -36 -26 -62t-62 -26h-713q-37 0 -62.5 25.5t-25.5 62.5z M271 1731q2 28 26 51l249 240q19 22 56 22q33 0 55 -22l250 -242q24 -23 25.5 -51t-17.5 -51q-21 -22 -48 -24.5t-52 18.5l-213 192l-213 -192q-26 -21 -53 -18t-48 26q-19 23 -17 51z" />
<glyph unicode="&#xcb;" horiz-adv-x="1136" d="M170 88v1317q0 36 26 62t62 26h682q36 0 62 -26t26 -62q0 -37 -25.5 -62.5t-62.5 -25.5h-586v-486h535q35 0 59.5 -25.5t24.5 -60.5t-24.5 -60.5t-59.5 -25.5h-535v-483h617q37 0 62.5 -25.5t25.5 -62.5q0 -36 -26 -62t-62 -26h-713q-37 0 -62.5 25.5t-25.5 62.5z M248 1825q0 51 35.5 87t86.5 36q52 0 88.5 -36t36.5 -87q0 -53 -36.5 -89t-88.5 -36q-51 0 -86.5 36.5t-35.5 88.5zM696 1825q0 51 36.5 87t88.5 36q51 0 87 -36t36 -87q0 -52 -36 -88.5t-87 -36.5q-53 0 -89 36t-36 89z" />
<glyph unicode="&#xcc;" horiz-adv-x="522" d="M123.5 1997q7.5 31 38.5 49q36 16 65 5.5t44 -39.5l153 -283q14 -28 4.5 -53.5t-35.5 -38.5q-26 -14 -51.5 -6t-42.5 36l-168 275q-15 24 -7.5 55zM170 74v1345q0 37 27 64.5t65 27.5t65 -27.5t27 -64.5v-1345q0 -38 -27 -65t-65 -27t-65 27t-27 65z" />
<glyph unicode="&#xcd;" horiz-adv-x="522" d="M97.5 1675.5q-9.5 25.5 4.5 53.5l154 283q15 29 43.5 39.5t64.5 -5.5q31 -18 38.5 -49t-7.5 -55l-168 -275q-17 -28 -42.5 -36t-51.5 6q-26 13 -35.5 38.5zM170 74v1345q0 37 27 64.5t65 27.5t65 -27.5t27 -64.5v-1345q0 -38 -27 -65t-65 -27t-65 27t-27 65z" />
<glyph unicode="&#xce;" horiz-adv-x="522" d="M-67 1731q2 28 26 51l249 240q19 22 56 22q33 0 55 -22l250 -242q24 -23 25.5 -51t-17.5 -51q-21 -22 -48 -24.5t-52 18.5l-213 192l-213 -192q-26 -21 -53 -18t-48 26q-19 23 -17 51zM170 74v1345q0 37 27 64.5t65 27.5t65 -27.5t27 -64.5v-1345q0 -38 -27 -65t-65 -27 t-65 27t-27 65z" />
<glyph unicode="&#xcf;" horiz-adv-x="522" d="M-86 1825q0 51 35.5 87t86.5 36q52 0 88.5 -36t36.5 -87q0 -53 -36.5 -89t-88.5 -36q-51 0 -86.5 36.5t-35.5 88.5zM170 74v1345q0 37 27 64.5t65 27.5t65 -27.5t27 -64.5v-1345q0 -38 -27 -65t-65 -27t-65 27t-27 65zM362 1825q0 51 36.5 87t88.5 36q51 0 87 -36t36 -87 q0 -52 -36 -88.5t-87 -36.5q-53 0 -89 36t-36 89z" />
<glyph unicode="&#xd0;" horiz-adv-x="1359" d="M29 733q0 35 24.5 60.5t59.5 25.5h92v582q0 38 27 65t65 27h399q95 0 173 -19.5t131.5 -51.5t94.5 -78t64.5 -94t38.5 -105.5t20 -106.5t5 -102v-383q0 -52 -5 -100.5t-20 -105.5t-38.5 -105t-64.5 -94t-94.5 -77.5t-131.5 -51t-173 -19.5h-399q-38 0 -65 27t-27 65v555 h-92q-35 0 -59.5 25.5t-24.5 60.5zM389 172h297q86 0 150.5 22t102 57.5t60.5 87.5t31 103t8 113v379q0 63 -8 114.5t-31 103t-60.5 86.5t-102 57t-150.5 22h-297v-498h201q36 0 61 -25t25 -61t-25 -61t-61 -25h-201v-475z" />
<glyph unicode="&#xd1;" horiz-adv-x="1368" d="M170 68v1357q0 36 25 61t65 25q62 0 90 -51l678 -1100v1065q0 35 25.5 60.5t60.5 25.5t59.5 -25.5t24.5 -60.5v-1357q0 -36 -25 -61t-65 -25q-62 0 -88 45l-680 1103v-1062q0 -35 -25.5 -60.5t-60.5 -25.5t-59.5 25.5t-24.5 60.5zM344 1805q-1 62 57.5 102.5t136.5 42.5 q51 1 99 -20t90 -42t80 -20q28 0 49 9.5t31.5 21t25.5 21t33 10.5q29 0 49.5 -23.5t20.5 -56.5q1 -62 -58.5 -103t-136.5 -43q-51 -1 -99 20t-89.5 42t-79.5 20q-28 -1 -49.5 -10.5t-32 -20.5t-26 -20.5t-32.5 -9.5q-29 -1 -49 22.5t-20 57.5z" />
<glyph unicode="&#xd2;" d="M137 535v423q0 87 16 165t54 150t95 124t146 83t201 31q111 0 199.5 -31t146 -83t95 -124t53.5 -150t16 -165v-423q0 -87 -16 -165t-53.5 -150t-95 -124t-146 -83t-199.5 -31q-112 0 -201 31t-146 83t-95 124t-54 150t-16 165zM322 535q0 -385 327 -385q89 0 154.5 29.5 t102.5 83t54 121t17 151.5v423q0 84 -17 150.5t-53.5 120t-102 83t-155.5 29.5q-327 0 -327 -383v-423zM524.5 1997q7.5 31 38.5 49q36 16 65 5.5t44 -39.5l153 -283q14 -28 4.5 -53.5t-35.5 -38.5q-26 -14 -51.5 -6t-42.5 36l-168 275q-15 24 -7.5 55z" />
<glyph unicode="&#xd3;" d="M137 535v423q0 87 16 165t54 150t95 124t146 83t201 31q111 0 199.5 -31t146 -83t95 -124t53.5 -150t16 -165v-423q0 -87 -16 -165t-53.5 -150t-95 -124t-146 -83t-199.5 -31q-112 0 -201 31t-146 83t-95 124t-54 150t-16 165zM322 535q0 -385 327 -385q89 0 154.5 29.5 t102.5 83t54 121t17 151.5v423q0 84 -17 150.5t-53.5 120t-102 83t-155.5 29.5q-327 0 -327 -383v-423zM476.5 1675.5q-9.5 25.5 4.5 53.5l154 283q15 29 43.5 39.5t64.5 -5.5q31 -18 38.5 -49t-7.5 -55l-168 -275q-17 -28 -42.5 -36t-51.5 6q-26 13 -35.5 38.5z" />
<glyph unicode="&#xd4;" d="M137 535v423q0 87 16 165t54 150t95 124t146 83t201 31q111 0 199.5 -31t146 -83t95 -124t53.5 -150t16 -165v-423q0 -87 -16 -165t-53.5 -150t-95 -124t-146 -83t-199.5 -31q-112 0 -201 31t-146 83t-95 124t-54 150t-16 165zM316 1731q2 28 26 51l249 240q19 22 56 22 q33 0 55 -22l250 -242q24 -23 25.5 -51t-17.5 -51q-21 -22 -48 -24.5t-52 18.5l-213 192l-213 -192q-26 -21 -53 -18t-48 26q-19 23 -17 51zM322 535q0 -385 327 -385q89 0 154.5 29.5t102.5 83t54 121t17 151.5v423q0 84 -17 150.5t-53.5 120t-102 83t-155.5 29.5 q-327 0 -327 -383v-423z" />
<glyph unicode="&#xd5;" d="M137 535v423q0 87 16 165t54 150t95 124t146 83t201 31q111 0 199.5 -31t146 -83t95 -124t53.5 -150t16 -165v-423q0 -87 -16 -165t-53.5 -150t-95 -124t-146 -83t-199.5 -31q-112 0 -201 31t-146 83t-95 124t-54 150t-16 165zM307 1805q-1 62 57.5 102.5t136.5 42.5 q51 1 99 -20t90 -42t80 -20q28 0 49 9.5t31.5 21t25.5 21t33 10.5q29 0 49.5 -23.5t20.5 -56.5q1 -62 -58.5 -103t-136.5 -43q-51 -1 -99 20t-89.5 42t-79.5 20q-28 -1 -49.5 -10.5t-32 -20.5t-26 -20.5t-32.5 -9.5q-29 -1 -49 22.5t-20 57.5zM322 535q0 -385 327 -385 q89 0 154.5 29.5t102.5 83t54 121t17 151.5v423q0 84 -17 150.5t-53.5 120t-102 83t-155.5 29.5q-327 0 -327 -383v-423z" />
<glyph unicode="&#xd6;" d="M137 535v423q0 87 16 165t54 150t95 124t146 83t201 31q111 0 199.5 -31t146 -83t95 -124t53.5 -150t16 -165v-423q0 -87 -16 -165t-53.5 -150t-95 -124t-146 -83t-199.5 -31q-112 0 -201 31t-146 83t-95 124t-54 150t-16 165zM291 1825q0 51 35.5 87t86.5 36 q52 0 88.5 -36t36.5 -87q0 -53 -36 -89t-89 -36q-51 0 -86.5 36.5t-35.5 88.5zM322 535q0 -385 327 -385q89 0 154.5 29.5t102.5 83t54 121t17 151.5v423q0 84 -17 150.5t-53.5 120t-102 83t-155.5 29.5q-327 0 -327 -383v-423zM739 1825q0 51 36.5 87t88.5 36q51 0 87 -36 t36 -87q0 -52 -36 -88.5t-87 -36.5q-52 0 -88.5 36t-36.5 89z" />
<glyph unicode="&#xd7;" horiz-adv-x="909" d="M119 317.5q0 34.5 26 59.5l191 190l-191 191q-26 25 -26 59.5t26 59.5q25 25 59.5 25t59.5 -25l191 -191l190 191q25 25 59.5 25t59.5 -25t25 -59.5t-25 -59.5l-191 -191l191 -190q25 -25 25 -59.5t-25 -59.5t-59.5 -25t-59.5 25l-190 191l-191 -191q-25 -25 -59.5 -25 t-59.5 25q-26 25 -26 59.5z" />
<glyph unicode="&#xd8;" d="M137 535v423q0 87 16 165t54 150t95 124t146 83t201 31q141 0 250 -53l33 74q11 23 34 32t46 -1t32 -33.5t-2 -46.5l-41 -94q158 -143 158 -431v-423q0 -87 -16 -165t-53.5 -150t-95 -124t-146 -83t-199.5 -31q-147 0 -252 51l-32 -72q-11 -23 -34 -32t-46 1 q-23 9 -32.5 33t1.5 47l41 92q-158 146 -158 433zM322 535q0 -159 55 -250l452 1015q-71 41 -180 41q-327 0 -327 -383v-423zM469 193q67 -43 180 -43q89 0 154.5 29.5t102.5 83t54 121t17 151.5v423q0 155 -55 248z" />
<glyph unicode="&#xd9;" d="M137 485v934q0 38 27 65t65 27q37 0 63.5 -27t26.5 -65v-930q0 -71 18 -131t55 -109t103 -76.5t154 -27.5t153 27.5t102.5 76.5t55 109t17.5 131v930q0 37 27 64.5t65 27.5q37 0 64.5 -27.5t27.5 -64.5v-934q0 -105 -31.5 -195t-92.5 -159.5t-160.5 -109t-227.5 -39.5 t-228 39.5t-161 109t-92 159t-31 195.5zM493.5 1997q7.5 31 38.5 49q36 16 65 5.5t44 -39.5l153 -283q14 -28 4.5 -53.5t-35.5 -38.5q-26 -14 -51.5 -6t-42.5 36l-168 275q-15 24 -7.5 55z" />
<glyph unicode="&#xda;" d="M137 485v934q0 38 27 65t65 27q37 0 63.5 -27t26.5 -65v-930q0 -71 18 -131t55 -109t103 -76.5t154 -27.5t153 27.5t102.5 76.5t55 109t17.5 131v930q0 37 27 64.5t65 27.5q37 0 64.5 -27.5t27.5 -64.5v-934q0 -105 -31.5 -195t-92.5 -159.5t-160.5 -109t-227.5 -39.5 t-228 39.5t-161 109t-92 159t-31 195.5zM515.5 1675.5q-9.5 25.5 4.5 53.5l154 283q15 29 43.5 39.5t64.5 -5.5q31 -18 38.5 -49t-7.5 -55l-168 -275q-17 -28 -42.5 -36t-51.5 6q-26 13 -35.5 38.5z" />
<glyph unicode="&#xdb;" d="M137 485v934q0 38 27 65t65 27q37 0 63.5 -27t26.5 -65v-930q0 -71 18 -131t55 -109t103 -76.5t154 -27.5t153 27.5t102.5 76.5t55 109t17.5 131v930q0 37 27 64.5t65 27.5q37 0 64.5 -27.5t27.5 -64.5v-934q0 -105 -31.5 -195t-92.5 -159.5t-160.5 -109t-227.5 -39.5 t-228 39.5t-161 109t-92 159t-31 195.5zM312 1731q2 28 26 51l249 240q19 22 56 22q33 0 55 -22l250 -242q24 -23 25.5 -51t-17.5 -51q-21 -22 -48 -24.5t-52 18.5l-213 192l-213 -192q-26 -21 -53 -18t-48 26q-19 23 -17 51z" />
<glyph unicode="&#xdc;" d="M137 485v934q0 38 27 65t65 27q37 0 63.5 -27t26.5 -65v-930q0 -71 18 -131t55 -109t103 -76.5t154 -27.5t153 27.5t102.5 76.5t55 109t17.5 131v930q0 37 27 64.5t65 27.5q37 0 64.5 -27.5t27.5 -64.5v-934q0 -105 -31.5 -195t-92.5 -159.5t-160.5 -109t-227.5 -39.5 t-228 39.5t-161 109t-92 159t-31 195.5zM295 1825q0 51 35.5 87t86.5 36q52 0 88.5 -36t36.5 -87q0 -53 -36 -89t-89 -36q-51 0 -86.5 36.5t-35.5 88.5zM743 1825q0 51 36.5 87t88.5 36q51 0 87 -36t36 -87q0 -52 -36 -88.5t-87 -36.5q-52 0 -88.5 36t-36.5 89z" />
<glyph unicode="&#xdd;" horiz-adv-x="1030" d="M0 1421q0 38 28.5 64t65.5 26q57 0 80 -55q139 -316 342 -702q200 375 342 702q23 55 78 55q37 0 65.5 -25.5t28.5 -62.5q0 -17 -10 -37q-157 -368 -414 -839v-473q0 -38 -27 -65t-65 -27t-65 27t-27 65v473q-249 459 -414 835q-8 19 -8 39zM370.5 1675.5 q-9.5 25.5 4.5 53.5l154 283q15 29 43.5 39.5t64.5 -5.5q31 -18 38.5 -49t-7.5 -55l-168 -275q-17 -28 -42.5 -36t-51.5 6q-26 13 -35.5 38.5z" />
<glyph unicode="&#xde;" horiz-adv-x="1210" d="M170 -268v1839q0 38 27 65t65 27t65 -27t27 -65v-420h299q126 0 220.5 -35t147 -94t78 -128t25.5 -146v-105q0 -177 -120.5 -285t-331.5 -108h-318v-518q0 -38 -27 -65t-65 -27t-65 27t-27 65zM354 418h314q137 0 204.5 64.5t67.5 164.5v98q0 43 -14 81.5t-46 73.5 t-93.5 56t-145.5 21h-287v-559z" />
<glyph unicode="&#xdf;" horiz-adv-x="1165" d="M145 -154v1135q0 255 119 382.5t322 127.5q166 0 272.5 -102.5t106.5 -270.5q0 -124 -64 -207t-176 -116q167 -38 248.5 -135.5t81.5 -262.5q0 -104 -40.5 -184t-112 -127.5t-163.5 -71.5t-202 -24h-78q-32 0 -56 24t-24 58q0 32 24 56t56 24h65q353 0 353 266 q0 289 -383 289h-39q-31 0 -52.5 21t-21.5 52q0 29 21.5 50.5t52.5 21.5h59q36 0 72.5 7.5t74.5 26t66.5 46t47 70.5t18.5 96q0 109 -61.5 168t-149.5 59q-258 0 -258 -344v-1135q0 -37 -26.5 -63.5t-64.5 -26.5q-37 0 -62.5 26.5t-25.5 63.5z" />
<glyph unicode="&#xe0;" horiz-adv-x="1034" d="M76 289v16q0 134 95 215.5t282 81.5h233v49q0 131 -44 188.5t-167 57.5q-119 0 -209 -51q-27 -13 -52 -10.5t-41 19t-23.5 37t1 44t33.5 39.5q116 72 301 72q109 0 183 -25.5t117 -79.5t61 -128t18 -179v-381q0 -58 13 -84t45 -45q34 -18 34 -59q0 -38 -24 -58t-64 -20 q-63 0 -106 43q-27 22 -41 61q-97 -104 -287 -104q-181 0 -269.5 82.5t-88.5 218.5zM254 287q0 -160 211 -160q105 0 163 54t58 161v121h-215q-217 0 -217 -160v-16zM336.5 1587q7.5 31 38.5 49q36 16 64.5 5.5t43.5 -39.5l154 -283q14 -28 4.5 -53.5t-35.5 -38.5 q-26 -14 -51.5 -6t-42.5 36l-168 275q-15 24 -7.5 55z" />
<glyph unicode="&#xe1;" horiz-adv-x="1034" d="M76 289v16q0 134 95 215.5t282 81.5h233v49q0 131 -44 188.5t-167 57.5q-119 0 -209 -51q-27 -13 -52 -10.5t-41 19t-23.5 37t1 44t33.5 39.5q116 72 301 72q109 0 183 -25.5t117 -79.5t61 -128t18 -179v-381q0 -58 13 -84t45 -45q34 -18 34 -59q0 -38 -24 -58t-64 -20 q-63 0 -106 43q-27 22 -41 61q-97 -104 -287 -104q-181 0 -269.5 82.5t-88.5 218.5zM254 287q0 -160 211 -160q105 0 163 54t58 161v121h-215q-217 0 -217 -160v-16zM353.5 1265.5q-9.5 25.5 4.5 53.5l154 283q15 29 44 39.5t65 -5.5q31 -18 38 -49t-8 -55l-168 -275 q-17 -28 -42.5 -36t-51.5 6q-26 13 -35.5 38.5z" />
<glyph unicode="&#xe2;" horiz-adv-x="1034" d="M76 289v16q0 134 95 215.5t282 81.5h233v49q0 131 -44 188.5t-167 57.5q-119 0 -209 -51q-27 -13 -52 -10.5t-41 19t-23.5 37t1 44t33.5 39.5q116 72 301 72q109 0 183 -25.5t117 -79.5t61 -128t18 -179v-381q0 -58 13 -84t45 -45q34 -18 34 -59q0 -38 -24 -58t-64 -20 q-63 0 -106 43q-27 22 -41 61q-97 -104 -287 -104q-181 0 -269.5 82.5t-88.5 218.5zM162.5 1321q1.5 28 25.5 51l250 240q19 22 56 22q33 0 55 -22l250 -242q24 -23 25.5 -51t-17.5 -51q-21 -22 -48 -24.5t-52 18.5l-213 192l-213 -192q-26 -21 -53 -18t-48 26 q-19 23 -17.5 51zM254 287q0 -160 211 -160q105 0 163 54t58 161v121h-215q-217 0 -217 -160v-16z" />
<glyph unicode="&#xe3;" horiz-adv-x="1034" d="M76 289v16q0 134 95 215.5t282 81.5h233v49q0 131 -44 188.5t-167 57.5q-119 0 -209 -51q-27 -13 -52 -10.5t-41 19t-23.5 37t1 44t33.5 39.5q116 72 301 72q109 0 183 -25.5t117 -79.5t61 -128t18 -179v-381q0 -58 13 -84t45 -45q34 -18 34 -59q0 -38 -24 -58t-64 -20 q-63 0 -106 43q-27 22 -41 61q-97 -104 -287 -104q-181 0 -269.5 82.5t-88.5 218.5zM150 1395q-1 62 57.5 102.5t136.5 42.5q51 1 99 -20t89.5 -42t79.5 -20q36 0 59 15t41 30.5t40 16.5q29 0 49 -23.5t20 -56.5q1 -62 -58 -103t-136 -43q-51 -1 -99 20t-90 42t-80 20 q-28 -1 -49.5 -10.5t-32 -20.5t-25.5 -20.5t-32 -9.5q-29 -1 -49 22.5t-20 57.5zM254 287q0 -160 211 -160q105 0 163 54t58 161v121h-215q-217 0 -217 -160v-16z" />
<glyph unicode="&#xe4;" horiz-adv-x="1034" d="M76 289v16q0 134 95 215.5t282 81.5h233v49q0 131 -44 188.5t-167 57.5q-119 0 -209 -51q-27 -13 -52 -10.5t-41 19t-23.5 37t1 44t33.5 39.5q116 72 301 72q109 0 183 -25.5t117 -79.5t61 -128t18 -179v-381q0 -58 13 -84t45 -45q34 -18 34 -59q0 -38 -24 -58t-64 -20 q-63 0 -106 43q-27 22 -41 61q-97 -104 -287 -104q-181 0 -269.5 82.5t-88.5 218.5zM145 1415q0 51 36 87t87 36q52 0 88.5 -36t36.5 -87q0 -53 -36.5 -89t-88.5 -36q-51 0 -87 36.5t-36 88.5zM254 287q0 -160 211 -160q105 0 163 54t58 161v121h-215q-217 0 -217 -160v-16z M594 1415q0 51 36.5 87t88.5 36q51 0 87 -36t36 -87q0 -52 -36 -88.5t-87 -36.5q-53 0 -89 36t-36 89z" />
<glyph unicode="&#xe5;" horiz-adv-x="1034" d="M76 289v16q0 134 95 215.5t282 81.5h233v49q0 131 -44 188.5t-167 57.5q-119 0 -209 -51q-27 -13 -52 -10.5t-41 19t-23.5 37t1 44t33.5 39.5q116 72 301 72q109 0 183 -25.5t117 -79.5t61 -128t18 -179v-381q0 -58 13 -84t45 -45q34 -18 34 -59q0 -38 -24 -58t-64 -20 q-63 0 -106 43q-27 22 -41 61q-97 -104 -287 -104q-181 0 -269.5 82.5t-88.5 218.5zM242 1415q0 100 69.5 170t169.5 70t170 -70t70 -170t-70 -169.5t-170 -69.5t-169.5 69.5t-69.5 169.5zM254 287q0 -160 211 -160q105 0 163 54t58 161v121h-215q-217 0 -217 -160v-16z M342 1415q0 -58 41 -98.5t98 -40.5t98.5 40.5t41.5 98.5q0 57 -41.5 98t-98.5 41t-98 -41t-41 -98z" />
<glyph unicode="&#xe6;" horiz-adv-x="1587" d="M76 289v16q0 134 95 214.5t282 80.5h233v51q0 131 -44 188.5t-167 57.5q-119 0 -209 -51q-27 -13 -52 -10.5t-41 19t-23.5 37t1 44t33.5 39.5q116 72 301 72q228 0 308 -132q101 132 297 132q87 0 156.5 -23t115 -62t75.5 -94.5t43 -117.5t13 -134v-84q0 -30 -20.5 -49.5 t-49.5 -19.5h-559v-55q2 -126 59 -196.5t175 -70.5q141 0 254 58q30 14 57.5 1.5t38.5 -42.5q11 -29 1.5 -55.5t-36.5 -41.5q-140 -73 -323 -73q-223 0 -324 153q-87 -153 -332 -153q-181 0 -269.5 83t-88.5 218zM254 287q0 -160 211 -160q105 0 163 54t58 161v121h-215 q-217 0 -217 -160v-16zM864 600h453v39q0 127 -52 193.5t-171 66.5q-118 0 -174 -68.5t-56 -191.5v-39z" />
<glyph unicode="&#xe7;" horiz-adv-x="872" d="M111 444v140q0 129 44 232t137.5 167t223.5 64q153 0 256 -60q28 -15 37.5 -42t-4.5 -58q-12 -28 -39.5 -38t-56.5 3q-80 41 -179 41q-114 0 -176.5 -79.5t-62.5 -213.5v-164q0 -141 58.5 -218t174.5 -77q100 0 187 43q31 14 58.5 3.5t39.5 -40.5q11 -33 1.5 -58.5 t-36.5 -39.5q-96 -52 -225 -59v-66q115 0 170 -45.5t55 -120.5q0 -77 -64.5 -123.5t-177.5 -46.5q-137 0 -137 54q0 41 99 41q71 0 106 22t35 59q0 39 -29.5 57t-89.5 21q-42 3 -57.5 16.5t-12.5 45.5l7 88q-172 20 -257 140.5t-85 311.5z" />
<glyph unicode="&#xe8;" horiz-adv-x="1011" d="M111 422v190q0 72 14 135t45.5 118.5t77.5 95.5t114 63t152 23q87 0 156 -23t114.5 -62t75.5 -94.5t42.5 -117.5t12.5 -134v-84q0 -31 -19 -50t-48 -19h-559v-55q0 -126 57.5 -196.5t173.5 -70.5q143 0 256 58q30 14 57.5 1.5t38.5 -42.5q11 -29 2 -55.5t-36 -41.5 q-140 -73 -324 -73q-86 0 -155 23t-114.5 62.5t-76 95t-44 118.5t-13.5 135zM289 604h452v35q0 127 -52 193.5t-171 66.5q-117 0 -173 -68t-56 -192v-35zM371.5 1587q7.5 31 38.5 49q36 16 65 5.5t44 -39.5l153 -283q14 -28 4.5 -53.5t-35.5 -38.5q-26 -14 -51.5 -6 t-42.5 36l-168 275q-15 24 -7.5 55z" />
<glyph unicode="&#xe9;" horiz-adv-x="1011" d="M111 422v190q0 72 14 135t45.5 118.5t77.5 95.5t114 63t152 23q87 0 156 -23t114.5 -62t75.5 -94.5t42.5 -117.5t12.5 -134v-84q0 -31 -19 -50t-48 -19h-559v-55q0 -126 57.5 -196.5t173.5 -70.5q143 0 256 58q30 14 57.5 1.5t38.5 -42.5q11 -29 2 -55.5t-36 -41.5 q-140 -73 -324 -73q-86 0 -155 23t-114.5 62.5t-76 95t-44 118.5t-13.5 135zM289 604h452v35q0 127 -52 193.5t-171 66.5q-117 0 -173 -68t-56 -192v-35zM365.5 1265.5q-9.5 25.5 4.5 53.5l154 283q15 29 43.5 39.5t64.5 -5.5q31 -18 38.5 -49t-7.5 -55l-168 -275 q-17 -28 -42.5 -36t-51.5 6q-26 13 -35.5 38.5z" />
<glyph unicode="&#xea;" horiz-adv-x="1011" d="M111 422v190q0 72 14 135t45.5 118.5t77.5 95.5t114 63t152 23q87 0 156 -23t114.5 -62t75.5 -94.5t42.5 -117.5t12.5 -134v-84q0 -31 -19 -50t-48 -19h-559v-55q0 -126 57.5 -196.5t173.5 -70.5q143 0 256 58q30 14 57.5 1.5t38.5 -42.5q11 -29 2 -55.5t-36 -41.5 q-140 -73 -324 -73q-86 0 -155 23t-114.5 62.5t-76 95t-44 118.5t-13.5 135zM183 1321q2 28 26 51l249 240q19 22 56 22q33 0 55 -22l250 -242q24 -23 25.5 -51t-17.5 -51q-21 -22 -48 -24.5t-52 18.5l-213 192l-213 -192q-26 -21 -53 -18t-48 26q-19 23 -17 51zM289 604 h452v35q0 127 -52 193.5t-171 66.5q-117 0 -173 -68t-56 -192v-35z" />
<glyph unicode="&#xeb;" horiz-adv-x="1011" d="M111 422v190q0 72 14 135t45.5 118.5t77.5 95.5t114 63t152 23q87 0 156 -23t114.5 -62t75.5 -94.5t42.5 -117.5t12.5 -134v-84q0 -31 -19 -50t-48 -19h-559v-55q0 -126 57.5 -196.5t173.5 -70.5q143 0 256 58q30 14 57.5 1.5t38.5 -42.5q11 -29 2 -55.5t-36 -41.5 q-140 -73 -324 -73q-86 0 -155 23t-114.5 62.5t-76 95t-44 118.5t-13.5 135zM162 1415q0 51 35.5 87t86.5 36q52 0 88.5 -36t36.5 -87q0 -53 -36.5 -89t-88.5 -36q-51 0 -86.5 36.5t-35.5 88.5zM289 604h452v35q0 127 -52 193.5t-171 66.5q-117 0 -173 -68t-56 -192v-35z M610 1415q0 51 36.5 87t88.5 36q51 0 87 -36t36 -87q0 -52 -36 -88.5t-87 -36.5q-53 0 -89 36t-36 89z" />
<glyph unicode="&#xec;" horiz-adv-x="468" d="M90.5 1587q7.5 31 38.5 49q36 16 65 5.5t44 -39.5l153 -283q14 -28 4.5 -53.5t-35.5 -38.5q-26 -14 -51.5 -6t-42.5 36l-168 275q-15 24 -7.5 55zM145 78v878q0 37 26 64t62 27q38 0 64.5 -27t26.5 -64v-878q0 -38 -26.5 -64t-64.5 -26q-37 0 -62.5 26t-25.5 64z" />
<glyph unicode="&#xed;" horiz-adv-x="468" d="M79.5 1265.5q-9.5 25.5 4.5 53.5l154 283q15 29 43.5 39.5t64.5 -5.5q31 -18 38.5 -49t-7.5 -55l-168 -275q-17 -28 -42.5 -36t-51.5 6q-26 13 -35.5 38.5zM145 78v878q0 37 26 64t62 27q38 0 64.5 -27t26.5 -64v-878q0 -38 -26.5 -64t-64.5 -26q-37 0 -62.5 26t-25.5 64 z" />
<glyph unicode="&#xee;" horiz-adv-x="468" d="M-95 1321q2 28 26 51l249 240q19 22 56 22q33 0 55 -22l250 -242q24 -23 25.5 -51t-17.5 -51q-21 -22 -48 -24.5t-52 18.5l-213 192l-213 -192q-26 -21 -53 -18t-48 26q-19 23 -17 51zM145 78v878q0 37 26 64t62 27q38 0 64.5 -27t26.5 -64v-878q0 -38 -26.5 -64 t-64.5 -26q-37 0 -62.5 26t-25.5 64z" />
<glyph unicode="&#xef;" horiz-adv-x="468" d="M-112 1415q0 51 35.5 87t86.5 36q52 0 88.5 -36t36.5 -87q0 -53 -36.5 -89t-88.5 -36q-51 0 -86.5 36.5t-35.5 88.5zM145 78v878q0 37 26 64t62 27q38 0 64.5 -27t26.5 -64v-878q0 -38 -26.5 -64t-64.5 -26q-37 0 -62.5 26t-25.5 64zM336 1415q0 51 36.5 87t88.5 36 q51 0 87 -36t36 -87q0 -52 -36 -88.5t-87 -36.5q-53 0 -89 36t-36 89z" />
<glyph unicode="&#xf0;" horiz-adv-x="1132" d="M102 457q0 86 26.5 159t70.5 124t102 87t121 53t127 17q115 0 217 -57q-73 176 -223 329l-162 -120q-23 -19 -51 -15t-45 27q-19 23 -15 51t27 47l143 107q-38 35 -92 73q-39 29 -39 72q0 38 26.5 65t63.5 27q30 0 54 -18q79 -59 135 -107l151 113q23 19 51.5 15 t45.5 -27q19 -23 14.5 -52.5t-27.5 -46.5l-133 -100q340 -356 340 -788q0 -124 -37.5 -223t-102.5 -161t-149 -94t-180 -32q-205 0 -332 131.5t-127 343.5zM283 457q0 -139 74.5 -223t203.5 -84q127 0 208 85t81 257q0 70 -14 159q-112 90 -265 90q-71 0 -135.5 -31.5 t-108.5 -98t-44 -154.5z" />
<glyph unicode="&#xf1;" horiz-adv-x="1118" d="M76 956q0 38 24.5 58t63.5 20q57 0 110 -43q30 -30 45 -67q114 123 320 123q95 0 162 -28t104 -80.5t53.5 -117.5t16.5 -149v-594q0 -38 -26 -64t-64 -26q-37 0 -62.5 26t-25.5 64v577q0 109 -42 165.5t-153 56.5q-86 0 -149.5 -34.5t-98.5 -94.5v-670q0 -38 -26.5 -64 t-63.5 -26t-63.5 26.5t-26.5 63.5v690q0 58 -14.5 84t-48.5 45q-35 18 -35 59zM232 1395q-1 62 57.5 102.5t136.5 42.5q51 1 99 -20t90 -42t80 -20q28 0 49 9.5t31.5 21t25.5 21t33 10.5q29 0 49.5 -23.5t20.5 -56.5q1 -62 -58.5 -103t-136.5 -43q-51 -1 -99 20t-89.5 42 t-79.5 20q-28 -1 -49.5 -10.5t-32 -20.5t-26 -20.5t-32.5 -9.5q-29 -1 -49 22.5t-20 57.5z" />
<glyph unicode="&#xf2;" horiz-adv-x="1046" d="M111 412v211q0 90 24 165t72 134t128.5 92t186.5 33q107 0 188 -33t129.5 -92t72.5 -134t24 -165v-211q0 -90 -24 -165t-72.5 -134t-129.5 -92t-188 -33q-106 0 -186.5 33t-128.5 92t-72 134t-24 165zM291 412q0 -260 231 -260q234 0 234 260v211q0 258 -234 258 q-231 0 -231 -258v-211zM381.5 1587q7.5 31 38.5 49q36 16 65 5.5t44 -39.5l153 -283q14 -28 4.5 -53.5t-35.5 -38.5q-26 -14 -51.5 -6t-42.5 36l-168 275q-15 24 -7.5 55z" />
<glyph unicode="&#xf3;" horiz-adv-x="1046" d="M111 412v211q0 90 24 165t72 134t128.5 92t186.5 33q107 0 188 -33t129.5 -92t72.5 -134t24 -165v-211q0 -90 -24 -165t-72.5 -134t-129.5 -92t-188 -33q-106 0 -186.5 33t-128.5 92t-72 134t-24 165zM291 412q0 -260 231 -260q234 0 234 260v211q0 258 -234 258 q-231 0 -231 -258v-211zM361.5 1265.5q-9.5 25.5 4.5 53.5l154 283q15 29 43.5 39.5t64.5 -5.5q31 -18 38.5 -49t-7.5 -55l-168 -275q-17 -28 -42.5 -36t-51.5 6q-26 13 -35.5 38.5z" />
<glyph unicode="&#xf4;" horiz-adv-x="1046" d="M111 412v211q0 90 24 165t72 134t128.5 92t186.5 33q107 0 188 -33t129.5 -92t72.5 -134t24 -165v-211q0 -90 -24 -165t-72.5 -134t-129.5 -92t-188 -33q-106 0 -186.5 33t-128.5 92t-72 134t-24 165zM189 1321q2 28 26 51l249 240q19 22 56 22q33 0 55 -22l250 -242 q24 -23 25.5 -51t-17.5 -51q-21 -22 -48 -24.5t-52 18.5l-213 192l-213 -192q-26 -21 -53 -18t-48 26q-19 23 -17 51zM291 412q0 -260 231 -260q234 0 234 260v211q0 258 -234 258q-231 0 -231 -258v-211z" />
<glyph unicode="&#xf5;" horiz-adv-x="1046" d="M111 412v211q0 90 24 165t72 134t128.5 92t186.5 33q107 0 188 -33t129.5 -92t72.5 -134t24 -165v-211q0 -90 -24 -165t-72.5 -134t-129.5 -92t-188 -33q-106 0 -186.5 33t-128.5 92t-72 134t-24 165zM189 1395q-1 62 57.5 102.5t136.5 42.5q51 1 99 -20t90 -42t80 -20 q28 0 49 9.5t31.5 21t25.5 21t33 10.5q29 0 49.5 -23.5t20.5 -56.5q1 -62 -58.5 -103t-136.5 -43q-51 -1 -99 20t-89.5 42t-79.5 20q-28 -1 -49.5 -10.5t-32 -20.5t-26 -20.5t-32.5 -9.5q-29 -1 -49 22.5t-20 57.5zM291 412q0 -260 231 -260q234 0 234 260v211 q0 258 -234 258q-231 0 -231 -258v-211z" />
<glyph unicode="&#xf6;" horiz-adv-x="1046" d="M111 412v211q0 90 24 165t72 134t128.5 92t186.5 33q107 0 188 -33t129.5 -92t72.5 -134t24 -165v-211q0 -90 -24 -165t-72.5 -134t-129.5 -92t-188 -33q-106 0 -186.5 33t-128.5 92t-72 134t-24 165zM170 1415q0 51 35.5 87t86.5 36q52 0 88.5 -36t36.5 -87 q0 -53 -36.5 -89t-88.5 -36q-51 0 -86.5 36.5t-35.5 88.5zM291 412q0 -260 231 -260q234 0 234 260v211q0 258 -234 258q-231 0 -231 -258v-211zM618 1415q0 51 36.5 87t88.5 36q51 0 87 -36t36 -87q0 -52 -36 -88.5t-87 -36.5q-53 0 -89 36t-36 89z" />
<glyph unicode="&#xf7;" horiz-adv-x="1189" d="M176 569q0 35 24.5 59.5t59.5 24.5h670q34 0 59 -24.5t25 -59.5q0 -34 -25 -59t-59 -25h-670q-35 0 -59.5 25t-24.5 59zM475 197q0 49 34.5 83.5t84.5 34.5q51 0 86 -34t35 -84q0 -51 -35 -86t-86 -35q-50 0 -84.5 35t-34.5 86zM475 944q0 50 34.5 84.5t84.5 34.5 q51 0 86 -34.5t35 -84.5q0 -51 -35 -86t-86 -35q-50 0 -84.5 35t-34.5 86z" />
<glyph unicode="&#xf8;" horiz-adv-x="1046" d="M111 412v211q0 90 24 165t72 134t128.5 92t186.5 33q98 0 168 -27l35 76q8 19 28 26t40 -2q20 -7 27 -27t-1 -40l-37 -80q77 -55 115.5 -146t38.5 -204v-211q0 -90 -24 -165t-72.5 -134t-129.5 -92t-188 -33q-97 0 -168 26l-32 -75q-9 -19 -28.5 -26.5t-39.5 1.5 q-20 7 -28 27.5t1 40.5l37 79q-153 110 -153 351zM291 412q0 -119 47 -183l285 637q-44 15 -101 15q-231 0 -231 -258v-211zM424 168q46 -16 98 -16q234 0 234 260v211q0 120 -49 180z" />
<glyph unicode="&#xf9;" horiz-adv-x="1120" d="M145 360v596q0 37 26.5 64t64.5 27q36 0 62 -27t26 -64v-579q0 -109 42 -164t152 -55q178 0 248 137v661q0 37 26.5 64t63.5 27t63.5 -27t26.5 -64v-702q0 -59 14.5 -84.5t49.5 -44.5q34 -18 34 -59q0 -38 -24.5 -58t-63.5 -20q-57 0 -110 43q-30 24 -49 75 q-115 -118 -318 -118q-334 0 -334 372zM387.5 1587q7.5 31 38.5 49q36 16 65 5.5t44 -39.5l153 -283q14 -28 4.5 -53.5t-35.5 -38.5q-26 -14 -51.5 -6t-42.5 36l-168 275q-15 24 -7.5 55z" />
<glyph unicode="&#xfa;" horiz-adv-x="1120" d="M145 360v596q0 37 26.5 64t64.5 27q36 0 62 -27t26 -64v-579q0 -109 42 -164t152 -55q178 0 248 137v661q0 37 26.5 64t63.5 27t63.5 -27t26.5 -64v-702q0 -59 14.5 -84.5t49.5 -44.5q34 -18 34 -59q0 -38 -24.5 -58t-63.5 -20q-57 0 -110 43q-30 24 -49 75 q-115 -118 -318 -118q-334 0 -334 372zM390.5 1265.5q-9.5 25.5 4.5 53.5l154 283q15 29 43.5 39.5t64.5 -5.5q31 -18 38.5 -49t-7.5 -55l-168 -275q-17 -28 -42.5 -36t-51.5 6q-26 13 -35.5 38.5z" />
<glyph unicode="&#xfb;" horiz-adv-x="1120" d="M145 360v596q0 37 26.5 64t64.5 27q36 0 62 -27t26 -64v-579q0 -109 42 -164t152 -55q178 0 248 137v661q0 37 26.5 64t63.5 27t63.5 -27t26.5 -64v-702q0 -59 14.5 -84.5t49.5 -44.5q34 -18 34 -59q0 -38 -24.5 -58t-63.5 -20q-57 0 -110 43q-30 24 -49 75 q-115 -118 -318 -118q-334 0 -334 372zM214 1321q2 28 26 51l249 240q19 22 56 22q33 0 55 -22l250 -242q24 -23 25.5 -51t-17.5 -51q-21 -22 -48 -24.5t-52 18.5l-213 192l-213 -192q-26 -21 -53 -18t-48 26q-19 23 -17 51z" />
<glyph unicode="&#xfc;" horiz-adv-x="1120" d="M145 360v596q0 37 26.5 64t64.5 27q36 0 62 -27t26 -64v-579q0 -109 42 -164t152 -55q178 0 248 137v661q0 37 26.5 64t63.5 27t63.5 -27t26.5 -64v-702q0 -59 14.5 -84.5t49.5 -44.5q34 -18 34 -59q0 -38 -24.5 -58t-63.5 -20q-57 0 -110 43q-30 24 -49 75 q-115 -118 -318 -118q-334 0 -334 372zM199 1415q0 51 35.5 87t86.5 36q52 0 88.5 -36t36.5 -87q0 -53 -36 -89t-89 -36q-51 0 -86.5 36.5t-35.5 88.5zM647 1415q0 51 36.5 87t88.5 36q51 0 87 -36t36 -87q0 -52 -36 -88.5t-87 -36.5q-52 0 -88.5 36t-36.5 89z" />
<glyph unicode="&#xfd;" horiz-adv-x="935" d="M6 -287q0 34 22 59.5t62 26.5q90 3 159 48.5t130 160.5q-231 574 -342 928q-14 48 14.5 79.5t71.5 31.5q58 0 78 -62q114 -356 266 -752l254 754q10 30 32 45t50 15q45 0 73.5 -34.5t10.5 -84.5l-277 -785q-93 -267 -208 -388t-298 -130q-45 -1 -71.5 25t-26.5 63z M339.5 1265.5q-9.5 25.5 4.5 53.5l154 283q15 29 43.5 39.5t64.5 -5.5q31 -18 38.5 -49t-7.5 -55l-168 -275q-17 -28 -42.5 -36t-51.5 6q-26 13 -35.5 38.5z" />
<glyph unicode="&#xfe;" horiz-adv-x="1034" d="M133 -289v1714q0 37 26 64t62 27q38 0 64 -27t26 -64v-450q112 69 234 69q196 0 287.5 -105t91.5 -308v-187q0 -458 -369 -458q-135 0 -244 80v-355q0 -37 -26 -62.5t-64 -25.5q-37 0 -62.5 25.5t-25.5 62.5zM311 236q47 -49 105 -72t108 -23q219 0 219 277v221 q0 128 -51.5 189t-171.5 61q-107 0 -209 -86v-567z" />
<glyph unicode="&#xff;" horiz-adv-x="927" d="M6 -287q0 34 22 59.5t62 26.5q90 3 159 48.5t130 160.5q-231 574 -342 928q-14 48 14.5 79.5t71.5 31.5q58 0 78 -62q114 -356 266 -752l254 754q10 30 32 45t50 15q45 0 73.5 -34.5t10.5 -84.5l-277 -785q-93 -267 -208 -388t-298 -130q-45 -1 -71.5 25t-26.5 63z M115 1415q0 51 35.5 87t86.5 36q52 0 88.5 -36t36.5 -87q0 -53 -36 -89t-89 -36q-51 0 -86.5 36.5t-35.5 88.5zM563 1415q0 51 36.5 87t88.5 36q51 0 87 -36t36 -87q0 -52 -36 -88.5t-87 -36.5q-52 0 -88.5 36t-36.5 89z" />
<glyph unicode="&#x152;" horiz-adv-x="1941" d="M137 537v421q0 87 16 165t54 150t95 124t146 83t201 31q197 0 328 -100q1 34 26.5 58t59.5 24h684q36 0 62 -26t26 -62q0 -37 -25.5 -62.5t-62.5 -25.5h-588v-486h535q35 0 60.5 -25.5t25.5 -60.5t-25.5 -60.5t-60.5 -25.5h-535v-483h619q35 0 60.5 -25.5t25.5 -62.5 t-25.5 -62.5t-60.5 -25.5h-715q-34 0 -59.5 24t-26.5 58q-131 -100 -328 -100q-112 0 -201 31t-146 83.5t-95 125t-54 150.5t-16 165zM322 537q0 -85 16.5 -152t53.5 -121.5t102 -84t155 -29.5q89 0 154.5 29.5t102.5 84t54 122t17 151.5v421q0 84 -17 150.5t-53.5 120 t-102 83t-155.5 29.5q-327 0 -327 -383v-421z" />
<glyph unicode="&#x153;" horiz-adv-x="1654" d="M111 412v211q0 90 24 165t72 134t128.5 92t186.5 33q225 0 324 -154q99 154 313 154q108 0 188 -34t125.5 -95.5t67 -136t21.5 -165.5v-84q0 -31 -19.5 -50t-48.5 -19h-559v-55q0 -126 56.5 -196.5t174.5 -70.5q143 0 256 58q30 14 58 1.5t39 -42.5q11 -29 1.5 -55.5 t-36.5 -41.5q-140 -73 -324 -73q-218 0 -315 151q-97 -151 -322 -151q-106 0 -186.5 33t-128.5 92t-72 134t-24 165zM291 412q0 -260 231 -260q234 0 234 260v211q0 258 -234 258q-231 0 -231 -258v-211zM934 604h452v35q0 126 -52.5 193t-172.5 67q-116 0 -171.5 -68.5 t-55.5 -191.5v-35z" />
<glyph unicode="&#x178;" horiz-adv-x="1030" d="M-8 1421q0 39 29 64.5t67 25.5q55 0 80 -55q131 -305 340 -702q200 375 342 702q23 55 80 55q35 0 63.5 -25.5t28.5 -62.5q0 -21 -8 -37q-164 -377 -416 -839v-473q0 -38 -27 -65t-65 -27t-65 27t-27 65v473q-255 469 -412 835q-10 23 -10 39zM150 1825q0 51 35.5 88 t86.5 37q52 0 88.5 -37t36.5 -88q0 -53 -36.5 -89t-88.5 -36q-51 0 -86.5 36.5t-35.5 88.5zM598 1825q0 51 36.5 88t88.5 37q51 0 87 -37t36 -88q0 -52 -36 -88.5t-87 -36.5q-53 0 -89 36t-36 89z" />
<glyph unicode="&#x2c6;" horiz-adv-x="1085" d="M212 1321q2 28 26 51l249 240q19 22 56 22q33 0 55 -22l250 -242q24 -23 25.5 -51t-17.5 -51q-21 -22 -48 -24.5t-52 18.5l-213 192l-213 -192q-26 -21 -53 -18t-48 26q-19 23 -17 51z" />
<glyph unicode="&#x2dc;" horiz-adv-x="1085" d="M207 1395q-1 62 57.5 102.5t136.5 42.5q51 1 99 -20t90 -42t80 -20q28 0 49 9.5t31.5 21t25.5 21t33 10.5q29 0 49.5 -23.5t20.5 -56.5q1 -62 -58.5 -103t-136.5 -43q-51 -1 -99 20t-89.5 42t-79.5 20q-28 -1 -49.5 -10.5t-32 -20.5t-26 -20.5t-32.5 -9.5 q-29 -1 -49 22.5t-20 57.5z" />
<glyph unicode="&#x2000;" horiz-adv-x="1032" />
<glyph unicode="&#x2001;" horiz-adv-x="2065" />
<glyph unicode="&#x2002;" horiz-adv-x="1032" />
<glyph unicode="&#x2003;" horiz-adv-x="2065" />
<glyph unicode="&#x2004;" horiz-adv-x="688" />
<glyph unicode="&#x2005;" horiz-adv-x="516" />
<glyph unicode="&#x2006;" horiz-adv-x="344" />
<glyph unicode="&#x2007;" horiz-adv-x="344" />
<glyph unicode="&#x2008;" horiz-adv-x="258" />
<glyph unicode="&#x2009;" horiz-adv-x="413" />
<glyph unicode="&#x200a;" horiz-adv-x="114" />
<glyph unicode="&#x2010;" horiz-adv-x="1003" d="M143 600q0 35 24.5 59.5t59.5 24.5h551q34 0 58 -24.5t24 -59.5q0 -34 -24 -59t-58 -25h-551q-35 0 -59.5 25t-24.5 59z" />
<glyph unicode="&#x2011;" horiz-adv-x="1003" d="M143 600q0 35 24.5 59.5t59.5 24.5h551q34 0 58 -24.5t24 -59.5q0 -34 -24 -59t-58 -25h-551q-35 0 -59.5 25t-24.5 59z" />
<glyph unicode="&#x2012;" horiz-adv-x="1003" d="M143 600q0 35 24.5 59.5t59.5 24.5h551q34 0 58 -24.5t24 -59.5q0 -34 -24 -59t-58 -25h-551q-35 0 -59.5 25t-24.5 59z" />
<glyph unicode="&#x2013;" horiz-adv-x="798" d="M-25 567q0 35 24.5 59.5t59.5 24.5h680q34 0 59 -24.5t25 -59.5q0 -34 -25 -59t-59 -25h-680q-35 0 -59.5 25t-24.5 59z" />
<glyph unicode="&#x2014;" horiz-adv-x="1562" d="M-25 567q0 35 24.5 59.5t59.5 24.5h1444q35 0 59.5 -24.5t24.5 -59.5q0 -34 -24.5 -59t-59.5 -25h-1444q-35 0 -59.5 25t-24.5 59z" />
<glyph unicode="&#x2018;" horiz-adv-x="421" d="M90 1239q-1 59 23 114t57 89t65 54t50 20t30.5 -12.5t12.5 -30.5q0 -15 -11.5 -29t-26 -24.5t-29 -33.5t-19.5 -55q39 -11 64.5 -42.5t25.5 -71.5q1 -50 -34 -84.5t-85 -34.5q-54 0 -88.5 39t-34.5 102z" />
<glyph unicode="&#x2019;" horiz-adv-x="421" d="M90 1397q0 51 34.5 85t84.5 34q55 0 89 -39.5t34 -102.5q1 -60 -22.5 -114.5t-56.5 -88t-64.5 -53.5t-49.5 -20t-30.5 12.5t-12.5 30.5q-1 15 10.5 28.5t26 24t29.5 33.5t20 55q-40 11 -66 42.5t-26 72.5z" />
<glyph unicode="&#x201a;" horiz-adv-x="421" d="M90 104q0 49 35.5 83t85.5 34q54 0 87.5 -39t33.5 -102q0 -59 -24 -113.5t-57.5 -88t-64.5 -53.5t-49 -20t-30.5 11.5t-12.5 29.5q0 15 11.5 29t26.5 24.5t30 34.5t20 56q-40 9 -66 41t-26 73z" />
<glyph unicode="&#x201c;" horiz-adv-x="776" d="M90 1239q-1 59 23 114t57 89t65 54t50 20t30.5 -12.5t12.5 -30.5q0 -15 -11.5 -29t-26 -24.5t-29 -33.5t-19.5 -55q39 -11 64.5 -42.5t25.5 -71.5q1 -50 -34 -84.5t-85 -34.5q-54 0 -88.5 39t-34.5 102zM442 1239q0 60 24 114.5t57 88.5t64.5 54t49.5 20t30.5 -12.5 t12.5 -30.5q0 -15 -11.5 -29t-25.5 -24.5t-29 -33.5t-20 -55q40 -11 66 -42t26 -72q0 -51 -34.5 -85t-84.5 -34q-55 0 -89 39t-36 102z" />
<glyph unicode="&#x201d;" horiz-adv-x="776" d="M90 1397q0 51 34.5 85t84.5 34q55 0 89 -39.5t34 -102.5q1 -60 -22.5 -114.5t-56.5 -88t-64.5 -53.5t-49.5 -20t-30.5 12.5t-12.5 30.5q-1 15 10.5 28.5t26 24t29.5 33.5t20 55q-40 11 -66 42.5t-26 72.5zM442 1397q0 50 35.5 84.5t85.5 34.5q54 0 88.5 -39.5 t34.5 -102.5q1 -59 -23 -114t-57 -88.5t-64.5 -53.5t-49.5 -20t-30.5 12.5t-12.5 30.5q0 15 11.5 28.5t26 24t29 33.5t19.5 55q-39 11 -65.5 42.5t-27.5 72.5z" />
<glyph unicode="&#x201e;" horiz-adv-x="774" d="M90 104q0 49 35.5 83t85.5 34q54 0 87.5 -39t33.5 -102q0 -59 -24 -113.5t-57.5 -88t-64.5 -53.5t-49 -20t-30.5 11.5t-12.5 29.5q0 15 11.5 29t26.5 24.5t30 34.5t20 56q-40 9 -66 41t-26 73zM442 104q0 49 34.5 83t84.5 34q55 0 89 -39t34 -102q0 -59 -24 -113.5 t-57.5 -88t-65.5 -53.5t-50 -20t-30.5 11.5t-12.5 29.5q0 15 11.5 29t26.5 24.5t30 34.5t20 56q-40 9 -65 41t-25 73z" />
<glyph unicode="&#x2022;" horiz-adv-x="1021" d="M113 686q0 146 103 249t249 103t249 -103t103 -249t-103 -249t-249 -103t-249 103t-103 249z" />
<glyph unicode="&#x2026;" horiz-adv-x="1490" d="M123 102q0 50 35 84.5t86 34.5q49 0 83.5 -34.5t34.5 -84.5q0 -51 -34 -85.5t-84 -34.5q-51 0 -86 34.5t-35 85.5zM618 102q0 49 35.5 84t85.5 35t85.5 -35t35.5 -84q0 -51 -35.5 -85.5t-85.5 -34.5t-85.5 34.5t-35.5 85.5zM1116 102q0 50 35 84.5t84 34.5q51 0 86 -34.5 t35 -84.5q0 -51 -35 -85.5t-86 -34.5q-50 0 -84.5 34.5t-34.5 85.5z" />
<glyph unicode="&#x202f;" horiz-adv-x="413" />
<glyph unicode="&#x2039;" horiz-adv-x="718" d="M68 557q0 33 24 57l385 398q24 26 58.5 27t60.5 -23q25 -25 25 -59.5t-23 -59.5l-330 -340l330 -340q23 -25 23 -59.5t-25 -59.5q-26 -23 -60 -23t-59 25l-385 400q-24 21 -24 57z" />
<glyph unicode="&#x203a;" horiz-adv-x="718" d="M97 157.5q-1 34.5 24 59.5l330 340l-330 340q-25 25 -24 59.5t26 59.5q24 24 59.5 23t59.5 -27l385 -398q24 -27 24 -57q0 -33 -24 -57l-385 -400q-25 -25 -59.5 -25t-59.5 23q-25 25 -26 59.5z" />
<glyph unicode="&#x205f;" horiz-adv-x="516" />
<glyph unicode="&#x2122;" horiz-adv-x="1687" d="M61 1401q0 25 18 43t44 18h559q25 0 42 -18t17 -43t-17 -42.5t-42 -17.5h-219v-716q0 -26 -18 -44t-44 -18t-43.5 18t-17.5 44v716h-217q-26 0 -44 17.5t-18 42.5zM809 621v794q0 25 16.5 41.5t42.5 16.5q44 0 62 -37l258 -543l260 545q17 35 57 35q26 0 43 -17.5 t17 -42.5v-792q0 -24 -17 -41t-41 -17q-25 0 -42 17.5t-17 40.5v565l-205 -436q-18 -37 -57 -37t-58 37l-204 436v-565q0 -24 -17 -41t-41 -17t-40.5 17t-16.5 41z" />
<glyph unicode="&#x25fc;" horiz-adv-x="1044" d="M0 0v1044h1044v-1044h-1044z" />
<glyph unicode="&#xfb01;" horiz-adv-x="1001" d="M33 958q0 32 22 55t54 23h57v80q0 85 14 149t46.5 117.5t94 82t150.5 28.5h55q34 0 58 -23t24 -57t-24 -58t-58 -24h-26q-92 0 -123 -48.5t-31 -178.5v-68h129q31 0 53.5 -23t22.5 -55t-22.5 -54.5t-53.5 -22.5h-129v-803q0 -37 -26.5 -63.5t-63.5 -26.5t-63.5 26.5 t-26.5 63.5v803h-57q-32 0 -54 22.5t-22 54.5zM662 1378q0 43 30.5 74t73.5 31q44 0 75 -31t31 -74q0 -44 -31 -75t-75 -31q-43 0 -73.5 31t-30.5 75zM674 78v880q0 37 26 64t62 27q38 0 64 -27t26 -64v-880q0 -37 -26 -63.5t-64 -26.5q-37 0 -62.5 26.5t-25.5 63.5z" />
<glyph unicode="&#xfb02;" horiz-adv-x="1015" d="M33 958q0 32 22 55t54 23h57v80q0 85 14 149t46.5 117.5t94 82t150.5 28.5h55q34 0 58 -23t24 -57t-24 -58t-58 -24h-26q-92 0 -123 -48.5t-31 -178.5v-68h129q31 0 53.5 -23t22.5 -55t-22.5 -54.5t-53.5 -22.5h-129v-803q0 -37 -26.5 -63.5t-63.5 -26.5t-63.5 26.5 t-26.5 63.5v803h-57q-32 0 -54 22.5t-22 54.5zM662 223v1172q0 37 26.5 63.5t63.5 26.5t63.5 -26.5t26.5 -63.5v-1141q0 -57 14.5 -82t48.5 -45q35 -18 35 -59q0 -39 -24.5 -59.5t-63.5 -20.5q-60 0 -111 45q-79 67 -79 190z" />
</font>
</defs>
</svg>
