<?xml version="1.0" standalone="no"?>
<!DOCTYPE svg PUBLIC "-//W3C//DTD SVG 1.1//EN" "http://www.w3.org/Graphics/SVG/1.1/DTD/svg11.dtd" >
<svg xmlns="http://www.w3.org/2000/svg" xmlns:xlink="http://www.w3.org/1999/xlink" version="1.1">
<metadata></metadata>
<defs>
<font id="chevinregular" horiz-adv-x="1282" >
<font-face units-per-em="2048" ascent="1638" descent="-410" />
<missing-glyph horiz-adv-x="589" />
<glyph horiz-adv-x="0" />
<glyph horiz-adv-x="682" />
<glyph unicode=" "  horiz-adv-x="589" />
<glyph unicode="&#x09;" horiz-adv-x="589" />
<glyph unicode="&#xa0;" horiz-adv-x="589" />
<glyph unicode="!" horiz-adv-x="536" d="M180 78q0 41 29.5 69.5t69.5 28.5q41 0 69.5 -28.5t28.5 -69.5q0 -40 -28.5 -69t-69.5 -29q-40 0 -69.5 29t-29.5 69zM203 1432q0 33 19.5 56t56.5 23q38 0 57.5 -23t17.5 -56l-16 -975q0 -31 -15 -49.5t-44 -18.5t-44.5 18.5t-15.5 49.5z" />
<glyph unicode="&#x22;" horiz-adv-x="671" d="M96 1434q-2 32 16.5 54.5t55.5 22.5t55.5 -22.5t16.5 -54.5l-15 -269q-3 -61 -57 -61t-57 61zM424 1434q-2 32 16.5 54.5t55.5 22.5t55 -22.5t16 -54.5l-14 -269q-3 -61 -57 -61q-55 0 -58 61z" />
<glyph unicode="#" horiz-adv-x="1540" d="M55 455q0 26 19 44.5t45 18.5h272l68 451h-252q-27 0 -45.5 17.5t-18.5 43.5t19 45t45 19h270l55 364q5 26 26.5 41.5t47.5 11.5t41 -25t12 -48l-53 -344h412l55 364q3 26 24.5 42t47.5 11t41.5 -26t11.5 -47l-51 -344h250q26 0 44.5 -19t18.5 -45t-18.5 -43.5 t-44.5 -17.5h-271l-67 -451h250q26 0 44.5 -18.5t18.5 -44.5q0 -25 -18.5 -43.5t-44.5 -18.5h-269l-55 -360q-4 -26 -26 -41t-48 -10q-25 3 -40 24t-11 47l51 340h-411l-54 -360q-4 -26 -25.5 -41t-47.5 -10q-26 3 -41.5 23.5t-12.5 47.5l52 340h-252q-26 0 -45 18.5 t-19 43.5zM518 518h412l67 451h-409z" />
<glyph unicode="$" horiz-adv-x="1173" d="M111 111q0 26 17 45.5t44 19.5q13 0 64.5 -21t115.5 -34q100 -17 189 -17q196 0 295.5 85t99.5 229q0 101 -49.5 157t-147.5 87q-40 13 -206 44.5t-236 63.5q-186 82 -186 313q0 177 106.5 289t282.5 133v154q0 25 17 42t42 17t42 -17t17 -42v-150q179 -3 304 -59 q43 -21 43 -59q0 -27 -18 -47.5t-46 -20.5q-13 0 -59.5 19t-100.5 30q-68 14 -159 14q-157 0 -246.5 -79.5t-89.5 -212.5q0 -101 52 -155.5t153 -82.5q46 -14 150 -31.5t191.5 -41t141.5 -60.5q137 -91 137 -297q0 -193 -119.5 -309t-333.5 -133v-152q0 -25 -17 -42t-42 -17 t-42 17t-17 42v150q-203 3 -348 67q-41 20 -41 62z" />
<glyph unicode="%" horiz-adv-x="1126" d="M119 1151v135q0 100 61.5 162.5t157.5 62.5q95 0 156 -62.5t61 -162.5v-135q0 -101 -61 -163t-156 -62q-96 0 -157.5 61.5t-61.5 163.5zM217 1145q0 -59 33 -94t88 -35q54 0 86.5 34.5t32.5 94.5v145q0 61 -32.5 96t-86.5 35q-55 0 -88 -35t-33 -96v-145zM254 47 l524 1434q8 19 26.5 27t37.5 1q20 -7 28 -25.5t2 -37.5l-524 -1434q-7 -20 -25.5 -28t-37.5 0q-20 6 -28.5 24t-2.5 39zM571 207v135q0 101 61.5 163t155.5 62q96 0 158 -61.5t62 -163.5v-135q0 -103 -61.5 -164t-158.5 -61q-94 0 -155.5 61.5t-61.5 163.5zM670 201 q0 -61 32.5 -95t85.5 -34q56 0 89.5 34t33.5 95v147q0 60 -33 93.5t-90 33.5q-53 0 -85.5 -34t-32.5 -93v-147z" />
<glyph unicode="&#x26;" horiz-adv-x="1263" d="M102 399q0 82 27 153t78 127t103.5 96.5t123.5 82.5q-50 65 -79.5 107.5t-57 108t-27.5 122.5q0 80 30.5 142.5t81 99t107.5 55t117 18.5q141 0 230 -51q56 -32 93.5 -80.5t37.5 -79.5q0 -27 -19.5 -46t-46.5 -19q-8 0 -15 2t-13 7.5t-9.5 9.5t-11 14l-10.5 14 q-24 32 -60 57q-75 52 -176 52q-78 0 -139 -52.5t-61 -146.5q0 -23 8.5 -50.5t18.5 -49t30.5 -52.5t32 -46.5t36.5 -48t31 -40.5l398 -522q66 124 77 309q1 28 20.5 45t45.5 17t45 -19t18 -49q-3 -100 -33 -212.5t-87 -203.5l139 -182q14 -20 14 -43q0 -26 -19.5 -45.5 t-45.5 -19.5q-32 0 -54 28l-118 156q-165 -184 -437 -184q-104 0 -187 35.5t-133.5 95t-77 133.5t-26.5 155zM231 401q0 -125 78.5 -212t220.5 -87q222 0 355 164l-375 494q-131 -71 -205 -156.5t-74 -202.5z" />
<glyph unicode="'" horiz-adv-x="350" d="M102 1434q-2 32 17 54.5t55 22.5q37 0 56.5 -22.5t17.5 -54.5l-15 -269q-3 -61 -59 -61q-54 0 -57 61z" />
<glyph unicode="(" horiz-adv-x="559" d="M98 745q0 246 58 483.5t186 430.5q19 31 53 31q28 0 47 -19t19 -45t-12 -43q-216 -337 -216 -838q0 -499 216 -839q12 -17 12 -41q0 -28 -19 -46t-47 -18q-34 0 -53 31q-128 192 -186 429t-58 484z" />
<glyph unicode=")" horiz-adv-x="559" d="M98 -135q0 18 13 41q215 339 215 839q0 502 -215 838q-13 23 -13 43q0 26 19 45t47 19q33 0 55 -31q128 -192 185 -429.5t57 -484.5q0 -551 -242 -913q-22 -31 -55 -31q-28 0 -47 18t-19 46z" />
<glyph unicode="*" horiz-adv-x="980" d="M104 1229q10 30 35 40t49 -1l252 -97l-12 271q-2 27 13.5 47t47.5 20q33 0 49.5 -20t14.5 -47l-12 -271l252 97q24 11 49 1t35 -40t-4.5 -51.5t-41.5 -28.5l-260 -72l168 -211q19 -19 17.5 -46t-27.5 -46q-29 -18 -52 -11.5t-38 30.5l-150 225l-147 -225 q-15 -24 -38 -30.5t-52 11.5q-26 19 -27.5 46t17.5 46l168 211l-260 72q-27 7 -41.5 28.5t-4.5 51.5z" />
<glyph unicode="+" horiz-adv-x="1095" d="M125 559q0 26 18.5 45t44.5 19h297v297q0 26 18.5 43.5t43.5 17.5q26 0 44.5 -17.5t18.5 -43.5v-297h297q26 0 45 -19t19 -45t-19 -44.5t-45 -18.5h-297v-297q0 -26 -18.5 -44t-44.5 -18q-25 0 -43.5 18t-18.5 44v297h-297q-26 0 -44.5 18.5t-18.5 44.5z" />
<glyph unicode="," horiz-adv-x="448" d="M111 82q0 41 29 68.5t69 27.5q45 0 72.5 -33t27.5 -86q0 -49 -19.5 -95t-47 -74t-53.5 -45t-42 -17q-14 0 -24 10t-10 25q0 13 10 24.5t22 20.5t24.5 30t16.5 50q-34 7 -54.5 33.5t-20.5 60.5z" />
<glyph unicode="-" horiz-adv-x="985" d="M154 600q0 26 18 44t43 18h555q25 0 43 -18t18 -44t-18 -44.5t-43 -18.5h-555q-25 0 -43 18.5t-18 44.5z" />
<glyph unicode="." horiz-adv-x="458" d="M123 80q0 41 29 69.5t69 28.5q41 0 69.5 -28.5t28.5 -69.5q0 -40 -28.5 -69t-69.5 -29q-40 0 -69 29t-29 69z" />
<glyph unicode="/" horiz-adv-x="630" d="M-25 -74l539 1678q7 26 31 37.5t49 3.5q25 -7 37 -31t4 -49l-539 -1678q-7 -26 -30 -37.5t-50 -3.5q-25 7 -37 31t-4 49z" />
<glyph unicode="0" horiz-adv-x="1146" d="M111 522v449q0 87 16 164.5t51.5 147t88 119.5t131 79.5t175.5 29.5t175.5 -29.5t131.5 -79.5t88.5 -119.5t51.5 -147t16 -164.5v-449q0 -110 -26.5 -204.5t-80 -171t-145 -120.5t-211.5 -44q-97 0 -175.5 29t-131 79t-88 119.5t-51.5 147.5t-16 165zM246 526 q0 -191 81 -304t246 -113q164 0 246 113.5t82 303.5v439q0 124 -34 216.5t-109 147.5t-185 55q-165 0 -246 -114t-81 -305v-439z" />
<glyph unicode="1" horiz-adv-x="1146" d="M74.5 1114q4.5 26 27.5 41l496 342q17 14 43 14q28 0 48 -19t20 -48v-1315h227q26 0 44.5 -19t18.5 -47q0 -26 -18.5 -44.5t-44.5 -18.5h-735q-27 0 -46.5 18.5t-19.5 44.5q0 27 19.5 46.5t46.5 19.5h372v1196l-399 -276q-22 -15 -48.5 -10.5t-41.5 26.5q-14 23 -9.5 49z " />
<glyph unicode="2" horiz-adv-x="1146" d="M133 66q0 230 209 419q53 48 136.5 110.5t144.5 109.5t121.5 105.5t93 127t32.5 145.5q0 133 -74.5 218t-220.5 85q-126 0 -215 -47q-32 -17 -59 -38t-41.5 -31t-30.5 -10q-26 0 -45.5 19.5t-19.5 47.5q0 27 22 49q151 135 392 135q108 0 192 -35.5t134.5 -96t76 -136 t25.5 -160.5q0 -97 -36.5 -180.5t-96 -146.5t-132 -120.5t-148 -112.5t-141 -111t-114 -129t-62.5 -154h666q26 0 45 -18.5t19 -44.5q0 -28 -19 -47t-45 -19h-743q-30 0 -48 18t-18 48z" />
<glyph unicode="3" horiz-adv-x="1146" d="M90 180q0 26 18.5 45t43.5 19q13 0 26.5 -10t39 -32t54.5 -40q99 -62 240 -62q161 0 247.5 89.5t86.5 224.5q0 286 -363 293q-65 0 -65 59q0 56 65 61q44 3 86.5 11.5t89 29t80.5 50t56 77.5t22 107q0 55 -15 103.5t-47 91.5t-91 68.5t-138 25.5q-121 0 -221 -58 q-29 -17 -52.5 -38.5t-37 -31.5t-29.5 -10q-24 0 -41.5 16.5t-17.5 43.5q0 26 25 51q60 65 156.5 106t219.5 41q90 0 162.5 -24.5t118.5 -64.5t77 -93t43.5 -107t12.5 -110q0 -249 -244 -336q135 -39 208 -127t73 -243q0 -85 -29.5 -160.5t-85.5 -135t-146 -94t-202 -34.5 q-130 0 -224.5 33.5t-178.5 117.5q-23 23 -23 47z" />
<glyph unicode="4" horiz-adv-x="1146" d="M115 371q0 12 8 32l469 1065q10 26 36 36t52 -1q25 -10 35.5 -36.5t-0.5 -51.5l-432 -981h419v334q0 28 20 47t48 19t47 -19t19 -47v-334h131q26 0 43.5 -18.5t17.5 -44.5q0 -28 -17.5 -47t-43.5 -19h-131v-258q0 -28 -19 -47.5t-47 -19.5t-48 19.5t-20 47.5v258h-524 q-27 0 -45 18.5t-18 47.5z" />
<glyph unicode="5" horiz-adv-x="1146" d="M170 133q0 27 19.5 47.5t46.5 20.5q20 0 38 -15q102 -80 250 -80q71 0 128 18.5t95 50t64 75t37.5 92.5t11.5 104q0 167 -79.5 251.5t-223.5 84.5q-102 0 -170 -51q-25 -18 -48 -41.5t-37 -34t-34 -10.5q-28 0 -46 19t-17 49l22 717q1 27 21 45t47 18h553 q28 0 46.5 -18.5t18.5 -44.5t-18.5 -45t-46.5 -19h-494l-16 -535q96 74 225 74q204 0 318 -120t114 -339q0 -72 -17 -138t-54 -126t-90.5 -104t-133 -70t-176.5 -26q-197 0 -323 96q-31 25 -31 55z" />
<glyph unicode="6" horiz-adv-x="1146" d="M129 530q0 131 42 267.5t115.5 259.5t156.5 228t182 204q20 20 47 20q30 0 49.5 -19.5t19.5 -47.5t-22 -47q-289 -286 -395 -580q118 78 249 78q89 0 167 -27.5t139.5 -81t97 -141t35.5 -199.5q0 -212 -122.5 -337t-322.5 -125q-199 0 -318.5 147.5t-119.5 400.5z M264 530q0 -212 86 -318t217 -106q143 0 226.5 89.5t83.5 246.5q0 160 -87 245t-225 85q-157 0 -289 -119q-12 -61 -12 -123z" />
<glyph unicode="7" horiz-adv-x="1146" d="M119 1430q0 26 18.5 44.5t44.5 18.5h768q28 0 46 -18.5t18 -44.5q0 -25 -8 -44l-533 -1361q-9 -26 -34 -37t-52 -2q-26 11 -37.5 36.5t-1.5 51.5l510 1292h-676q-26 0 -44.5 19t-18.5 45z" />
<glyph unicode="8" horiz-adv-x="1146" d="M92 381q0 78 25.5 140.5t76.5 109.5t104 79t130 66q-59 27 -102.5 56t-82.5 70.5t-59 98.5t-20 127q0 93 33 167t89.5 120t129.5 70t157 24q176 0 290 -99.5t114 -276.5q0 -121 -66.5 -201.5t-191.5 -143.5q61 -26 103.5 -48t90 -57.5t76 -75t47.5 -97t19 -127.5 q0 -182 -133 -291.5t-349 -109.5q-211 0 -346 105.5t-135 293.5zM227 389q0 -131 95.5 -208t248.5 -77q161 0 255 78t94 205q0 33 -7 62t-16 52t-28.5 45.5t-34.5 37.5t-45 33t-48 28t-55.5 26t-56 23t-60.5 23q-41 -17 -65 -27.5t-61 -28t-59 -31.5t-50.5 -34.5t-45 -41 t-32 -46t-22.5 -55.5t-7 -64zM297 1124q0 -47 15.5 -85.5t39 -66t62.5 -52.5t75.5 -41.5t88.5 -36.5q61 26 104 49.5t83 57t60.5 77t20.5 96.5q0 127 -75.5 197t-197.5 70q-121 0 -198.5 -69.5t-77.5 -195.5z" />
<glyph unicode="9" horiz-adv-x="1146" d="M145 1047q0 213 122.5 337.5t322.5 124.5q199 0 317.5 -146.5t118.5 -401.5q0 -130 -42 -266t-115 -259.5t-156.5 -229.5t-182.5 -204q-20 -20 -47 -20q-29 0 -48 20.5t-19 48.5q0 25 20 45q293 289 398 580q-118 -78 -250 -78q-90 0 -168.5 28t-139.5 81.5t-96 141 t-35 198.5zM281 1049q0 -160 85.5 -244t223.5 -84q157 0 291 117q10 68 10 123q0 212 -85 317.5t-218 105.5q-142 0 -224.5 -89t-82.5 -246z" />
<glyph unicode=":" horiz-adv-x="458" d="M123 80q0 41 29 69.5t69 28.5q41 0 69.5 -28.5t28.5 -69.5q0 -40 -28.5 -69t-69.5 -29q-40 0 -69 29t-29 69zM123 729q0 41 29 69.5t69 28.5q41 0 69.5 -28.5t28.5 -69.5t-28.5 -69.5t-69.5 -28.5q-40 0 -69 28.5t-29 69.5z" />
<glyph unicode=";" horiz-adv-x="450" d="M113 82q0 41 29 68.5t69 27.5q45 0 72.5 -33t27.5 -86q0 -49 -19.5 -95t-46.5 -74t-53 -45t-42 -17q-14 0 -24.5 10t-10.5 25q0 13 10 24.5t22 20.5t24.5 30t16.5 50q-34 7 -54.5 33.5t-20.5 60.5zM113 729q0 40 29 69t69 29t69 -29t29 -69t-29 -69t-69 -29t-69 29 t-29 69z" />
<glyph unicode="&#x3c;" horiz-adv-x="864" d="M125 559q0 27 25 49l497 465q19 17 43 16t41 -20t17 -43t-19 -41l-457 -426l457 -426q19 -17 19 -41t-17 -43t-41 -19t-43 17l-497 463q-25 25 -25 49z" />
<glyph unicode="=" horiz-adv-x="1189" d="M172 381q0 25 19 43t45 18h718q26 0 45 -18t19 -43q0 -26 -19 -45t-45 -19h-718q-26 0 -45 19t-19 45zM172 748q0 25 19 43t45 18h718q26 0 45 -18t19 -43q0 -26 -19 -45t-45 -19h-718q-26 0 -45 19t-19 45z" />
<glyph unicode="&#x3e;" horiz-adv-x="864" d="M116 92q0 24 19 41l455 426l-455 426q-19 17 -19 41t17 43t41 20t43 -16l498 -465q24 -21 24 -49q0 -25 -24 -49l-498 -463q-19 -17 -43 -17t-41 19t-17 43z" />
<glyph unicode="?" horiz-adv-x="999" d="M90 1329q0 37 72 90q123 92 317 92q55 0 110 -13.5t108 -44t93.5 -75t65.5 -110.5t25 -146q0 -69 -15 -122.5t-51 -101t-70 -79t-98 -84.5q-103 -84 -132.5 -143t-29.5 -135q0 -29 -18 -46.5t-45 -17.5t-45.5 18t-18.5 48q0 102 36 179.5t151 170.5q62 51 91.5 77.5 t59 64t39.5 75t10 88.5q0 69 -24.5 123.5t-65 86.5t-87.5 48.5t-97 16.5q-93 0 -157.5 -26.5t-118.5 -80.5q-16 -16 -39 -16q-28 0 -47 18.5t-19 44.5zM326 80q0 41 29 69.5t69 28.5q41 0 69.5 -28.5t28.5 -69.5q0 -40 -28.5 -69t-69.5 -29q-40 0 -69 29t-29 69z" />
<glyph unicode="@" horiz-adv-x="1701" d="M139 623q0 113 28.5 223t88 210.5t144 176.5t204.5 121t260 45q151 0 271.5 -35.5t199 -94t130.5 -138.5t74 -165t22 -178q0 -123 -45.5 -230t-131 -174t-192.5 -67q-152 0 -199 146q-103 -141 -262 -141q-105 0 -158 75.5t-53 184.5q0 61 16 123.5t48 120.5t76 103 t105 72t130 27q111 0 221 -37q22 -7 30.5 -25.5t2.5 -41.5l-43 -193q-23 -124 -23 -164q0 -149 113 -149q109 0 185.5 108t76.5 260q0 79 -18 150.5t-61 139t-109 116.5t-169.5 78.5t-234.5 29.5q-122 0 -225.5 -40t-175 -106.5t-122 -154t-74 -182.5t-23.5 -192 q0 -98 18.5 -182t61 -159t107 -128t162 -84t220.5 -31q114 0 207 22q16 3 33.5 7.5t27.5 7t17 2.5q24 0 36.5 -14.5t12.5 -36.5q0 -41 -47 -52q-144 -36 -287 -36q-141 0 -255.5 36t-191.5 98.5t-129.5 150t-76 186.5t-23.5 211zM633 584q0 -71 29 -110.5t81 -39.5 q93 0 158 72.5t88 179.5l47 217q-74 23 -143 23q-74 0 -135.5 -53t-93 -130.5t-31.5 -158.5z" />
<glyph unicode="A" horiz-adv-x="1148" d="M33 66q179 690 456 1368q19 46 39 61.5t47 15.5q25 0 46 -16t41 -61q284 -705 454 -1368q10 -36 -11.5 -60t-53.5 -24q-51 0 -66 51q-45 180 -92 334h-639q-59 -193 -94 -334q-6 -25 -23 -38t-39 -13q-30 0 -52 24q-15 17 -16 40q0 9 3 20zM291 494h565 q-119 379 -283 794q-161 -400 -282 -794z" />
<glyph unicode="B" horiz-adv-x="1280" d="M174 68v1357q0 28 20 48t48 20h420q216 0 323 -101t107 -264v-63q0 -216 -203 -297q124 -36 195 -121t71 -211v-55q0 -181 -106.5 -281t-348.5 -100h-458q-28 0 -48 20t-20 48zM309 127h391q93 0 157.5 18.5t99 55t49 82t14.5 106.5v51q0 121 -94.5 187.5t-261.5 66.5 h-355v-567zM309 817h242q198 0 301.5 55t103.5 185v61q0 112 -71.5 179t-225.5 67h-350v-547z" />
<glyph unicode="C" horiz-adv-x="1126" d="M139 623v247q0 142 29.5 256t90 201.5t163 135.5t240.5 48q231 0 354 -139q22 -28 22 -49q0 -24 -16.5 -43t-46.5 -20q-10 0 -20 4.5t-16 9.5t-18 16t-20 17q-88 79 -239 79q-388 0 -388 -518v-245q0 -265 89 -391t286 -126q151 0 256 84q8 7 21 18.5t19 16t16 9t20 4.5 q28 1 44.5 -18t16.5 -44q0 -24 -22 -49q-71 -76 -169.5 -110.5t-201.5 -34.5q-510 0 -510 641z" />
<glyph unicode="D" horiz-adv-x="1312" d="M174 68v1357q0 28 20 48t48 20h405q131 0 229.5 -37.5t154 -93.5t89 -134.5t44 -147t10.5 -144.5v-383q0 -52 -5 -100t-20 -105t-38.5 -105t-64.5 -94t-94.5 -78t-131.5 -51.5t-173 -19.5h-405q-28 0 -48 20t-20 48zM309 127h334q98 0 171 26.5t115 67t67.5 99.5 t33.5 114t8 121v379q0 67 -8.5 122.5t-34 114.5t-67.5 99t-114.5 66t-170.5 26h-334v-1235z" />
<glyph unicode="E" horiz-adv-x="1122" d="M174 66v1361q0 26 20 46t46 20h706q26 0 45 -20t19 -46q0 -27 -19 -46t-45 -19h-637v-553h580q26 0 44.5 -19t18.5 -45t-18.5 -44.5t-44.5 -18.5h-580v-553h668q26 0 44.5 -18.5t18.5 -44.5q0 -28 -18.5 -47t-44.5 -19h-737q-27 0 -46.5 19.5t-19.5 46.5z" />
<glyph unicode="F" horiz-adv-x="1050" d="M174 49v1378q0 26 20 46t46 20h688q27 0 46 -19.5t19 -46.5q0 -28 -18.5 -46.5t-46.5 -18.5h-619v-553h520q26 0 45 -19t19 -45t-19 -44.5t-45 -18.5h-520v-633q0 -28 -19 -47.5t-48 -19.5q-28 0 -48 19.5t-20 47.5z" />
<glyph unicode="G" horiz-adv-x="1245" d="M139 623v247q0 142 29.5 256.5t90.5 202t163.5 135t241.5 47.5q236 0 356 -141q22 -19 22 -47q0 -25 -17 -43.5t-48 -19.5q-10 0 -19.5 4.5t-15.5 9t-18.5 16t-20.5 17.5q-90 79 -239 79q-390 0 -390 -518v-245q0 -265 89.5 -391t285.5 -126q172 0 257 98.5t85 282.5v131 h-299q-26 0 -44.5 19t-18.5 45t18.5 44.5t44.5 18.5h365q29 0 47 -19t18 -48v-189q0 -233 -118.5 -370t-352.5 -137q-512 0 -512 641z" />
<glyph unicode="H" horiz-adv-x="1370" d="M174 49v1395q0 28 20 47.5t48 19.5q29 0 48 -19.5t19 -47.5v-647h750v647q0 28 19.5 47.5t47.5 19.5q29 0 48.5 -19.5t19.5 -47.5v-1395q0 -28 -19.5 -47.5t-48.5 -19.5q-28 0 -47.5 19.5t-19.5 47.5v621h-750v-621q0 -28 -19 -47.5t-48 -19.5q-28 0 -48 19.5t-20 47.5z " />
<glyph unicode="I" horiz-adv-x="485" d="M174 49v1395q0 28 20 47.5t48 19.5q29 0 48 -19.5t19 -47.5v-1395q0 -28 -19 -47.5t-48 -19.5q-28 0 -48 19.5t-20 47.5z" />
<glyph unicode="J" horiz-adv-x="870" d="M10 63q0 28 17 47t47 19q6 0 67 -12q47 -6 99 -6q185 0 263.5 95.5t78.5 313.5v924q0 28 19.5 47.5t47.5 19.5t48 -19.5t20 -47.5v-924q0 -264 -113.5 -401t-363.5 -137q-94 0 -177 18q-53 11 -53 63z" />
<glyph unicode="K" horiz-adv-x="1136" d="M174 49v1395q0 28 20 47.5t48 19.5q29 0 48 -19.5t19 -47.5v-744l639 787q18 24 51 24q22 0 41 -16q22 -17 25 -44.5t-14 -49.5l-463 -553q284 -393 499 -766q11 -18 11 -35t-12 -33q-23 -32 -60 -32q-38 0 -57 36q-217 375 -469 727l-191 -229v-467q0 -28 -19 -47.5 t-48 -19.5q-28 0 -48 19.5t-20 47.5z" />
<glyph unicode="L" horiz-adv-x="1052" d="M174 66v1378q0 28 20 47.5t48 19.5q29 0 48 -19.5t19 -47.5v-1315h666q26 0 45.5 -18.5t19.5 -44.5q0 -28 -19 -47t-46 -19h-735q-27 0 -46.5 19.5t-19.5 46.5z" />
<glyph unicode="M" horiz-adv-x="1587" d="M174 45v1403q0 26 19.5 44.5t48.5 18.5q47 0 65 -41l488 -1036l489 1039q16 38 62 38q29 0 47 -18t18 -45v-1403q0 -26 -18.5 -44.5t-44.5 -18.5t-45 18.5t-19 44.5v1159l-430 -919q-17 -39 -63 -39q-43 0 -62 39l-428 917v-1157q0 -26 -18.5 -44.5t-44.5 -18.5t-45 18.5 t-19 44.5z" />
<glyph unicode="N" horiz-adv-x="1363" d="M174 45v1403q0 27 19 45t49 18q43 0 67 -38l754 -1217v1192q0 26 18.5 44.5t44.5 18.5t45 -18.5t19 -44.5v-1403q0 -26 -19 -44.5t-49 -18.5q-46 0 -65 34l-756 1219v-1190q0 -26 -18.5 -44.5t-44.5 -18.5t-45 18.5t-19 44.5z" />
<glyph unicode="O" d="M139 535v423q0 87 15.5 165t53 150t93.5 124t143 83t197 31q109 0 195.5 -31t142.5 -83t93.5 -124t53 -150t15.5 -165v-423q0 -86 -15.5 -163.5t-53 -150t-93.5 -124.5t-142.5 -83.5t-195.5 -31.5t-196.5 31.5t-143.5 83.5t-93.5 124.5t-53 150t-15.5 163.5zM274 535 q0 -91 19.5 -166t61 -135.5t114.5 -94t172 -33.5q79 0 142 22.5t104.5 61t68.5 94t38.5 117.5t11.5 134v423q0 91 -19.5 165.5t-60.5 135t-113.5 94t-171.5 33.5q-100 0 -172.5 -33t-114 -93t-61 -135t-19.5 -167v-423z" />
<glyph unicode="P" horiz-adv-x="1198" d="M174 49v1376q0 28 20 48t48 20h395q125 0 219.5 -34.5t147.5 -92.5t78.5 -125.5t25.5 -142.5v-103q0 -172 -120 -278.5t-329 -106.5h-350v-561q0 -28 -19 -47.5t-48 -19.5q-28 0 -48 19.5t-20 47.5zM309 735h346q156 0 237 74.5t81 187.5v101q0 49 -16.5 93t-53 84.5 t-106.5 64.5t-166 24h-322v-629z" />
<glyph unicode="Q" d="M139 535v423q0 87 15.5 165t53 150t93.5 124t143 83t197 31q109 0 195.5 -31t142.5 -83t93.5 -124t53 -150t15.5 -165v-423q0 -226 -101 -369l136 -119q22 -19 22 -43.5t-18 -44.5t-42 -22t-48 18l-134 123q-124 -96 -315 -96q-109 0 -196.5 31.5t-143.5 83.5 t-93.5 124.5t-53 150t-15.5 163.5zM274 535q0 -92 19.5 -167t61 -135.5t114 -93.5t172.5 -33q132 0 219 62l-84 76q-21 20 -22.5 45t16.5 43q17 19 40.5 19t45.5 -19l86 -76q64 108 64 279v423q0 91 -19.5 165.5t-60.5 135t-113.5 94t-171.5 33.5q-100 0 -172.5 -33 t-114 -93t-61 -135t-19.5 -167v-423z" />
<glyph unicode="R" horiz-adv-x="1224" d="M174 49v1376q0 28 20 48t48 20h393q123 0 216 -30t148 -83.5t82 -119.5t27 -144v-92q0 -63 -19.5 -121t-58.5 -109t-103.5 -88t-148.5 -53q212 -333 336 -573q9 -17 9 -33q-1 -19 -13 -35q-22 -30 -59 -30q-40 0 -58 38q-145 281 -362 615h-322v-586q0 -28 -19 -47.5 t-48 -19.5q-28 0 -48 19.5t-20 47.5zM309 760h326q90 0 158 23.5t105.5 63t56 84t18.5 93.5v92q0 48 -17.5 90.5t-54.5 79.5t-106 58.5t-162 21.5h-324v-606z" />
<glyph unicode="S" horiz-adv-x="1173" d="M111 111q0 27 17 47t44 20q13 0 64.5 -21t115.5 -34q89 -19 189 -19q195 0 295 86t100 230q0 101 -49.5 156t-149.5 86q-40 13 -205 44.5t-235 63.5q-90 41 -138 115.5t-48 199.5q0 196 129 311t335 115t347 -61q43 -21 43 -59q0 -27 -18 -47.5t-46 -20.5q-13 0 -59.5 19 t-100.5 30q-72 14 -159 14q-157 0 -246.5 -79.5t-89.5 -212.5q0 -101 51.5 -154.5t153.5 -83.5q47 -14 151 -31.5t190 -40.5t140 -59q139 -93 139 -297q0 -210 -140 -328t-384 -118q-239 0 -395 69q-41 17 -41 60z" />
<glyph unicode="T" horiz-adv-x="1142" d="M14 1427q0 27 19.5 46.5t46.5 19.5h983q27 0 46 -19.5t19 -46.5q0 -28 -18.5 -46.5t-46.5 -18.5h-424v-1313q0 -28 -20 -47.5t-48 -19.5t-47.5 19.5t-19.5 47.5v1313h-424q-28 0 -47 18.5t-19 46.5z" />
<glyph unicode="U" d="M139 485v959q0 28 20 47.5t48 19.5t47.5 -19.5t19.5 -47.5v-957q0 -171 90.5 -277t276.5 -106q185 0 275 106t90 277v957q0 28 19.5 47.5t47.5 19.5q29 0 48.5 -19.5t19.5 -47.5v-959q0 -106 -30.5 -195.5t-90 -159t-157 -109t-222.5 -39.5q-126 0 -224 39.5t-157.5 109 t-90 159t-30.5 195.5z" />
<glyph unicode="V" horiz-adv-x="1150" d="M33 1423q-4 12 -4 23q0 22 15 40q22 26 54 25q49 0 64 -49q183 -622 416 -1255q246 671 421 1259q12 45 58 45q30 0 50.5 -23t10.5 -56q-168 -571 -469 -1385q-22 -65 -76 -65q-57 0 -79 65q-290 788 -461 1376z" />
<glyph unicode="W" horiz-adv-x="1759" d="M39 1448q0 28 21 45.5t49 17.5q52 0 63 -53q141 -625 317 -1241q167 602 308 1215q16 79 84 79q63 0 82 -79q141 -626 307 -1215q187 667 317 1241q6 26 23.5 39.5t40.5 13.5q28 0 48.5 -17.5t20.5 -45.5q0 -3 -1 -9t-1 -9q-146 -636 -356 -1371q-24 -77 -88 -77 q-65 0 -88 77q-165 577 -307 1174q-121 -520 -308 -1174q-20 -77 -86 -77q-64 0 -88 77q-210 735 -356 1371q-2 6 -2 18z" />
<glyph unicode="X" horiz-adv-x="1103" d="M14 47q0 19 11 35q188 324 448 696q-213 311 -391 633q-8 16 -8 35q0 27 20 46t47 19q39 0 58 -36q163 -303 354 -580q179 263 354 580q17 36 56 36q28 0 48.5 -19t20.5 -46q0 -19 -8 -35q-178 -322 -391 -633q272 -392 448 -696q11 -22 11 -35q0 -27 -21.5 -46 t-48.5 -19q-36 0 -55 32q-175 301 -414 648q-236 -343 -414 -646q-19 -34 -55 -34q-27 0 -48.5 19t-21.5 46z" />
<glyph unicode="Y" horiz-adv-x="1007" d="M0 1446q0 27 21.5 46t48.5 19q42 0 59 -41q137 -321 375 -772q230 429 377 772q17 41 57 41q28 0 49 -18.5t21 -46.5q0 -13 -7 -27q-161 -377 -432 -874v-496q0 -28 -19 -47.5t-48 -19.5q-28 0 -48 19.5t-20 47.5v496q-279 524 -428 872q-6 15 -6 29z" />
<glyph unicode="Z" horiz-adv-x="1024" d="M31 66q0 25 20 61l752 1235h-705q-26 0 -44.5 18.5t-18.5 46.5q0 27 18.5 46.5t44.5 19.5h824q30 0 46.5 -18.5t16.5 -47.5q0 -23 -20 -55l-756 -1243h715q26 0 44.5 -18.5t18.5 -44.5q0 -28 -18.5 -47t-44.5 -19h-828q-29 0 -47 19t-18 47z" />
<glyph unicode="[" horiz-adv-x="505" d="M102 -133v1753q0 28 19 47t47 19h178q28 0 47 -19t19 -47q0 -26 -19 -45t-47 -19h-108v-1624h108q28 0 47 -19t19 -46q0 -28 -19 -47t-47 -19h-178q-28 0 -47 19t-19 47z" />
<glyph unicode="\" horiz-adv-x="722" d="M-4 1546q-9 25 1.5 49t35.5 33t49 -1.5t33 -35.5l620 -1634q9 -25 -1.5 -49t-35.5 -33q-23 -9 -47 1.5t-33 35.5z" />
<glyph unicode="]" horiz-adv-x="505" d="M94 -133q0 27 19 46t47 19h108v1624h-108q-28 0 -47 19t-19 45q0 28 19 47t47 19h178q28 0 46.5 -19t18.5 -47v-1753q0 -28 -18.5 -47t-46.5 -19h-178q-28 0 -47 19t-19 47z" />
<glyph unicode="^" horiz-adv-x="1001" d="M95.5 894.5q-5.5 25.5 8.5 47.5l330 524q24 43 68 43q40 0 65 -43l330 -524q14 -22 9 -47.5t-27 -38.5q-22 -15 -48.5 -10t-39.5 28l-289 463l-291 -463q-13 -23 -39 -28t-49 10q-22 13 -27.5 38.5z" />
<glyph unicode="_" horiz-adv-x="950" d="M-61 -272q0 25 18 43t43 18h950q25 0 42.5 -18t17.5 -43t-17.5 -42.5t-42.5 -17.5h-950q-25 0 -43 17.5t-18 42.5z" />
<glyph unicode="`" horiz-adv-x="1085" d="M396 1596.5q6 26.5 30 37.5q27 14 51 6t35 -30l172 -310q12 -22 5.5 -42t-27.5 -31q-20 -11 -42 -4.5t-34 26.5l-183 303q-13 18 -7 44.5z" />
<glyph unicode="a" horiz-adv-x="1001" d="M78 281v16q0 129 89 209t275 80h256v55q0 74 -9.5 122.5t-35 85t-72.5 53t-120 16.5q-125 0 -221 -56q-28 -15 -49 -6.5t-34 26t-8 42t29 39.5q112 69 287 69q107 0 179.5 -26t112 -80t56 -123.5t16.5 -169.5v-402q0 -64 13 -91.5t47 -43.5q33 -14 33 -49 q0 -28 -18 -43.5t-46 -15.5q-55 0 -98 43q-27 25 -41 71q-90 -114 -289 -114q-181 0 -266.5 82t-85.5 211zM209 279q0 -181 237 -181q122 0 187 61.5t65 182.5v135h-247q-242 0 -242 -180v-18z" />
<glyph unicode="b" horiz-adv-x="1040" d="M80 47q0 38 33 49q35 15 47 42t12 93v1186q0 28 19 47t47 19t46.5 -19t18.5 -47v-489q116 104 272 104q97 0 166 -31t109 -89.5t58 -134t18 -173.5v-207q0 -195 -91.5 -302t-281.5 -107q-157 0 -277 90q-13 -29 -34 -47q-46 -43 -97 -43q-28 0 -46.5 15.5t-18.5 43.5z M303 197q105 -91 238 -91q132 0 193 71t61 214v225q0 148 -55.5 222.5t-182.5 74.5q-67 0 -135.5 -31.5t-118.5 -93.5v-591z" />
<glyph unicode="c" horiz-adv-x="849" d="M115 436v144q0 125 42 225.5t133 163.5t218 63q148 0 250 -59q23 -13 28.5 -36t-6.5 -44q-11 -21 -32 -27.5t-46 4.5q-82 43 -188 43q-128 0 -199 -89t-71 -238v-152q0 -158 67.5 -244t200.5 -86q104 0 195 46q27 13 47.5 5.5t29.5 -30.5q11 -21 5 -43.5t-29 -34.5 q-110 -59 -254 -59q-196 0 -293.5 121.5t-97.5 326.5z" />
<glyph unicode="d" horiz-adv-x="1040" d="M115 389v197q0 101 19.5 180t61.5 140t113 93.5t168 32.5q145 0 260 -90v475q0 28 19 47t45 19q28 0 46.5 -19t18.5 -47v-1186q0 -66 12.5 -93t47.5 -42q32 -11 32 -49q0 -28 -18 -43.5t-45 -15.5q-52 0 -98 43q-24 21 -37 53q-122 -96 -275 -96q-195 0 -282.5 101.5 t-87.5 299.5zM244 385q0 -142 59.5 -210.5t196.5 -68.5q124 0 237 99v600q-54 56 -119.5 82t-123.5 26q-250 0 -250 -315v-213z" />
<glyph unicode="e" horiz-adv-x="989" d="M115 414v190q0 90 21.5 165t66 135t121.5 94t180 34q105 0 182.5 -33.5t121 -93.5t63.5 -133.5t20 -163.5v-84q0 -25 -15 -40t-38 -15h-594v-61q0 -143 64.5 -223.5t197.5 -80.5q155 0 270 66q24 13 45.5 4.5t30.5 -31.5q7 -16 7 -29q0 -28 -30 -46q-134 -80 -325 -80 q-103 0 -180 34t-121.5 94t-66 134.5t-21.5 163.5zM244 580h520v41q0 144 -60 220.5t-200 76.5q-134 0 -197 -79t-63 -221v-38z" />
<glyph unicode="f" horiz-adv-x="589" d="M37 961q0 25 17 42t42 17h72v57q0 80 9 139.5t33 113t63.5 87t103 53t149.5 19.5h62q26 0 43.5 -18.5t17.5 -43.5q0 -26 -17.5 -43.5t-43.5 -17.5h-53q-75 0 -121.5 -15.5t-72.5 -53t-35 -88t-9 -132.5v-57h190q25 0 42.5 -17t17.5 -42t-17.5 -42.5t-42.5 -17.5h-190 v-848q0 -27 -18.5 -46t-45.5 -19q-28 0 -46.5 18.5t-18.5 46.5v848h-72q-25 0 -42 17.5t-17 42.5z" />
<glyph unicode="g" horiz-adv-x="1017" d="M115 444v164q0 198 85.5 311t272.5 113q145 0 264 -100v35q0 27 19.5 46t46.5 19q29 0 47 -18.5t18 -46.5v-899q0 -95 -20 -172t-64 -139.5t-122 -97t-185 -34.5q-162 0 -276 51q-39 16 -39 54q0 28 22.5 47t51.5 10q47 -15 68 -21.5t70 -15t97 -8.5q144 0 205 82.5 t61 238.5v60q-61 -44 -134.5 -67t-135.5 -23q-189 0 -270.5 106.5t-81.5 304.5zM244 436q0 -143 55.5 -212.5t183.5 -69.5q58 0 130 24.5t124 73.5v543q-54 63 -121.5 89.5t-128.5 26.5q-126 0 -184.5 -74t-58.5 -219v-182z" />
<glyph unicode="h" horiz-adv-x="1062" d="M150 53v1364q0 28 18.5 47t46.5 19q27 0 46.5 -19.5t19.5 -46.5v-499q108 114 305 114q94 0 160.5 -28t102 -80t51 -115t15.5 -145v-611q0 -28 -18.5 -46.5t-44.5 -18.5q-28 0 -47 18.5t-19 46.5v602q0 125 -47.5 188.5t-171.5 63.5q-101 0 -173.5 -40.5t-112.5 -112.5 v-701q0 -27 -19.5 -46t-46.5 -19q-28 0 -46.5 18.5t-18.5 46.5z" />
<glyph unicode="i" horiz-adv-x="430" d="M135 1374q0 33 23.5 56.5t56.5 23.5q32 0 56 -24t24 -56q0 -33 -23.5 -56.5t-56.5 -23.5q-34 0 -57 23t-23 57zM150 53v914q0 27 19 46t46 19q26 0 46 -19.5t20 -45.5v-914q0 -27 -19.5 -46t-46.5 -19q-28 0 -46.5 18.5t-18.5 46.5z" />
<glyph unicode="j" horiz-adv-x="430" d="M-88 -315q0 24 16 41t43 18q93 2 136 52t43 181v990q0 27 19 46t46 19t46.5 -19t19.5 -46v-985q0 -181 -76.5 -269t-233.5 -88q-28 0 -43.5 17.5t-15.5 42.5zM135 1374q0 33 23.5 56.5t56.5 23.5q32 0 56 -24t24 -56q0 -33 -23.5 -56.5t-56.5 -23.5q-34 0 -57 23t-23 57z " />
<glyph unicode="k" horiz-adv-x="915" d="M150 53v1364q0 28 18.5 47t46.5 19q27 0 46.5 -19.5t19.5 -46.5v-887l473 484q17 19 41 19t43 -19q17 -17 17 -41t-17 -43l-308 -312q221 -294 347 -540q8 -16 8 -30q-1 -18 -13 -32q-22 -28 -57 -28q-36 0 -55 37q-123 237 -322 503l-157 -161v-314q0 -27 -19.5 -46 t-46.5 -19q-28 0 -46.5 18.5t-18.5 46.5z" />
<glyph unicode="l" horiz-adv-x="452" d="M143 197v1220q0 28 19 47t47 19q26 0 44.5 -19t18.5 -47v-1186q0 -64 15.5 -91.5t52.5 -43.5q33 -11 33 -49q0 -28 -18 -43.5t-46 -15.5q-54 0 -100 43q-66 60 -66 166z" />
<glyph unicode="m" horiz-adv-x="1679" d="M80 958q0 29 18.5 45.5t46.5 16.5q21 0 49.5 -12t49.5 -31q31 -28 43 -66q111 121 311 121q209 0 279 -147q112 147 331 147q92 0 157 -27.5t100.5 -79.5t51 -115.5t15.5 -145.5v-611q0 -28 -19 -46.5t-47 -18.5t-46.5 18.5t-18.5 46.5v602q0 125 -46 188.5t-165 63.5 q-101 0 -170 -41.5t-105 -113.5q7 -51 7 -88v-611q0 -27 -19.5 -46t-46.5 -19q-28 0 -46.5 18.5t-18.5 46.5v602q0 125 -46 188.5t-165 63.5q-189 0 -269 -139v-715q0 -27 -19 -46t-46 -19q-28 0 -47 18.5t-19 46.5v723q0 62 -15.5 89.5t-51.5 43.5q-33 14 -33 49z" />
<glyph unicode="n" horiz-adv-x="1093" d="M80 958q0 29 18.5 45.5t46.5 16.5q21 0 49.5 -12t49.5 -31q34 -31 47 -76q112 131 325 131q94 0 160.5 -28t102.5 -80t51.5 -115t15.5 -145v-611q0 -28 -18.5 -46.5t-46.5 -18.5q-27 0 -46.5 19t-19.5 46v602v10q1 117 -45 178q-48 64 -172 64q-101 0 -174 -40.5 t-113 -112.5v-701q0 -27 -19 -46t-46 -19q-28 0 -47 18.5t-19 46.5v723q0 62 -15.5 89.5t-51.5 43.5q-33 14 -33 49z" />
<glyph unicode="o" horiz-adv-x="1024" d="M115 406v208q0 89 22.5 162.5t68.5 132t124 91t182 32.5t182 -32.5t124 -91t68.5 -132t22.5 -162.5v-208q0 -89 -22.5 -162.5t-68.5 -132t-124 -91t-182 -32.5t-182 32.5t-124 91t-68.5 132t-22.5 162.5zM244 406q0 -295 268 -295q137 0 201.5 77.5t64.5 217.5v208 q0 138 -64.5 215.5t-201.5 77.5q-268 0 -268 -293v-208z" />
<glyph unicode="p" horiz-adv-x="1040" d="M80 971q0 29 18.5 45t46.5 16q51 0 97 -43q22 -19 39 -53q128 96 274 96q194 0 282.5 -102.5t88.5 -300.5v-195q0 -101 -20 -180t-62.5 -140t-114 -93.5t-168.5 -32.5q-141 0 -258 88v-385q0 -28 -18.5 -47t-46.5 -19t-47 19t-19 47v1097q0 65 -12.5 92t-46.5 42 q-33 14 -33 49zM303 215q52 -58 118 -83.5t126 -25.5q248 0 248 314v215q0 142 -58.5 210t-195.5 68q-123 0 -238 -98v-600z" />
<glyph unicode="q" horiz-adv-x="1040" d="M115 416v207q0 195 91 302t281 107q151 0 275 -90q10 22 35 47q46 43 98 43q28 0 45.5 -15.5t17.5 -45.5q0 -35 -32 -49q-35 -15 -47.5 -42.5t-12.5 -91.5v-1097q0 -28 -18.5 -47t-46.5 -19q-26 0 -45 19t-19 47v401q-116 -104 -272 -104q-97 0 -166 30.5t-108.5 89 t-57.5 134t-18 174.5zM244 403q0 -149 56 -223t183 -74q66 0 134.5 31.5t119.5 93.5v592q-107 90 -237 90q-132 0 -194 -71.5t-62 -212.5v-226z" />
<glyph unicode="r" horiz-adv-x="763" d="M80 958q0 28 17.5 45t47.5 17q2 0 9 -1t10 -1q103 -26 133 -131q96 145 283 145q81 0 139 -20q25 -10 33.5 -35.5t-2.5 -48.5q-18 -40 -55 -40q-10 0 -21 3q-54 14 -111 14q-212 0 -252 -219v-633q0 -27 -19 -46t-46 -19q-28 0 -47 18.5t-19 46.5v723q0 62 -15.5 89.5 t-51.5 43.5q-33 14 -33 49z" />
<glyph unicode="s" horiz-adv-x="864" d="M85 66q-9 24 1 45q8 23 29.5 33t46.5 1q103 -41 246 -41q124 0 183.5 49.5t59.5 135.5q0 26 -7.5 47.5t-17 36.5t-30.5 28.5t-35.5 21t-46 16t-47 12t-54 11.5t-53.5 11q-49 10 -83 20t-73 30.5t-62.5 47t-39.5 69.5t-16 99q0 135 94 214t240 79q150 0 254 -45 q27 -10 36 -33.5t-1 -44.5q-9 -22 -30.5 -31.5t-45.5 -0.5q-93 38 -209 38q-102 0 -157.5 -47.5t-55.5 -124.5q0 -43 18.5 -72.5t56.5 -47.5t74 -27.5t93 -20.5l7.5 -1.5t7 -1t7.5 -1.5q38 -7 63.5 -13.5t60 -18t58 -24.5t48.5 -34t39.5 -46.5t24 -61.5t9.5 -80 q0 -147 -100 -226t-272 -79q-171 0 -287 45q-25 9 -34 33z" />
<glyph unicode="t" horiz-adv-x="645" d="M41 961q0 25 17 42t42 17h72v246q0 28 19 46.5t47 18.5t46.5 -18.5t18.5 -46.5v-246h205q25 0 42 -17t17 -42t-17 -42.5t-42 -17.5h-205v-473q0 -89 8 -143t31.5 -92.5t65 -54t108.5 -15.5h45q25 0 43.5 -18.5t18.5 -43.5q0 -26 -18.5 -43.5t-43.5 -17.5h-53 q-82 0 -142 20.5t-97 55.5t-59 90.5t-30 117t-8 144.5v473h-72q-25 0 -42 17.5t-17 42.5z" />
<glyph unicode="u" horiz-adv-x="1095" d="M147 354v613q0 26 20 45.5t46 19.5q27 0 46.5 -19t19.5 -46v-602q0 -126 47 -188t172 -62q210 0 286 161v691q0 27 19 46t47 19q27 0 46 -19t19 -46v-736q0 -64 15 -91.5t51 -43.5q33 -11 33 -49q0 -28 -18 -43.5t-46 -15.5q-51 0 -100 43q-34 34 -47 84 q-114 -127 -324 -127q-332 0 -332 366z" />
<glyph unicode="v" horiz-adv-x="913" d="M45 950q-10 35 11 58.5t53 23.5q43 0 55 -45q135 -411 289 -817q157 406 292 817q15 45 60 45q32 0 53 -24.5t10 -59.5q-151 -456 -331 -895q-25 -65 -84 -65q-31 0 -51.5 14t-34.5 51q-176 446 -322 897z" />
<glyph unicode="w" horiz-adv-x="1427" d="M51 956q-9 32 11.5 54t50.5 22q45 0 59 -47q107 -395 234 -801q115 360 233 789q13 59 76 59q60 0 73 -59q112 -405 234 -789q92 287 235 801q11 47 60 47q29 0 49 -22t12 -54q-121 -446 -272 -911q-17 -57 -80 -57q-62 0 -80 57q-106 330 -231 764q-109 -379 -234 -764 q-18 -57 -80 -57t-79 57q-162 496 -271 911z" />
<glyph unicode="x" horiz-adv-x="899" d="M63 78q39 74 97 160.5t95.5 137t113.5 148.5q-66 86 -102.5 136t-88 129t-86.5 149q-9 16 -9 31q0 18 13 34q23 29 58 29q37 0 57 -39q76 -143 240 -362q164 218 241 364q18 37 56 37q34 0 56 -28q12 -15 11 -32q0 -14 -8 -30q-86 -166 -279 -414q71 -90 114.5 -147 t99 -140.5t94.5 -158.5q9 -16 9 -31q-1 -18 -13 -34q-22 -29 -58 -29q-38 0 -57 37q-78 150 -268 399q-197 -258 -273 -401q-17 -35 -53 -35q-35 0 -57 28q-12 15 -12 31q0 15 9 31z" />
<glyph unicode="y" horiz-adv-x="907" d="M16 -309q0 25 16.5 43t45.5 18q100 3 173.5 55.5t139.5 184.5q-240 602 -354 958q-11 35 10 58.5t53 23.5q43 0 58 -45q118 -366 301 -829l284 829q17 45 60 45q33 0 53 -26q14 -17 14 -38q0 -11 -4 -24l-282 -805q-94 -270 -207.5 -390t-292.5 -124q-32 -1 -50 18.5 t-18 47.5z" />
<glyph unicode="z" horiz-adv-x="847" d="M43 66q0 21 12 36l572 795h-486q-25 0 -42 18t-17 43t17.5 43.5t41.5 18.5h604q25 0 43.5 -17t18.5 -45q0 -26 -16 -47l-570 -790h524q26 0 44 -17.5t18 -42.5q0 -26 -18 -43.5t-44 -17.5h-641q-25 0 -43 19t-18 47z" />
<glyph unicode="{" horiz-adv-x="579" d="M61 745q0 24 15.5 41t42.5 17h12q41 0 79 39.5t38 126.5q0 65 -42 204t-42 211q0 132 71 218t185 86h12q30 0 48 -19.5t18 -46.5q-2 -26 -19 -43.5t-45 -17.5h-10q-54 0 -89.5 -47.5t-35.5 -133.5q0 -68 40 -202.5t40 -206.5q0 -157 -119 -223v-7q119 -63 119 -221 q0 -72 -40 -207t-40 -204q0 -84 35.5 -131.5t89.5 -47.5h10q28 0 45 -18.5t19 -44.5q0 -26 -18 -45t-48 -19h-12q-114 0 -185 84.5t-71 216.5q0 73 42 213t42 205q0 87 -38 126.5t-79 39.5h-12q-27 0 -42.5 16.5t-15.5 40.5z" />
<glyph unicode="|" horiz-adv-x="438" d="M152 -129v1751q0 28 19.5 48t47.5 20t48 -20t20 -48v-1751q0 -29 -20 -48.5t-48 -19.5t-47.5 19.5t-19.5 48.5z" />
<glyph unicode="}" horiz-adv-x="579" d="M82 -133q0 26 16.5 44.5t44.5 18.5h11q54 0 90.5 47.5t36.5 131.5q0 69 -40 204t-40 207q0 158 116 221v7q-116 66 -116 223q0 72 40 206.5t40 202.5q0 85 -36.5 133t-90.5 48h-11q-28 0 -44.5 17.5t-16.5 43.5q0 27 17.5 46.5t45.5 19.5h15q114 0 184 -86t70 -218 q0 -72 -41 -211t-41 -204q0 -88 37.5 -127t79.5 -39h12q25 0 41 -17t16 -41t-15.5 -40.5t-41.5 -16.5h-12q-42 0 -79.5 -39t-37.5 -127q0 -65 41 -205t41 -213q0 -132 -70 -216.5t-184 -84.5h-15q-28 0 -45.5 19t-17.5 45z" />
<glyph unicode="~" horiz-adv-x="1028" d="M129 551q0 54 67 91.5t156 37.5q59 0 114.5 -22.5t106 -45t95.5 -22.5q44 0 73.5 15t49 29.5t40.5 14.5q29 0 48.5 -19.5t19.5 -47.5q0 -54 -66.5 -90.5t-154.5 -36.5q-60 0 -116 22t-105.5 44t-94.5 22t-74 -15t-48.5 -30t-40.5 -15q-29 0 -49.5 20t-20.5 48z" />
<glyph unicode="&#xa1;" horiz-adv-x="516" d="M160 934q0 40 29 69t69 29q41 0 69.5 -29t28.5 -69q0 -41 -28.5 -69.5t-69.5 -28.5q-40 0 -69 28.5t-29 69.5zM182 -420l17 975q0 31 15 49.5t44 18.5t44 -18.5t15 -49.5l17 -975q2 -34 -18 -57t-58 -23t-57 22.5t-19 57.5z" />
<glyph unicode="&#xa2;" horiz-adv-x="849" d="M115 436v142q0 178 86 302.5t248 145.5v119q0 25 17 41t42 16t42 -16t17 -41v-119q110 -6 191 -55q23 -13 28.5 -36t-6.5 -44q-11 -21 -32 -27.5t-46 4.5q-85 45 -188 45q-128 0 -199 -90t-71 -239v-150q0 -158 67.5 -244t200.5 -86q104 0 195 46q27 13 47.5 5.5 t29.5 -30.5q11 -21 5 -43.5t-29 -34.5q-90 -49 -193 -55v-119q0 -25 -17 -42t-42 -17t-42 17t-17 42v117q-167 20 -250.5 138.5t-83.5 307.5z" />
<glyph unicode="&#xa3;" horiz-adv-x="1171" d="M119 66q0 19 10.5 32.5t21 19t35.5 14.5t33 13q67 49 104 115t37 166q0 85 -49 205h-102q-25 0 -42 17t-17 42t17 42.5t42 17.5h61q-71 177 -71 309q0 81 28 158t83 142.5t148 105.5t212 40q167 0 307 -49q49 -18 49 -61q0 -29 -17.5 -48.5t-45.5 -19.5q-10 0 -19.5 3 t-31 10t-48.5 14q-84 20 -186 20q-90 0 -159.5 -28.5t-108.5 -76t-58.5 -101.5t-19.5 -111q0 -51 14 -110.5t26.5 -93.5t39.5 -103h354q25 0 42 -17.5t17 -42.5t-17 -42t-42 -17h-315q45 -119 45 -205q0 -172 -125 -297h628q28 0 47 -18.5t19 -44.5q0 -28 -19 -47t-47 -19 h-817q-26 0 -44.5 19t-18.5 47z" />
<glyph unicode="&#xa4;" horiz-adv-x="1206" d="M94 584q0 23 16.5 39t39.5 16h69v211h-69q-23 0 -39.5 15.5t-16.5 37.5q0 23 16.5 39t39.5 16h71q9 124 42.5 222.5t95 174t158.5 116t224 40.5q235 0 353 -139q22 -22 22 -49q0 -24 -16.5 -43t-46.5 -20q-10 0 -20 4.5t-15 9t-18 17.5t-19 18q-92 77 -240 77 q-355 0 -383 -428h433q23 0 39 -16t16 -39q0 -22 -16 -37.5t-39 -15.5h-437v-211h437q23 0 39 -16t16 -39t-16 -39.5t-39 -16.5h-433q14 -215 102 -318.5t267 -103.5q151 0 256 84q9 7 22 18.5t19 16.5t16 9t21 4q26 1 42.5 -18t16.5 -44q0 -24 -22 -49q-70 -76 -169 -110.5 t-202 -34.5q-247 0 -367.5 141.5t-138.5 404.5h-71q-23 0 -39.5 16.5t-16.5 39.5z" />
<glyph unicode="&#xa5;" horiz-adv-x="1007" d="M0 1446q0 27 21.5 45t48.5 18q43 0 59 -39q137 -321 375 -772q230 429 377 772q16 39 57 39q28 0 49 -17.5t21 -45.5q0 -12 -7 -29q-135 -307 -290 -606h180q25 0 41 -17t16 -42t-16.5 -42.5t-40.5 -17.5h-242q-52 -98 -80 -147v-53h322q24 0 40.5 -17.5t16.5 -42.5 t-16 -42t-41 -17h-322v-324q0 -28 -19 -47.5t-48 -19.5q-28 0 -48 19.5t-20 47.5v324h-319q-25 0 -42.5 17t-17.5 42t17.5 42.5t42.5 17.5h319v53q-40 77 -78 147h-241q-25 0 -42.5 17.5t-17.5 42.5t17.5 42t42.5 17h180q-158 305 -289 606q-6 12 -6 29z" />
<glyph unicode="&#xa6;" horiz-adv-x="438" d="M152 -129v680q0 28 19.5 47.5t47.5 19.5t48 -19.5t20 -47.5v-680q0 -28 -20 -48t-48 -20t-47.5 20t-19.5 48zM152 942v680q0 28 19.5 47t47.5 19t48 -19t20 -47v-680q0 -29 -20 -48.5t-48 -19.5t-47.5 19.5t-19.5 48.5z" />
<glyph unicode="&#xa7;" horiz-adv-x="1114" d="M109 604q0 187 141 293q-80 77 -80 207q0 79 24.5 143.5t65 107t96 71.5t115.5 42t125 13q137 0 246 -41q71 -25 71 -68q0 -27 -16 -46t-43 -19q-10 0 -20.5 3.5t-29.5 11t-38 13.5q-89 29 -166 29q-133 0 -218 -63.5t-85 -188.5q0 -73 40.5 -117t117.5 -75 q35 -14 190 -62t211 -78q156 -86 156 -266q0 -184 -142 -291q80 -83 80 -207q0 -98 -36.5 -173t-98.5 -118.5t-135.5 -65t-155.5 -21.5q-130 0 -245 40q-36 13 -54 29t-18 41q0 26 16 45t43 19q10 0 20 -3.5t28.5 -11.5t37.5 -14q98 -27 168 -27q133 0 217 63t84 189 q0 72 -40 116.5t-117 76.5q-29 11 -186 58.5t-214 78.5q-155 86 -155 266zM236 610q0 -30 8 -56t19 -44.5t33 -35.5t39 -27.5t48.5 -22.5t50.5 -18t55.5 -17t53.5 -16q6 -2 43 -13t50 -15.5t41.5 -14.5t49.5 -19t41 -20q117 74 117 217q0 35 -8.5 63.5t-28.5 50t-38.5 36.5 t-52.5 29t-55.5 21.5t-63.5 20.5t-60 19q-10 3 -44.5 13t-50 15t-42.5 14.5t-48.5 18.5t-40.5 20q-116 -71 -116 -219z" />
<glyph unicode="&#xa8;" horiz-adv-x="1085" d="M240 1409q0 41 29.5 70.5t70.5 29.5t69.5 -29.5t28.5 -70.5t-28.5 -70.5t-69.5 -29.5t-70.5 29.5t-29.5 70.5zM647 1409q0 41 28.5 70.5t69.5 29.5t71 -29.5t30 -70.5t-30 -70.5t-71 -29.5t-69.5 29.5t-28.5 70.5z" />
<glyph unicode="&#xa9;" horiz-adv-x="1808" d="M139 745q0 155 61 297t163.5 244.5t244.5 163.5t297 61t296.5 -61t244 -163.5t163 -244.5t60.5 -297t-60.5 -296.5t-163 -243.5t-244 -162.5t-296.5 -60.5q-156 0 -297.5 60.5t-244 162.5t-163.5 243.5t-61 296.5zM250 745q0 -133 52 -254t139.5 -209t209 -140t254.5 -52 t254 52t208.5 140t139.5 209t52 254q0 178 -88 329.5t-238.5 240t-327.5 88.5q-178 0 -329 -88.5t-238.5 -240t-87.5 -329.5zM575 690v113q0 102 36 185t111.5 135.5t180.5 52.5q115 0 203 -39q33 -17 33 -50q0 -22 -15.5 -38.5t-38.5 -16.5q-10 0 -22 6q-69 31 -158 31 q-101 0 -161 -73t-60 -193v-113q0 -123 53.5 -194.5t167.5 -71.5q93 0 160 33q8 4 22 4q23 0 38.5 -16.5t15.5 -38.5q0 -34 -33 -48q-87 -41 -205 -41q-162 0 -245 104t-83 269z" />
<glyph unicode="&#xaa;" horiz-adv-x="854" d="M78 852v14q0 106 74 173t227 67h205v41q0 119 -39 170t-152 51q-106 0 -178 -45q-23 -11 -42 -5.5t-30 21.5q-12 14 -8 36.5t25 35.5q92 57 237 57q88 0 148 -21.5t93 -66t46.5 -101.5t13.5 -138v-328q0 -52 9.5 -73.5t35.5 -32.5q29 -12 29 -43q0 -25 -15.5 -39.5 t-39.5 -14.5q-42 0 -82 35q-22 19 -33 53q-75 -88 -233 -88q-149 0 -220 67.5t-71 174.5zM190 852q0 -145 191 -145q99 0 151 49t52 145v109h-199q-195 0 -195 -144v-14z" />
<glyph unicode="&#xab;" horiz-adv-x="1193" d="M70 551q0 25 18 43l395 410q19 19 44 19t44 -17q19 -19 20 -44t-18 -44l-354 -367l354 -367q19 -19 18 -44t-20 -44t-44 -18t-44 20l-395 410q-18 18 -18 43zM573 551q0 24 19 43l395 410q19 19 44 19t44 -17q19 -19 20 -44t-18 -44l-354 -367l354 -367q19 -19 18 -44 t-20 -44t-44 -18t-44 20l-395 410q-19 19 -19 43z" />
<glyph unicode="&#xad;" horiz-adv-x="985" d="M154 600q0 26 18 44t43 18h555q25 0 43 -18t18 -44t-18 -44.5t-43 -18.5h-555q-25 0 -43 18.5t-18 44.5z" />
<glyph unicode="&#xae;" horiz-adv-x="1808" d="M139 745q0 155 61 297t163.5 244.5t244.5 163.5t297 61t296.5 -61t244 -163.5t163 -244.5t60.5 -297t-60.5 -296.5t-163 -243.5t-244 -162.5t-296.5 -60.5q-156 0 -297.5 60.5t-244 162.5t-163.5 243.5t-61 296.5zM250 745q0 -133 52 -254t139.5 -209t209 -140t254.5 -52 t254 52t208.5 140t139.5 209t52 254q0 178 -88 329.5t-238.5 240t-327.5 88.5q-178 0 -329 -88.5t-238.5 -240t-87.5 -329.5zM635 379v733q0 23 16 39t39 16h228q137 0 202.5 -63.5t65.5 -153.5v-51q0 -70 -44.5 -127t-129.5 -78l157 -291q7 -11 7 -24q0 -24 -16.5 -39.5 t-39.5 -15.5q-34 0 -49 30l-174 326h-152v-301q0 -22 -16 -37.5t-39 -15.5t-39 15.5t-16 37.5zM745 778h166q87 0 125.5 38t38.5 85v47q0 21 -7 40.5t-23.5 39t-50 31.5t-79.5 12h-170v-293z" />
<glyph unicode="&#xaf;" horiz-adv-x="1085" d="M272 1391q0 25 17.5 42t42.5 17h422q25 0 42 -17t17 -42t-17 -42.5t-42 -17.5h-422q-25 0 -42.5 17.5t-17.5 42.5z" />
<glyph unicode="&#xb0;" horiz-adv-x="808" d="M74 1184q0 136 96 231.5t233 95.5t233.5 -95.5t96.5 -231.5t-96.5 -232t-233.5 -96t-233 96t-96 232zM195 1184q0 -88 61 -149.5t147 -61.5q88 0 149.5 61.5t61.5 149.5q0 86 -61.5 147.5t-149.5 61.5q-86 0 -147 -61.5t-61 -147.5z" />
<glyph unicode="&#xb2;" horiz-adv-x="921" d="M199 643q0 57 18 106t56.5 92t60.5 62.5t66 53.5q2 2 3.5 3t3 2.5t3.5 2.5q12 10 51 39.5t54 42t43 39.5t40 47t22.5 49t10.5 59q0 75 -42 122.5t-124 47.5q-64 0 -123 -27q-19 -9 -42 -28t-38 -19q-19 0 -33 13t-14 32q0 22 16 35q88 82 234 82q86 0 146 -38t86 -94.5 t26 -125.5q0 -53 -16 -97.5t-50 -83.5t-62.5 -63.5t-76.5 -60.5q-111 -84 -145 -119q-61 -62 -76 -129h381q20 0 32.5 -13t12.5 -32t-12.5 -32t-32.5 -13h-434q-21 0 -33 12t-12 33z" />
<glyph unicode="&#xb3;" horiz-adv-x="921" d="M193 713q0 18 12.5 30.5t30.5 12.5q11 0 19 -5.5t22.5 -19t33.5 -24.5q53 -35 138 -35q91 0 139.5 50t48.5 126q0 160 -207 164q-45 0 -45 43q0 37 45 43q33 2 63.5 10t60 24.5t47 47t17.5 71.5q0 68 -38 115t-125 47q-64 0 -125 -33q-15 -9 -29.5 -22.5t-23.5 -19 t-21 -5.5q-18 0 -29.5 11.5t-11.5 31.5t16 33q35 39 94 64.5t132 25.5q67 0 118 -22.5t78.5 -59.5t40.5 -77t13 -83q0 -141 -127 -196q149 -51 149 -217q0 -108 -73 -182t-205 -74q-78 0 -135 20t-109 72q-14 14 -14 33z" />
<glyph unicode="&#xb4;" horiz-adv-x="1085" d="M396.5 1258q-6.5 20 4.5 42l172 310q11 22 35 30t51 -6q24 -11 30 -37.5t-7 -44.5l-182 -303q-12 -20 -34 -26.5t-42 4.5q-21 11 -27.5 31z" />
<glyph unicode="&#xb5;" horiz-adv-x="1095" d="M147 -354v1321q0 26 20 45.5t46 19.5q27 0 46.5 -19t19.5 -46v-602q0 -126 47 -188t172 -62q210 0 286 161v691q0 27 19 46t47 19q27 0 46 -19t19 -46v-736q0 -64 15 -91.5t51 -43.5q33 -11 33 -49q0 -28 -18 -43.5t-46 -15.5q-51 0 -100 43q-34 34 -47 84 q-114 -127 -324 -127q-123 0 -200 49v-391q0 -28 -19 -47t-47 -19q-27 0 -46.5 19.5t-19.5 46.5z" />
<glyph unicode="&#xb6;" horiz-adv-x="1255" d="M113 1112q0 161 115.5 274t279.5 113h620q25 0 42.5 -17t17.5 -42t-17.5 -42.5t-42.5 -17.5h-106v-1642q0 -28 -19 -48t-47 -20q-29 0 -48 20t-19 48v1642h-258v-1642q0 -28 -20 -48t-48 -20t-47.5 20t-19.5 48v985q-160 5 -271.5 117.5t-111.5 271.5z" />
<glyph unicode="&#xb7;" horiz-adv-x="458" d="M123 604q0 40 29 69t69 29q41 0 69.5 -29t28.5 -69q0 -41 -28.5 -69.5t-69.5 -28.5q-40 0 -69 28.5t-29 69.5z" />
<glyph unicode="&#xb8;" horiz-adv-x="1085" d="M358 -365q0 20 24.5 27.5t76.5 7.5q76 0 114.5 25t38.5 67q0 44 -33 65t-102 26q-41 1 -55 12.5t-12 42.5l6 100h82v-84q119 0 174 -45t55 -121q0 -77 -63.5 -123.5t-174.5 -46.5q-131 0 -131 47z" />
<glyph unicode="&#xb9;" horiz-adv-x="921" d="M181 1259.5q3 17.5 18 28.5l290 201q13 10 31 10q19 0 32 -13.5t13 -33.5v-764h127q19 0 32 -13t13 -32t-13 -32t-32 -13h-430q-19 0 -32 13t-13 32t13 32t32 13h211v680l-223 -154q-15 -10 -34 -6t-28 19q-10 15 -7 32.5z" />
<glyph unicode="&#xba;" horiz-adv-x="884" d="M115 954v170q0 73 18.5 133.5t56 108.5t102 75t150.5 27q85 0 149 -27t102.5 -75t57.5 -108.5t19 -133.5v-170q0 -73 -19 -133.5t-57.5 -108.5t-102.5 -75t-149 -27q-86 0 -150.5 27t-102 75t-56 108.5t-18.5 133.5zM227 954q0 -235 215 -235q213 0 213 235v170 q0 236 -213 236q-215 0 -215 -236v-170z" />
<glyph unicode="&#xbb;" horiz-adv-x="1193" d="M99 140q-1 25 18 44l354 367l-354 367q-19 19 -18 44t20 44q19 17 44 17t44 -19l395 -410q19 -19 19 -43t-19 -43l-395 -410q-19 -19 -44 -20t-44 18t-20 44zM602.5 140q-0.5 25 18.5 44l354 367l-354 367q-19 19 -18.5 44t20.5 44q19 17 44 17t44 -19l395 -410 q18 -18 18 -43t-18 -43l-395 -410q-19 -19 -44 -20t-44 18q-20 19 -20.5 44z" />
<glyph unicode="&#xbc;" horiz-adv-x="921" d="M88 524q0 17 12 29t29 12h664q17 0 29 -12t12 -29t-12 -29t-29 -12h-664q-17 0 -29 12t-12 29zM180 -225q0 4 6 22l254 576q6 17 23.5 23.5t32.5 -1.5q17 -7 23.5 -23.5t-1.5 -33.5l-229 -522h211v176q0 18 12.5 30.5t30.5 12.5q17 0 29 -13t12 -30v-176h65q17 0 28 -12 t11 -29t-11 -29t-28 -12h-65v-133q0 -19 -12 -31t-29 -12q-19 0 -31 12t-12 31v133h-279q-17 0 -29 12t-12 29zM197 1278q3 18 16 27l270 184q10 10 27 10q18 0 30.5 -12.5t12.5 -30.5v-706h117q17 0 29 -12t12 -29t-12 -29t-29 -12h-400q-17 0 -29 12t-12 29t12 29t29 12 h197v628l-207 -143q-14 -9 -31 -5.5t-26 17.5q-9 13 -6 31z" />
<glyph unicode="&#xbd;" horiz-adv-x="921" d="M88 524q0 17 12 29t29 12h664q17 0 29 -12t12 -29t-12 -29t-29 -12h-664q-17 0 -29 12t-12 29zM197 1278q3 18 16 27l270 184q10 10 27 10q18 0 30.5 -12.5t12.5 -30.5v-706h117q17 0 29 -12t12 -29t-12 -29t-29 -12h-400q-17 0 -29 12t-12 29t12 29t29 12h197v628 l-207 -143q-14 -9 -31 -5.5t-26 17.5q-9 13 -6 31zM219 -389q0 42 12.5 81t32 68.5t45 56t49 46.5t45.5 37q8 5 11 8q12 9 41.5 31t42.5 33t36.5 31t35 35t24.5 36t18.5 42.5t5.5 45.5q0 69 -38.5 113t-114.5 44q-60 0 -113 -24q-17 -8 -38 -26.5t-35 -18.5q-17 0 -30 13 t-13 30q0 19 14 33q85 75 217 75q116 0 177 -69.5t61 -169.5q0 -48 -15 -89.5t-46.5 -77.5t-58 -59t-71.5 -57q-39 -29 -49 -36.5t-41 -32t-42 -37t-29.5 -34.5t-27.5 -43t-14 -44h353q17 0 29 -12t12 -29q0 -19 -12 -31t-29 -12h-404q-19 0 -30 12t-11 31z" />
<glyph unicode="&#xbe;" horiz-adv-x="921" d="M88 524q0 17 12 29t29 12h664q17 0 29 -12t12 -29t-12 -29t-29 -12h-664q-17 0 -29 12t-12 29zM184 -225q0 4 6 22l254 576q7 17 24 23.5t34 -1.5q15 -8 21 -24t-1 -33l-229 -522h211v176q0 18 12.5 30.5t30.5 12.5q17 0 30 -13t13 -30v-176h63q17 0 29 -12t12 -29 t-12 -29t-29 -12h-63v-133q0 -18 -12.5 -30.5t-30.5 -12.5q-19 0 -31 12t-12 31v133h-279q-17 0 -29 12t-12 29zM227 772q0 17 12 29t29 12q9 0 16 -5t22.5 -18t31.5 -24q50 -31 125 -31q85 0 129.5 46t44.5 116q0 148 -188 152q-43 0 -43 38q0 35 40 41q69 4 122 38t53 104 q0 63 -35.5 106t-114.5 43q-65 0 -117 -30q-16 -8 -34.5 -25.5t-32.5 -17.5q-16 0 -27.5 10.5t-11.5 27.5q0 19 14 33q34 35 88.5 58.5t120.5 23.5q62 0 109 -20.5t72.5 -54.5t37.5 -71.5t12 -76.5q0 -131 -116 -182q137 -48 137 -201q0 -99 -67.5 -167.5t-190.5 -68.5 q-71 0 -123.5 18.5t-99.5 65.5q-15 15 -15 31z" />
<glyph unicode="&#xbf;" horiz-adv-x="931" d="M119 -109q0 56 11.5 103t28.5 81.5t50.5 73t62 63.5t78.5 67q55 45 89 82t49 72t19.5 60.5t4.5 63.5q0 28 18.5 44.5t47.5 16.5q27 0 45 -16.5t18 -46.5q0 -102 -36.5 -179.5t-151.5 -172.5q-62 -50 -90.5 -76t-58.5 -63.5t-40 -75t-10 -88.5q0 -70 24.5 -124.5 t64.5 -86.5t87.5 -48t97.5 -16q93 0 158 26.5t119 80.5q16 16 39 16q27 0 46 -19t19 -44q0 -38 -71 -91q-123 -92 -318 -92q-55 0 -110 13.5t-108 44t-93.5 75t-65 110.5t-24.5 146zM475 934q0 40 29 69t69 29q41 0 70 -29t29 -69q0 -41 -29 -69.5t-70 -28.5q-40 0 -69 28.5 t-29 69.5z" />
<glyph unicode="&#xc0;" horiz-adv-x="1148" d="M33 66q179 690 456 1368q19 46 39 61.5t47 15.5q25 0 46 -16t41 -61q284 -705 454 -1368q10 -36 -11.5 -60t-53.5 -24q-51 0 -66 51q-45 180 -92 334h-639q-59 -193 -94 -334q-6 -25 -23 -38t-39 -13q-31 0 -52.5 24t-12.5 60zM291 494h565q-119 379 -283 794 q-161 -400 -282 -794zM451 2006.5q6 26.5 30 37.5q27 14 51 6t35 -30l172 -310q12 -22 5.5 -42t-27.5 -31q-20 -11 -42 -4.5t-34 26.5l-183 303q-13 18 -7 44.5z" />
<glyph unicode="&#xc1;" horiz-adv-x="1148" d="M33 66q179 690 456 1368q19 46 39 61.5t47 15.5q25 0 46 -16t41 -61q284 -705 454 -1368q10 -36 -11.5 -60t-53.5 -24q-51 0 -66 51q-45 180 -92 334h-639q-59 -193 -94 -334q-6 -25 -23 -38t-39 -13q-31 0 -52.5 24t-12.5 60zM291 494h565q-119 379 -283 794 q-161 -400 -282 -794zM421.5 1668q-6.5 20 4.5 42l172 310q11 22 35 30t51 -6q24 -11 30 -37.5t-7 -44.5l-182 -303q-12 -20 -34 -26.5t-42 4.5q-21 11 -27.5 31z" />
<glyph unicode="&#xc2;" horiz-adv-x="1148" d="M33 66q179 690 456 1368q19 46 39 61.5t47 15.5q25 0 46 -16t41 -61q284 -705 454 -1368q10 -36 -11.5 -60t-53.5 -24q-51 0 -66 51q-45 180 -92 334h-639q-59 -193 -94 -334q-6 -25 -23 -38t-39 -13q-31 0 -52.5 24t-12.5 60zM241.5 1721.5q0.5 22.5 18.5 40.5l265 266 q19 19 45 16q29 0 45 -16l264 -268q18 -18 18.5 -40.5t-14.5 -39.5t-38 -18t-42 16l-233 223l-234 -223q-19 -17 -42 -16t-38 20q-15 17 -14.5 39.5zM291 494h565q-119 379 -283 794q-161 -400 -282 -794z" />
<glyph unicode="&#xc3;" horiz-adv-x="1148" d="M33 66q179 690 456 1368q19 46 39 61.5t47 15.5q25 0 46 -16t41 -61q284 -705 454 -1368q10 -36 -11.5 -60t-53.5 -24q-51 0 -66 51q-45 180 -92 334h-639q-59 -193 -94 -334q-6 -25 -23 -38t-39 -13q-31 0 -52.5 24t-12.5 60zM258 1803q0 49 55.5 85t128.5 38 q50 1 98 -20t90.5 -42t80.5 -20q30 1 52.5 10t33 20t24.5 20t29 9q23 0 38 -18t17 -43q0 -50 -55 -85.5t-129 -37.5q-51 -1 -98.5 19.5t-89.5 41t-80 19.5q-39 -1 -63.5 -15.5t-41.5 -29t-35 -15.5q-23 0 -38 18.5t-17 45.5zM291 494h565q-119 379 -283 794 q-161 -400 -282 -794z" />
<glyph unicode="&#xc4;" horiz-adv-x="1148" d="M33 66q179 690 456 1368q19 46 39 61.5t47 15.5q25 0 46 -16t41 -61q284 -705 454 -1368q10 -36 -11.5 -60t-53.5 -24q-51 0 -66 51q-45 180 -92 334h-639q-59 -193 -94 -334q-6 -25 -23 -38t-39 -13q-31 0 -52.5 24t-12.5 60zM267 1819q0 41 29.5 70.5t70.5 29.5 t69.5 -29.5t28.5 -70.5t-28.5 -70.5t-69.5 -29.5t-70.5 29.5t-29.5 70.5zM291 494h565q-119 379 -283 794q-161 -400 -282 -794zM674 1819q0 41 28.5 70.5t69.5 29.5t71 -29.5t30 -70.5t-30 -70.5t-71 -29.5t-69.5 29.5t-28.5 70.5z" />
<glyph unicode="&#xc5;" horiz-adv-x="1148" d="M33 66q179 690 456 1368q19 46 39 61.5t47 15.5q25 0 46 -16t41 -61q284 -705 454 -1368q10 -36 -11.5 -60t-53.5 -24q-51 0 -66 51q-45 180 -92 334h-639q-59 -193 -94 -334q-6 -25 -23 -38t-39 -13q-31 0 -52.5 24t-12.5 60zM291 494h565q-119 379 -283 794 q-161 -400 -282 -794zM336 1821q0 98 70 168t168 70t167.5 -70t69.5 -168q0 -101 -69 -170.5t-168 -69.5t-168.5 69.5t-69.5 170.5zM424 1821q0 -62 44.5 -106.5t105.5 -44.5q60 0 104.5 44t44.5 107q0 61 -44.5 104.5t-104.5 43.5q-61 0 -105.5 -43.5t-44.5 -104.5z" />
<glyph unicode="&#xc6;" horiz-adv-x="1792" d="M31 61q0 17 8 33q294 579 743 1331q22 37 47.5 52.5t65.5 15.5h719q27 0 46 -19.5t19 -46.5q0 -28 -18.5 -46.5t-46.5 -18.5h-590v-553h535q26 0 44.5 -19t18.5 -45t-18.5 -44.5t-44.5 -18.5h-535v-553h621q28 0 46.5 -18.5t18.5 -44.5q0 -28 -18.5 -47t-46.5 -19h-691 q-26 0 -45.5 19t-19.5 47v301h-555q-140 -263 -174 -332q-20 -39 -60 -39q-29 0 -49 18.5t-20 46.5zM399 494h490v847q-251 -414 -490 -847z" />
<glyph unicode="&#xc7;" horiz-adv-x="1126" d="M139 623v247q0 142 29.5 256t90 201.5t163 135.5t240.5 48q231 0 354 -139q22 -28 22 -49q0 -24 -16.5 -43t-46.5 -20q-10 0 -20 4.5t-15.5 9.5t-18.5 17t-20 18q-89 77 -239 77q-388 0 -388 -518v-245q0 -265 89 -391t286 -126q151 0 256 84q8 7 21 18.5t19 16t16 9 t20 4.5q28 1 44.5 -18t16.5 -44q0 -24 -22 -49q-66 -71 -158 -106.5t-188 -38.5v-66q119 0 174 -45t55 -121q0 -77 -64 -123.5t-173 -46.5q-134 0 -134 47q0 20 25.5 27.5t77.5 7.5q76 0 113.5 25.5t37.5 68.5t-32.5 63t-102.5 25q-41 3 -54 14.5t-11 41.5l6 84 q-453 37 -453 639z" />
<glyph unicode="&#xc8;" horiz-adv-x="1122" d="M174 66v1361q0 26 20 46t46 20h706q26 0 45 -20t19 -46q0 -27 -19 -46t-45 -19h-637v-553h580q26 0 44.5 -19t18.5 -45t-18.5 -44.5t-44.5 -18.5h-580v-553h668q26 0 44.5 -18.5t18.5 -44.5q0 -28 -18.5 -47t-44.5 -19h-737q-27 0 -46.5 19.5t-19.5 46.5zM457 2006.5 q6 26.5 30 37.5q27 14 51 6t35 -30l172 -310q12 -22 5.5 -42t-27.5 -31q-20 -11 -42 -4.5t-34 26.5l-183 303q-13 18 -7 44.5z" />
<glyph unicode="&#xc9;" horiz-adv-x="1122" d="M174 66v1361q0 26 20 46t46 20h706q26 0 45 -20t19 -46q0 -27 -19 -46t-45 -19h-637v-553h580q26 0 44.5 -19t18.5 -45t-18.5 -44.5t-44.5 -18.5h-580v-553h668q26 0 44.5 -18.5t18.5 -44.5q0 -28 -18.5 -47t-44.5 -19h-737q-27 0 -46.5 19.5t-19.5 46.5zM459.5 1668 q-6.5 20 4.5 42l172 310q11 22 35 30t51 -6q24 -11 30 -37.5t-7 -44.5l-182 -303q-12 -20 -34 -26.5t-42 4.5q-21 11 -27.5 31z" />
<glyph unicode="&#xca;" horiz-adv-x="1122" d="M174 66v1361q0 26 20 46t46 20h706q26 0 45 -20t19 -46q0 -27 -19 -46t-45 -19h-637v-553h580q26 0 44.5 -19t18.5 -45t-18.5 -44.5t-44.5 -18.5h-580v-553h668q26 0 44.5 -18.5t18.5 -44.5q0 -28 -18.5 -47t-44.5 -19h-737q-27 0 -46.5 19.5t-19.5 46.5zM261.5 1721.5 q0.5 22.5 18.5 40.5l265 266q19 19 45 16q29 0 45 -16l264 -268q18 -18 18.5 -40.5t-14.5 -39.5t-38 -18t-42 16l-233 223l-234 -223q-19 -17 -42 -16t-38 20q-15 17 -14.5 39.5z" />
<glyph unicode="&#xcb;" horiz-adv-x="1128" d="M180 66v1361q0 26 20 46t46 20h706q26 0 45 -20t19 -46q0 -27 -19 -46t-45 -19h-637v-553h580q26 0 44.5 -19t18.5 -45t-18.5 -44.5t-44.5 -18.5h-580v-553h668q26 0 45 -18.5t19 -44.5q0 -28 -19 -47t-45 -19h-737q-27 0 -46.5 19.5t-19.5 46.5zM295 1819 q0 41 28.5 69.5t69.5 28.5q42 0 71.5 -28.5t29.5 -69.5t-30 -71t-71 -30t-69.5 29.5t-28.5 71.5zM700 1819q0 41 29.5 69.5t71.5 28.5q41 0 69.5 -28.5t28.5 -69.5q0 -42 -28.5 -71.5t-69.5 -29.5t-71 30t-30 71z" />
<glyph unicode="&#xcc;" horiz-adv-x="485" d="M113 2006.5q6 26.5 30 37.5q27 14 51 6t35 -30l172 -310q12 -22 5.5 -42t-27.5 -31q-20 -11 -42 -4.5t-34 26.5l-183 303q-13 18 -7 44.5zM174 49v1395q0 28 20 47.5t48 19.5q29 0 48 -19.5t19 -47.5v-1395q0 -28 -19 -47.5t-48 -19.5q-28 0 -48 19.5t-20 47.5z" />
<glyph unicode="&#xcd;" horiz-adv-x="485" d="M85.5 1668q-6.5 20 4.5 42l172 310q11 22 35 30t51 -6q24 -11 30 -37.5t-7 -44.5l-182 -303q-12 -20 -34 -26.5t-42 4.5q-21 11 -27.5 31zM174 49v1395q0 28 20 47.5t48 19.5q29 0 48 -19.5t19 -47.5v-1395q0 -28 -19 -47.5t-48 -19.5q-28 0 -48 19.5t-20 47.5z" />
<glyph unicode="&#xce;" horiz-adv-x="485" d="M-86.5 1721.5q0.5 22.5 18.5 40.5l265 266q19 19 45 16q29 0 45 -16l264 -268q18 -18 18.5 -40.5t-14.5 -39.5t-38 -18t-42 16l-233 223l-234 -223q-19 -17 -42 -16t-38 20q-15 17 -14.5 39.5zM174 49v1395q0 28 20 47.5t48 19.5q29 0 48 -19.5t19 -47.5v-1395 q0 -28 -19 -47.5t-48 -19.5q-28 0 -48 19.5t-20 47.5z" />
<glyph unicode="&#xcf;" horiz-adv-x="485" d="M-59 1819q0 41 29.5 70.5t70.5 29.5t69.5 -29.5t28.5 -70.5t-28.5 -70.5t-69.5 -29.5t-70.5 29.5t-29.5 70.5zM174 49v1395q0 28 20 47.5t48 19.5q29 0 48 -19.5t19 -47.5v-1395q0 -28 -19 -47.5t-48 -19.5q-28 0 -48 19.5t-20 47.5zM348 1819q0 41 28.5 70.5t69.5 29.5 t71 -29.5t30 -70.5t-30 -70.5t-71 -29.5t-69.5 29.5t-28.5 70.5z" />
<glyph unicode="&#xd0;" horiz-adv-x="1345" d="M31 733q0 26 18.5 45t44.5 19h113v628q0 28 19.5 48t47.5 20h406q131 0 229.5 -37.5t153.5 -93.5t89 -134.5t44 -146.5t10 -145v-381q0 -52 -5 -100.5t-19.5 -106t-38.5 -105.5t-64.5 -94t-94 -78t-131.5 -51.5t-173 -19.5h-406q-28 0 -47.5 20t-19.5 48v602h-113 q-26 0 -44.5 18.5t-18.5 44.5zM342 127h334q97 0 170.5 26.5t115 67t67 99.5t34 114t8.5 121v379q0 67 -8.5 122.5t-34 114.5t-67.5 99t-114.5 66t-170.5 26h-334v-565h248q26 0 44.5 -19t18.5 -45t-18.5 -44.5t-44.5 -18.5h-248v-543z" />
<glyph unicode="&#xd1;" horiz-adv-x="1363" d="M174 45v1403q0 27 19 45t49 18q43 0 67 -38l754 -1217v1192q0 26 18.5 44.5t44.5 18.5t45 -18.5t19 -44.5v-1403q0 -26 -19 -44.5t-49 -18.5q-46 0 -65 34l-756 1219v-1190q0 -26 -18.5 -44.5t-44.5 -18.5t-45 18.5t-19 44.5zM356 1803q0 49 55.5 85t128.5 38 q50 1 98 -20t90.5 -42t80.5 -20q30 1 52.5 10t33 20t24.5 20t29 9q23 0 38 -18t17 -43q0 -50 -55 -85.5t-129 -37.5q-51 -1 -98.5 19.5t-89.5 41t-80 19.5q-39 -1 -63.5 -15.5t-41.5 -29t-35 -15.5q-23 0 -38 18.5t-17 45.5z" />
<glyph unicode="&#xd2;" d="M139 535v423q0 87 15.5 165t53 150t93.5 124t143 83t197 31q109 0 195.5 -31t142.5 -83t93.5 -124t53 -150t15.5 -165v-423q0 -86 -15.5 -163.5t-53 -150t-93.5 -124.5t-142.5 -83.5t-195.5 -31.5t-196.5 31.5t-143.5 83.5t-93.5 124.5t-53 150t-15.5 163.5zM274 535 q0 -91 19.5 -166t61 -135.5t114.5 -94t172 -33.5q79 0 142 22.5t104.5 61t68.5 94t38.5 117.5t11.5 134v423q0 91 -19.5 165.5t-60.5 135t-113.5 94t-171.5 33.5q-100 0 -172.5 -33t-114 -93t-61 -135t-19.5 -167v-423zM527 2006.5q6 26.5 30 37.5q27 14 51 6t35 -30 l172 -310q12 -22 5.5 -42t-27.5 -31q-20 -11 -42 -4.5t-34 26.5l-183 303q-13 18 -7 44.5z" />
<glyph unicode="&#xd3;" d="M139 535v423q0 87 15.5 165t53 150t93.5 124t143 83t197 31q109 0 195.5 -31t142.5 -83t93.5 -124t53 -150t15.5 -165v-423q0 -86 -15.5 -163.5t-53 -150t-93.5 -124.5t-142.5 -83.5t-195.5 -31.5t-196.5 31.5t-143.5 83.5t-93.5 124.5t-53 150t-15.5 163.5zM274 535 q0 -91 19.5 -166t61 -135.5t114.5 -94t172 -33.5q79 0 142 22.5t104.5 61t68.5 94t38.5 117.5t11.5 134v423q0 91 -19.5 165.5t-60.5 135t-113.5 94t-171.5 33.5q-100 0 -172.5 -33t-114 -93t-61 -135t-19.5 -167v-423zM474.5 1668q-6.5 20 4.5 42l172 310q11 22 35 30 t51 -6q24 -11 30 -37.5t-7 -44.5l-182 -303q-12 -20 -34 -26.5t-42 4.5q-21 11 -27.5 31z" />
<glyph unicode="&#xd4;" d="M139 535v423q0 87 15.5 165t53 150t93.5 124t143 83t197 31q109 0 195.5 -31t142.5 -83t93.5 -124t53 -150t15.5 -165v-423q0 -86 -15.5 -163.5t-53 -150t-93.5 -124.5t-142.5 -83.5t-195.5 -31.5t-196.5 31.5t-143.5 83.5t-93.5 124.5t-53 150t-15.5 163.5zM274 535 q0 -91 19.5 -166t61 -135.5t114.5 -94t172 -33.5q79 0 142 22.5t104.5 61t68.5 94t38.5 117.5t11.5 134v423q0 91 -19.5 165.5t-60.5 135t-113.5 94t-171.5 33.5q-100 0 -172.5 -33t-114 -93t-61 -135t-19.5 -167v-423zM306.5 1721.5q0.5 22.5 18.5 40.5l265 266 q19 19 45 16q29 0 45 -16l264 -268q18 -18 18.5 -40.5t-14.5 -39.5t-38 -18t-42 16l-233 223l-234 -223q-19 -17 -42 -16t-38 20q-15 17 -14.5 39.5z" />
<glyph unicode="&#xd5;" d="M139 535v423q0 87 15.5 165t53 150t93.5 124t143 83t197 31q109 0 195.5 -31t142.5 -83t93.5 -124t53 -150t15.5 -165v-423q0 -86 -15.5 -163.5t-53 -150t-93.5 -124.5t-142.5 -83.5t-195.5 -31.5t-196.5 31.5t-143.5 83.5t-93.5 124.5t-53 150t-15.5 163.5zM274 535 q0 -91 19.5 -166t61 -135.5t114.5 -94t172 -33.5q79 0 142 22.5t104.5 61t68.5 94t38.5 117.5t11.5 134v423q0 91 -19.5 165.5t-60.5 135t-113.5 94t-171.5 33.5q-100 0 -172.5 -33t-114 -93t-61 -135t-19.5 -167v-423zM313 1803q0 49 55.5 85t128.5 38q50 1 98 -20 t90.5 -42t80.5 -20q30 1 52.5 10t33 20t24.5 20t29 9q23 0 38 -18t17 -43q0 -50 -55 -85.5t-129 -37.5q-51 -1 -98.5 19.5t-89.5 41t-80 19.5q-39 -1 -63.5 -15.5t-41.5 -29t-35 -15.5q-23 0 -38 18.5t-17 45.5z" />
<glyph unicode="&#xd6;" d="M139 535v423q0 87 15.5 165t53 150t93.5 124t143 83t197 31q109 0 195.5 -31t142.5 -83t93.5 -124t53 -150t15.5 -165v-423q0 -86 -15.5 -163.5t-53 -150t-93.5 -124.5t-142.5 -83.5t-195.5 -31.5t-196.5 31.5t-143.5 83.5t-93.5 124.5t-53 150t-15.5 163.5zM274 535 q0 -91 19.5 -166t61 -135.5t114.5 -94t172 -33.5q79 0 142 22.5t104.5 61t68.5 94t38.5 117.5t11.5 134v423q0 91 -19.5 165.5t-60.5 135t-113.5 94t-171.5 33.5q-100 0 -172.5 -33t-114 -93t-61 -135t-19.5 -167v-423zM328 1819q0 41 29.5 70.5t70.5 29.5t69.5 -29.5 t28.5 -70.5t-28.5 -70.5t-69.5 -29.5t-70.5 29.5t-29.5 70.5zM735 1819q0 41 28.5 70.5t69.5 29.5t71 -29.5t30 -70.5t-30 -70.5t-71 -29.5t-69.5 29.5t-28.5 70.5z" />
<glyph unicode="&#xd7;" horiz-adv-x="862" d="M114 306q0 25 19 44l209 209l-209 209q-19 17 -19 43t19 45t45 19t43 -19l209 -209l209 209q19 19 44 19t44 -19t19 -45t-19 -43l-209 -209l209 -209q19 -19 19 -44t-19 -44t-44 -19t-44 19l-209 209l-209 -209q-17 -19 -43 -19t-45 19t-19 44z" />
<glyph unicode="&#xd8;" d="M139 535v423q0 87 15.5 165t53 150t93.5 124t143 83t197 31q146 0 258 -59l37 86q9 20 29.5 27.5t40.5 -0.5q19 -9 26 -29.5t-2 -40.5l-45 -104q156 -144 156 -433v-423q0 -86 -15.5 -163.5t-53 -150t-93.5 -124.5t-142.5 -83.5t-195.5 -31.5q-153 0 -258 57l-37 -82 q-9 -20 -29.5 -28t-40.5 1q-20 7 -27.5 27.5t1.5 40.5l47 104q-81 76 -119.5 189t-38.5 244zM274 535q0 -193 80 -302l492 1102q-82 51 -205 51q-100 0 -172.5 -33t-114 -93t-61 -135t-19.5 -167v-423zM434 158q84 -52 207 -52q79 0 142 22.5t104.5 61t68.5 94t38.5 117.5 t11.5 134v423q0 193 -80 302z" />
<glyph unicode="&#xd9;" d="M139 485v959q0 28 20 47.5t48 19.5t47.5 -19.5t19.5 -47.5v-957q0 -171 90.5 -277t276.5 -106q185 0 275 106t90 277v957q0 28 19.5 47.5t47.5 19.5q29 0 48.5 -19.5t19.5 -47.5v-959q0 -106 -30.5 -195.5t-90 -159t-157 -109t-222.5 -39.5q-126 0 -224 39.5t-157.5 109 t-90 159t-30.5 195.5zM492 2006.5q6 26.5 30 37.5q27 14 51 6t35 -30l172 -310q12 -22 5.5 -42t-27.5 -31q-20 -11 -42 -4.5t-34 26.5l-183 303q-13 18 -7 44.5z" />
<glyph unicode="&#xda;" d="M139 485v959q0 28 20 47.5t48 19.5t47.5 -19.5t19.5 -47.5v-957q0 -171 90.5 -277t276.5 -106q185 0 275 106t90 277v957q0 28 19.5 47.5t47.5 19.5q29 0 48.5 -19.5t19.5 -47.5v-959q0 -106 -30.5 -195.5t-90 -159t-157 -109t-222.5 -39.5q-126 0 -224 39.5t-157.5 109 t-90 159t-30.5 195.5zM511.5 1668q-6.5 20 4.5 42l172 310q11 22 35 30t51 -6q24 -11 30 -37.5t-7 -44.5l-182 -303q-12 -20 -34 -26.5t-42 4.5q-21 11 -27.5 31z" />
<glyph unicode="&#xdb;" d="M139 485v959q0 28 20 47.5t48 19.5t47.5 -19.5t19.5 -47.5v-957q0 -171 90.5 -277t276.5 -106q185 0 275 106t90 277v957q0 28 19.5 47.5t47.5 19.5q29 0 48.5 -19.5t19.5 -47.5v-959q0 -106 -30.5 -195.5t-90 -159t-157 -109t-222.5 -39.5q-126 0 -224 39.5t-157.5 109 t-90 159t-30.5 195.5zM302.5 1721.5q0.5 22.5 18.5 40.5l265 266q19 19 45 16q29 0 45 -16l264 -268q18 -18 18.5 -40.5t-14.5 -39.5t-38 -18t-42 16l-233 223l-234 -223q-19 -17 -42 -16t-38 20q-15 17 -14.5 39.5z" />
<glyph unicode="&#xdc;" d="M139 485v959q0 28 20 47.5t48 19.5t47.5 -19.5t19.5 -47.5v-957q0 -171 90.5 -277t276.5 -106q185 0 275 106t90 277v957q0 28 19.5 47.5t47.5 19.5q29 0 48.5 -19.5t19.5 -47.5v-959q0 -106 -30.5 -195.5t-90 -159t-157 -109t-222.5 -39.5q-126 0 -224 39.5t-157.5 109 t-90 159t-30.5 195.5zM334 1819q0 41 29.5 70.5t70.5 29.5t69.5 -29.5t28.5 -70.5t-28.5 -70.5t-69.5 -29.5t-70.5 29.5t-29.5 70.5zM741 1819q0 41 28.5 70.5t69.5 29.5t71 -29.5t30 -70.5t-30 -70.5t-71 -29.5t-69.5 29.5t-28.5 70.5z" />
<glyph unicode="&#xdd;" horiz-adv-x="1007" d="M0 1446q0 27 21.5 46t48.5 19q42 0 59 -41q137 -321 375 -772q230 429 377 772q17 41 57 41q28 0 49 -18.5t21 -46.5q0 -13 -7 -27q-161 -377 -432 -874v-496q0 -28 -19 -47.5t-48 -19.5q-28 0 -48 19.5t-20 47.5v496q-279 524 -428 872q-6 15 -6 29zM365.5 1668 q-6.5 20 4.5 42l172 310q11 22 35 30t51 -6q24 -11 30 -37.5t-7 -44.5l-182 -303q-12 -20 -34 -26.5t-42 4.5q-21 11 -27.5 31z" />
<glyph unicode="&#xde;" horiz-adv-x="1198" d="M174 -293v1940q0 28 20 47.5t48 19.5q29 0 48 -19.5t19 -47.5v-496h328q125 0 219.5 -34.5t147.5 -92.5t78.5 -125.5t25.5 -142.5v-103q0 -172 -120 -278.5t-329 -106.5h-350v-561q0 -28 -19 -47.5t-48 -19.5q-28 0 -48 19.5t-20 47.5zM309 393h346q156 0 237 74.5 t81 187.5v101q0 39 -9.5 74.5t-34 71.5t-62 62.5t-98.5 43t-138 16.5h-322v-631z" />
<glyph unicode="&#xdf;" horiz-adv-x="1140" d="M150 -186v1171q0 255 114 380.5t309 125.5q158 0 260.5 -100.5t102.5 -270.5q0 -126 -68 -209.5t-184 -115.5q172 -38 258 -133.5t86 -266.5q0 -104 -40.5 -183t-113.5 -127t-169 -71.5t-213 -23.5h-93q-25 0 -42 17.5t-17 43.5q0 25 17 42.5t42 17.5h86q412 0 412 295 q0 76 -24 133t-64.5 92t-100 56.5t-122 29.5t-140.5 8h-47q-25 0 -41 16t-16 41q0 24 16 40t41 16h76q43 0 87 8.5t89 29t79.5 50.5t56.5 78t22 106q0 122 -68.5 189t-169.5 67q-290 0 -290 -381v-1171q0 -27 -19.5 -46.5t-46.5 -19.5q-28 0 -46.5 19t-18.5 47z" />
<glyph unicode="&#xe0;" horiz-adv-x="1003" d="M78 281v16q0 129 89 209t275 80h256v55q0 74 -9.5 122.5t-35 85t-72.5 53t-120 16.5q-125 0 -221 -56q-28 -15 -49 -6.5t-34 26t-8 42t29 39.5q112 69 287 69q107 0 179.5 -26t112 -80t56 -123.5t16.5 -169.5v-402q0 -64 13 -91.5t47 -43.5q33 -14 33 -49 q0 -28 -18 -43.5t-46 -15.5q-55 0 -98 43q-27 25 -41 71q-90 -114 -289 -114q-181 0 -266.5 82t-85.5 211zM209 279q0 -181 237 -181q122 0 187 61.5t65 182.5v135h-247q-242 0 -242 -180v-18zM326.5 1596.5q5.5 26.5 29.5 37.5q27 14 51 6t35 -30l172 -310q12 -22 5.5 -42 t-27.5 -31q-20 -11 -42 -4.5t-34 26.5l-182 303q-13 18 -7.5 44.5z" />
<glyph unicode="&#xe1;" horiz-adv-x="1003" d="M78 281v16q0 129 89 209t275 80h256v55q0 74 -9.5 122.5t-35 85t-72.5 53t-120 16.5q-125 0 -221 -56q-28 -15 -49 -6.5t-34 26t-8 42t29 39.5q112 69 287 69q107 0 179.5 -26t112 -80t56 -123.5t16.5 -169.5v-402q0 -64 13 -91.5t47 -43.5q33 -14 33 -49 q0 -28 -18 -43.5t-46 -15.5q-55 0 -98 43q-27 25 -41 71q-90 -114 -289 -114q-181 0 -266.5 82t-85.5 211zM209 279q0 -181 237 -181q122 0 187 61.5t65 182.5v135h-247q-242 0 -242 -180v-18zM341.5 1258q-6.5 20 4.5 42l172 310q11 22 35 30t51 -6q24 -11 30 -37.5 t-7 -44.5l-183 -303q-12 -20 -33.5 -26.5t-41.5 4.5q-21 11 -27.5 31z" />
<glyph unicode="&#xe2;" horiz-adv-x="1003" d="M78 281v16q0 129 89 209t275 80h256v55q0 74 -9.5 122.5t-35 85t-72.5 53t-120 16.5q-125 0 -221 -56q-28 -15 -49 -6.5t-34 26t-8 42t29 39.5q112 69 287 69q107 0 179.5 -26t112 -80t56 -123.5t16.5 -169.5v-402q0 -64 13 -91.5t47 -43.5q33 -14 33 -49 q0 -28 -18 -43.5t-46 -15.5q-55 0 -98 43q-27 25 -41 71q-90 -114 -289 -114q-181 0 -266.5 82t-85.5 211zM147.5 1311.5q0.5 22.5 18.5 40.5l264 266q19 19 45 16q29 0 45 -16l264 -268q18 -18 18.5 -40.5t-14.5 -39.5t-37.5 -18t-41.5 16l-234 223l-233 -223 q-19 -17 -42 -16t-38 20q-15 17 -14.5 39.5zM209 279q0 -181 237 -181q122 0 187 61.5t65 182.5v135h-247q-242 0 -242 -180v-18z" />
<glyph unicode="&#xe3;" horiz-adv-x="1003" d="M78 281v16q0 129 89 209t275 80h256v55q0 74 -9.5 122.5t-35 85t-72.5 53t-120 16.5q-125 0 -221 -56q-28 -15 -49 -6.5t-34 26t-8 42t29 39.5q112 69 287 69q107 0 179.5 -26t112 -80t56 -123.5t16.5 -169.5v-402q0 -64 13 -91.5t47 -43.5q33 -14 33 -49 q0 -28 -18 -43.5t-46 -15.5q-55 0 -98 43q-27 25 -41 71q-90 -114 -289 -114q-181 0 -266.5 82t-85.5 211zM145 1393q0 49 56 85t129 38q50 1 98 -20t90 -42t80 -20q30 1 52.5 10t33 20t24.5 20t29 9q23 0 38.5 -18t17.5 -43q0 -50 -55.5 -85.5t-129.5 -37.5 q-51 -1 -98.5 19.5t-89.5 41t-80 19.5q-30 -1 -52.5 -10t-33 -20t-24.5 -20t-29 -10q-23 0 -38.5 18.5t-17.5 45.5zM209 279q0 -181 237 -181q122 0 187 61.5t65 182.5v135h-247q-242 0 -242 -180v-18z" />
<glyph unicode="&#xe4;" horiz-adv-x="1003" d="M78 281v16q0 129 89 209t275 80h256v55q0 74 -9.5 122.5t-35 85t-72.5 53t-120 16.5q-125 0 -221 -56q-28 -15 -49 -6.5t-34 26t-8 42t29 39.5q112 69 287 69q107 0 179.5 -26t112 -80t56 -123.5t16.5 -169.5v-402q0 -64 13 -91.5t47 -43.5q33 -14 33 -49 q0 -28 -18 -43.5t-46 -15.5q-55 0 -98 43q-27 25 -41 71q-90 -114 -289 -114q-181 0 -266.5 82t-85.5 211zM172 1409q0 41 29.5 70.5t70.5 29.5t70 -29.5t29 -70.5t-29 -70.5t-70 -29.5t-70.5 29.5t-29.5 70.5zM209 279q0 -181 237 -181q122 0 187 61.5t65 182.5v135h-247 q-242 0 -242 -180v-18zM580 1409q0 41 28.5 70.5t69.5 29.5t70.5 -29.5t29.5 -70.5t-29.5 -70.5t-70.5 -29.5t-69.5 29.5t-28.5 70.5z" />
<glyph unicode="&#xe5;" horiz-adv-x="1003" d="M78 281v16q0 129 89 209t275 80h256v55q0 74 -9.5 122.5t-35 85t-72.5 53t-120 16.5q-125 0 -221 -56q-28 -15 -49 -6.5t-34 26t-8 42t29 39.5q112 69 287 69q107 0 179.5 -26t112 -80t56 -123.5t16.5 -169.5v-402q0 -64 13 -91.5t47 -43.5q33 -14 33 -49 q0 -28 -18 -43.5t-46 -15.5q-55 0 -98 43q-27 25 -41 71q-90 -114 -289 -114q-181 0 -266.5 82t-85.5 211zM209 279q0 -181 237 -181q122 0 187 61.5t65 182.5v135h-247q-242 0 -242 -180v-18zM227 1411q0 98 70 168t168 70t167.5 -70t69.5 -168q0 -101 -69 -170.5 t-168 -69.5t-168.5 69.5t-69.5 170.5zM315 1411q0 -62 44.5 -106.5t105.5 -44.5t105 44t44 107q0 61 -44.5 104.5t-104.5 43.5q-61 0 -105.5 -43.5t-44.5 -104.5z" />
<glyph unicode="&#xe6;" horiz-adv-x="1574" d="M78 281v14q0 128 89 207.5t275 79.5h256v59q0 74 -9.5 122.5t-35 85t-72.5 53t-120 16.5q-125 0 -221 -56q-28 -15 -49 -6.5t-34 26t-8 42t29 39.5q112 69 287 69q241 0 315 -151q94 151 310 151q105 0 182.5 -33.5t121 -93.5t63.5 -133.5t20 -163.5v-80q0 -24 -16 -39.5 t-38 -15.5h-594v-65q0 -142 65 -223t198 -81q155 0 270 66q22 13 44.5 4t31.5 -31q21 -48 -25 -75q-131 -80 -326 -80q-228 0 -323 170q-24 -49 -64 -84t-87 -53t-91.5 -25.5t-91.5 -7.5q-181 0 -266.5 82t-85.5 211zM209 279q0 -181 237 -181q122 0 187 61.5t65 182.5v131 h-247q-242 0 -242 -180v-14zM829 582h521v39q0 144 -60 220.5t-200 76.5q-134 0 -197.5 -79t-63.5 -221v-36z" />
<glyph unicode="&#xe7;" horiz-adv-x="849" d="M115 438v142q0 125 42 225.5t133 163.5t218 63q148 0 250 -59q23 -13 28.5 -36t-6.5 -44q-11 -21 -32 -27.5t-46 4.5q-82 43 -188 43q-128 0 -199 -89t-71 -238v-152q0 -157 67.5 -242.5t200.5 -85.5q110 0 195 46q27 13 47.5 5.5t29.5 -30.5q11 -21 5 -43.5t-29 -34.5 q-97 -52 -223 -59v-66q118 0 173.5 -45t55.5 -121q0 -77 -64.5 -123.5t-175.5 -46.5q-131 0 -131 47q0 20 25.5 27.5t77.5 7.5q75 0 113 25.5t38 68.5t-33.5 63.5t-101.5 25.5q-41 3 -54 14t-11 41l4 84q-170 17 -254 136.5t-84 309.5z" />
<glyph unicode="&#xe8;" horiz-adv-x="989" d="M115 414v190q0 90 21.5 165t66 135t121.5 94t180 34q105 0 182.5 -33.5t121 -93.5t63.5 -133.5t20 -163.5v-84q0 -25 -15 -40t-38 -15h-594v-61q0 -143 64.5 -223.5t197.5 -80.5q155 0 270 66q24 13 45.5 4.5t30.5 -31.5q21 -48 -23 -75q-134 -80 -325 -80 q-103 0 -180 34t-121.5 94t-66 134.5t-21.5 163.5zM244 580h520v41q0 144 -60 220.5t-200 76.5q-134 0 -197 -79t-63 -221v-38zM367 1596.5q6 26.5 30 37.5q27 14 51 6t35 -30l172 -310q12 -22 5.5 -42t-27.5 -31q-20 -11 -42 -4.5t-34 26.5l-183 303q-13 18 -7 44.5z" />
<glyph unicode="&#xe9;" horiz-adv-x="989" d="M115 414v190q0 90 21.5 165t66 135t121.5 94t180 34q105 0 182.5 -33.5t121 -93.5t63.5 -133.5t20 -163.5v-84q0 -25 -15 -40t-38 -15h-594v-61q0 -143 64.5 -223.5t197.5 -80.5q155 0 270 66q24 13 45.5 4.5t30.5 -31.5q21 -48 -23 -75q-134 -80 -325 -80 q-103 0 -180 34t-121.5 94t-66 134.5t-21.5 163.5zM244 580h520v41q0 144 -60 220.5t-200 76.5q-134 0 -197 -79t-63 -221v-38zM357.5 1258q-6.5 20 4.5 42l172 310q11 22 35 30t51 -6q24 -11 30 -37.5t-7 -44.5l-182 -303q-12 -20 -34 -26.5t-42 4.5q-21 11 -27.5 31z" />
<glyph unicode="&#xea;" horiz-adv-x="989" d="M115 414v190q0 90 21.5 165t66 135t121.5 94t180 34q105 0 182.5 -33.5t121 -93.5t63.5 -133.5t20 -163.5v-84q0 -25 -15 -40t-38 -15h-594v-61q0 -143 64.5 -223.5t197.5 -80.5q155 0 270 66q24 13 45.5 4.5t30.5 -31.5q21 -48 -23 -75q-134 -80 -325 -80 q-103 0 -180 34t-121.5 94t-66 134.5t-21.5 163.5zM179.5 1311.5q0.5 22.5 18.5 40.5l265 266q19 19 45 16q29 0 45 -16l264 -268q18 -18 18.5 -40.5t-14.5 -39.5t-38 -18t-42 16l-233 223l-234 -223q-19 -17 -42 -16t-38 20q-15 17 -14.5 39.5zM244 580h520v41 q0 144 -60 220.5t-200 76.5q-134 0 -197 -79t-63 -221v-38z" />
<glyph unicode="&#xeb;" horiz-adv-x="989" d="M115 414v190q0 90 21.5 165t66 135t121.5 94t180 34q105 0 182.5 -33.5t121 -93.5t63.5 -133.5t20 -163.5v-84q0 -25 -15 -40t-38 -15h-594v-61q0 -143 64.5 -223.5t197.5 -80.5q155 0 270 66q24 13 45.5 4.5t30.5 -31.5q21 -48 -23 -75q-134 -80 -325 -80 q-103 0 -180 34t-121.5 94t-66 134.5t-21.5 163.5zM201 1409q0 41 29.5 70.5t70.5 29.5t69.5 -29.5t28.5 -70.5t-28.5 -70.5t-69.5 -29.5t-70.5 29.5t-29.5 70.5zM244 580h520v41q0 144 -60 220.5t-200 76.5q-134 0 -197 -79t-63 -221v-38zM608 1409q0 41 28.5 70.5 t69.5 29.5t71 -29.5t30 -70.5t-30 -70.5t-71 -29.5t-69.5 29.5t-28.5 70.5z" />
<glyph unicode="&#xec;" horiz-adv-x="430" d="M81 1596.5q6 26.5 30 37.5q27 14 51 6t35 -30l172 -310q12 -22 5.5 -42t-27.5 -31q-20 -11 -42 -4.5t-34 26.5l-183 303q-13 18 -7 44.5zM150 53v914q0 27 19 46t46 19q26 0 46 -19.5t20 -45.5v-914q0 -27 -19.5 -46t-46.5 -19q-28 0 -46.5 18.5t-18.5 46.5z" />
<glyph unicode="&#xed;" horiz-adv-x="430" d="M62.5 1258q-6.5 20 4.5 42l172 310q11 22 35 30t51 -6q24 -11 30 -37.5t-7 -44.5l-182 -303q-12 -20 -34 -26.5t-42 4.5q-21 11 -27.5 31zM150 53v914q0 27 19 46t46 19q26 0 46 -19.5t20 -45.5v-914q0 -27 -19.5 -46t-46.5 -19q-28 0 -46.5 18.5t-18.5 46.5z" />
<glyph unicode="&#xee;" horiz-adv-x="430" d="M-115.5 1311.5q0.5 22.5 18.5 40.5l265 266q19 19 45 16q29 0 45 -16l264 -268q18 -18 18.5 -40.5t-14.5 -39.5t-38 -18t-42 16l-233 223l-234 -223q-19 -17 -42 -16t-38 20q-15 17 -14.5 39.5zM150 53v914q0 27 19 46t46 19q26 0 46 -19.5t20 -45.5v-914 q0 -27 -19.5 -46t-46.5 -19q-28 0 -46.5 18.5t-18.5 46.5z" />
<glyph unicode="&#xef;" horiz-adv-x="430" d="M-86 1409q0 41 29.5 70.5t70.5 29.5t69.5 -29.5t28.5 -70.5t-28.5 -70.5t-69.5 -29.5t-70.5 29.5t-29.5 70.5zM150 53v914q0 27 19 46t46 19q26 0 46 -19.5t20 -45.5v-914q0 -27 -19.5 -46t-46.5 -19q-28 0 -46.5 18.5t-18.5 46.5zM321 1409q0 41 28.5 70.5t69.5 29.5 t71 -29.5t30 -70.5t-30 -70.5t-71 -29.5t-69.5 29.5t-28.5 70.5z" />
<glyph unicode="&#xf0;" horiz-adv-x="1112" d="M102 457q0 105 40 191t104.5 138.5t141.5 80.5t155 28q143 0 270 -78q-75 207 -252 391l-188 -141q-19 -14 -41 -11t-35 21q-12 17 -9.5 39t19.5 35l176 133q-72 61 -121 98q-28 20 -28 52q0 29 19 48t46 19q22 0 39 -14q90 -66 152 -123l170 129q19 12 41 9.5t35 -19.5 q12 -19 8.5 -41t-21.5 -35l-155 -119q342 -358 342 -796q0 -125 -37 -224t-101 -160.5t-146 -93.5t-177 -32q-200 0 -323.5 131t-123.5 344zM233 457q0 -161 86.5 -256t229.5 -95q68 0 126 23t104.5 68.5t73 121t26.5 173.5q0 78 -17 172q-127 110 -307 110 q-79 0 -151 -34.5t-121.5 -109t-49.5 -173.5z" />
<glyph unicode="&#xf1;" horiz-adv-x="1093" d="M80 958q0 29 18.5 45.5t46.5 16.5q21 0 49.5 -12t49.5 -31q34 -31 47 -76q112 131 325 131q94 0 160.5 -28t102.5 -80t51.5 -115t15.5 -145v-611q0 -28 -18.5 -46.5t-46.5 -18.5q-27 0 -46.5 19t-19.5 46v602q2 124 -45.5 188t-171.5 64q-101 0 -174 -40.5t-113 -112.5 v-701q0 -27 -19 -46t-46 -19q-28 0 -47 18.5t-19 46.5v723q0 62 -15.5 89.5t-51.5 43.5q-33 14 -33 49zM231 1393q0 49 55.5 85t128.5 38q50 1 98 -20t90.5 -42t80.5 -20q30 1 52.5 10t33 20t24.5 20t29 9q23 0 38 -18t17 -43q0 -50 -55 -85.5t-129 -37.5q-51 -1 -98.5 19.5 t-89.5 41t-80 19.5q-39 -1 -63.5 -15.5t-41.5 -29t-35 -15.5q-23 0 -38 18.5t-17 45.5z" />
<glyph unicode="&#xf2;" horiz-adv-x="1024" d="M115 406v208q0 89 22.5 162.5t68.5 132t124 91t182 32.5t182 -32.5t124 -91t68.5 -132t22.5 -162.5v-208q0 -89 -22.5 -162.5t-68.5 -132t-124 -91t-182 -32.5t-182 32.5t-124 91t-68.5 132t-22.5 162.5zM244 406q0 -295 268 -295q137 0 201.5 77.5t64.5 217.5v208 q0 138 -64.5 215.5t-201.5 77.5q-268 0 -268 -293v-208zM378 1596.5q6 26.5 30 37.5q27 14 51 6t35 -30l172 -310q12 -22 5.5 -42t-27.5 -31q-20 -11 -42 -4.5t-34 26.5l-183 303q-13 18 -7 44.5z" />
<glyph unicode="&#xf3;" horiz-adv-x="1024" d="M115 406v208q0 89 22.5 162.5t68.5 132t124 91t182 32.5t182 -32.5t124 -91t68.5 -132t22.5 -162.5v-208q0 -89 -22.5 -162.5t-68.5 -132t-124 -91t-182 -32.5t-182 32.5t-124 91t-68.5 132t-22.5 162.5zM244 406q0 -295 268 -295q137 0 201.5 77.5t64.5 217.5v208 q0 138 -64.5 215.5t-201.5 77.5q-268 0 -268 -293v-208zM355.5 1258q-6.5 20 4.5 42l172 310q11 22 35 30t51 -6q24 -11 30 -37.5t-7 -44.5l-182 -303q-12 -20 -34 -26.5t-42 4.5q-21 11 -27.5 31z" />
<glyph unicode="&#xf4;" horiz-adv-x="1024" d="M115 406v208q0 89 22.5 162.5t68.5 132t124 91t182 32.5t182 -32.5t124 -91t68.5 -132t22.5 -162.5v-208q0 -89 -22.5 -162.5t-68.5 -132t-124 -91t-182 -32.5t-182 32.5t-124 91t-68.5 132t-22.5 162.5zM181.5 1311.5q0.5 22.5 18.5 40.5l265 266q19 19 45 16 q29 0 45 -16l264 -268q18 -18 18.5 -40.5t-14.5 -39.5t-38 -18t-42 16l-233 223l-234 -223q-19 -17 -42 -16t-38 20q-15 17 -14.5 39.5zM244 406q0 -295 268 -295q137 0 201.5 77.5t64.5 217.5v208q0 138 -64.5 215.5t-201.5 77.5q-268 0 -268 -293v-208z" />
<glyph unicode="&#xf5;" horiz-adv-x="1024" d="M115 406v208q0 89 22.5 162.5t68.5 132t124 91t182 32.5t182 -32.5t124 -91t68.5 -132t22.5 -162.5v-208q0 -89 -22.5 -162.5t-68.5 -132t-124 -91t-182 -32.5t-182 32.5t-124 91t-68.5 132t-22.5 162.5zM188 1393q0 49 55.5 85t128.5 38q50 1 98 -20t90.5 -42t80.5 -20 q30 1 52.5 10t33 20t24.5 20t29 9q23 0 38 -18t17 -43q0 -50 -55 -85.5t-129 -37.5q-51 -1 -98.5 19.5t-89.5 41t-80 19.5q-39 -1 -63.5 -15.5t-41.5 -29t-35 -15.5q-23 0 -38 18.5t-17 45.5zM244 406q0 -295 268 -295q137 0 201.5 77.5t64.5 217.5v208q0 138 -64.5 215.5 t-201.5 77.5q-268 0 -268 -293v-208z" />
<glyph unicode="&#xf6;" horiz-adv-x="1024" d="M115 406v208q0 89 22.5 162.5t68.5 132t124 91t182 32.5t182 -32.5t124 -91t68.5 -132t22.5 -162.5v-208q0 -89 -22.5 -162.5t-68.5 -132t-124 -91t-182 -32.5t-182 32.5t-124 91t-68.5 132t-22.5 162.5zM205 1409q0 41 29.5 70.5t70.5 29.5t69.5 -29.5t28.5 -70.5 t-28.5 -70.5t-69.5 -29.5t-70.5 29.5t-29.5 70.5zM244 406q0 -295 268 -295q137 0 201.5 77.5t64.5 217.5v208q0 138 -64.5 215.5t-201.5 77.5q-268 0 -268 -293v-208zM612 1409q0 41 28.5 70.5t69.5 29.5t71 -29.5t30 -70.5t-30 -70.5t-71 -29.5t-69.5 29.5t-28.5 70.5z " />
<glyph unicode="&#xf7;" horiz-adv-x="1144" d="M180 559q0 26 19 44t45 18h657q26 0 45 -18t19 -44t-19 -44.5t-45 -18.5h-657q-26 0 -45 18.5t-19 44.5zM473 205q0 41 29 70.5t69 29.5q41 0 70 -29.5t29 -70.5q0 -40 -29 -69.5t-70 -29.5q-40 0 -69 29.5t-29 69.5zM473 911q0 41 29 70t69 29q41 0 70 -29t29 -70 q0 -40 -29 -69t-70 -29q-40 0 -69 29t-29 69z" />
<glyph unicode="&#xf8;" horiz-adv-x="1024" d="M115 406v208q0 89 22.5 162.5t68.5 132t124 91t182 32.5q95 0 168 -28l33 75q9 17 26.5 23.5t36.5 -0.5q18 -7 25.5 -26t-0.5 -36l-37 -82q145 -108 145 -344v-208q0 -89 -22.5 -162.5t-68.5 -132t-124 -91t-182 -32.5q-92 0 -168 26l-35 -73q-7 -19 -24.5 -26t-36.5 1 q-19 9 -26 27t1 37l37 79q-145 108 -145 347zM244 406q0 -150 71 -224l314 707q-49 18 -117 18q-268 0 -268 -293v-208zM395 129q49 -18 117 -18q137 0 201.5 77.5t64.5 217.5v208q0 150 -69 222z" />
<glyph unicode="&#xf9;" horiz-adv-x="1095" d="M147 354v613q0 26 20 45.5t46 19.5q27 0 46.5 -19t19.5 -46v-602q0 -126 47 -188t172 -62q210 0 286 161v691q0 27 19 46t47 19q27 0 46 -19t19 -46v-736q0 -64 15 -91.5t51 -43.5q33 -11 33 -49q0 -28 -18 -43.5t-46 -15.5q-51 0 -100 43q-34 34 -47 84 q-114 -127 -324 -127q-332 0 -332 366zM378 1596.5q6 26.5 30 37.5q27 14 51 6t35 -30l172 -310q12 -22 5.5 -42t-27.5 -31q-20 -11 -42 -4.5t-34 26.5l-183 303q-13 18 -7 44.5z" />
<glyph unicode="&#xfa;" horiz-adv-x="1095" d="M147 354v613q0 26 20 45.5t46 19.5q27 0 46.5 -19t19.5 -46v-602q0 -126 47 -188t172 -62q210 0 286 161v691q0 27 19 46t47 19q27 0 46 -19t19 -46v-736q0 -64 15 -91.5t51 -43.5q33 -11 33 -49q0 -28 -18 -43.5t-46 -15.5q-51 0 -100 43q-34 34 -47 84 q-114 -127 -324 -127q-332 0 -332 366zM380.5 1258q-6.5 20 4.5 42l172 310q11 22 35 30t51 -6q24 -11 30 -37.5t-7 -44.5l-182 -303q-12 -20 -34 -26.5t-42 4.5q-21 11 -27.5 31z" />
<glyph unicode="&#xfb;" horiz-adv-x="1095" d="M147 354v613q0 26 20 45.5t46 19.5q27 0 46.5 -19t19.5 -46v-602q0 -126 47 -188t172 -62q210 0 286 161v691q0 27 19 46t47 19q27 0 46 -19t19 -46v-736q0 -64 15 -91.5t51 -43.5q33 -11 33 -49q0 -28 -18 -43.5t-46 -15.5q-51 0 -100 43q-34 34 -47 84 q-114 -127 -324 -127q-332 0 -332 366zM202.5 1311.5q0.5 22.5 18.5 40.5l265 266q19 19 45 16q29 0 45 -16l264 -268q18 -18 18.5 -40.5t-14.5 -39.5t-38 -18t-42 16l-233 223l-234 -223q-19 -17 -42 -16t-38 20q-15 17 -14.5 39.5z" />
<glyph unicode="&#xfc;" horiz-adv-x="1095" d="M147 354v613q0 26 20 45.5t46 19.5q27 0 46.5 -19t19.5 -46v-602q0 -126 47 -188t172 -62q210 0 286 161v691q0 27 19 46t47 19q27 0 46 -19t19 -46v-736q0 -64 15 -91.5t51 -43.5q33 -11 33 -49q0 -28 -18 -43.5t-46 -15.5q-51 0 -100 43q-34 34 -47 84 q-114 -127 -324 -127q-332 0 -332 366zM228 1409q0 41 29.5 70.5t70.5 29.5t69.5 -29.5t28.5 -70.5t-28.5 -70.5t-69.5 -29.5t-70.5 29.5t-29.5 70.5zM635 1409q0 41 28.5 70.5t69.5 29.5t71 -29.5t30 -70.5t-30 -70.5t-71 -29.5t-69.5 29.5t-28.5 70.5z" />
<glyph unicode="&#xfd;" horiz-adv-x="917" d="M16 -309q0 25 16.5 43t45.5 18q100 3 173.5 55.5t139.5 184.5q-240 602 -354 958q-11 35 10 58.5t53 23.5q43 0 58 -45q118 -366 301 -829l284 829q17 45 60 45q33 0 53.5 -26t9.5 -62l-282 -805q-94 -270 -207.5 -390t-292.5 -124q-32 -1 -50 18.5t-18 47.5zM339.5 1258 q-6.5 20 4.5 42l172 310q11 22 35 30t51 -6q24 -11 30 -37.5t-7 -44.5l-183 -303q-12 -20 -33.5 -26.5t-41.5 4.5q-21 11 -27.5 31z" />
<glyph unicode="&#xfe;" horiz-adv-x="999" d="M133 -311v1763q0 27 19.5 46.5t46.5 19.5q26 0 45.5 -20t19.5 -46v-504q118 82 250 82q195 0 284 -102t89 -299v-197q0 -101 -20 -180t-62.5 -140t-114 -93.5t-168.5 -32.5q-147 0 -258 90v-387q0 -27 -19 -46.5t-46 -19.5q-28 0 -47 19t-19 47zM264 213 q53 -58 119.5 -83.5t124.5 -25.5q248 0 248 316v213q0 142 -59 211t-195 69q-123 0 -238 -98v-602z" />
<glyph unicode="&#xff;" horiz-adv-x="907" d="M16 -309q0 25 16.5 43t45.5 18q100 3 173.5 55.5t139.5 184.5q-240 602 -354 958q-11 35 10 58.5t53 23.5q43 0 58 -45q118 -366 301 -829l284 829q17 45 60 45q33 0 53.5 -26t9.5 -62l-282 -805q-94 -270 -207.5 -390t-292.5 -124q-32 -1 -50 18.5t-18 47.5zM156 1409 q0 41 29.5 70.5t70.5 29.5t69.5 -29.5t28.5 -70.5t-28.5 -70.5t-69.5 -29.5t-70.5 29.5t-29.5 70.5zM563 1409q0 41 28.5 70.5t69.5 29.5t71 -29.5t30 -70.5t-30 -70.5t-71 -29.5t-69.5 29.5t-28.5 70.5z" />
<glyph unicode="&#x152;" horiz-adv-x="1953" d="M139 537v421q0 87 15.5 165t53 150t93.5 124t143 83t197 31q237 0 365 -141v57q0 27 19 46.5t46 19.5h707q26 0 44.5 -19.5t18.5 -46.5q0 -28 -18.5 -46.5t-44.5 -18.5h-637v-553h579q26 0 45 -19t19 -45t-19 -44.5t-45 -18.5h-579v-553h667q26 0 45 -18.5t19 -44.5 q0 -28 -19 -47t-45 -19h-737q-28 0 -46.5 19t-18.5 47v59q-128 -141 -365 -141q-109 0 -196.5 31.5t-143.5 83.5t-93.5 124.5t-53 150t-15.5 163.5zM274 537q0 -92 19.5 -167.5t61 -136t114.5 -94t172 -33.5t171.5 33.5t113.5 94t60.5 136t19.5 167.5v421q0 91 -19.5 165.5 t-60.5 135t-113.5 94t-171.5 33.5q-100 0 -172.5 -33t-114 -93t-61 -135t-19.5 -167v-421z" />
<glyph unicode="&#x153;" horiz-adv-x="1654" d="M115 406v208q0 89 22.5 162.5t68.5 132t124 91t182 32.5q238 0 334 -176q93 176 323 176q105 0 182.5 -33.5t121 -93.5t63.5 -133.5t20 -163.5v-84q0 -25 -15 -40t-38 -15h-594v-61q0 -143 64.5 -223.5t197.5 -80.5q156 0 271 66q22 13 44.5 4t31.5 -31q21 -48 -25 -75 q-131 -80 -326 -80q-228 0 -323 174q-92 -174 -332 -174q-104 0 -182 32.5t-124 91t-68.5 132t-22.5 162.5zM244 406q0 -295 268 -295q137 0 201.5 77.5t64.5 217.5v208q0 138 -64.5 215.5t-201.5 77.5q-268 0 -268 -293v-208zM909 580h521v41q0 143 -60.5 220t-200.5 77 q-134 0 -197 -79t-63 -221v-38z" />
<glyph unicode="&#x178;" horiz-adv-x="1007" d="M-10 1446q0 27 21 46t48 19q43 0 60 -41q137 -321 375 -772q225 420 376 772q17 41 58 41q27 0 48 -18.5t21 -46.5q0 -15 -6 -27q-161 -377 -432 -874v-496q0 -28 -19.5 -47.5t-47.5 -19.5t-48 19.5t-20 47.5v496q-267 496 -428 872q-6 15 -6 29zM176 1819 q0 41 29.5 69.5t70.5 28.5q42 0 71.5 -28.5t29.5 -69.5t-30 -71t-71 -30t-70.5 30t-29.5 71zM584 1819q0 41 29 69.5t69 28.5q41 0 70.5 -28.5t29.5 -69.5t-29.5 -71t-70.5 -30q-40 0 -69 30t-29 71z" />
<glyph unicode="&#x2c6;" horiz-adv-x="1085" d="M214.5 1311.5q0.5 22.5 18.5 40.5l265 266q19 19 45 16q29 0 45 -16l264 -268q18 -18 18.5 -40.5t-14.5 -39.5t-38 -18t-42 16l-233 223l-234 -223q-19 -17 -42 -16t-38 20q-15 17 -14.5 39.5z" />
<glyph unicode="&#x2dc;" horiz-adv-x="1085" d="M219 1393q0 49 55.5 85t128.5 38q50 1 98 -20t90.5 -42t80.5 -20q30 1 52.5 10t33 20t24.5 20t29 9q23 0 38 -18t17 -43q0 -50 -55 -85.5t-129 -37.5q-51 -1 -98.5 19.5t-89.5 41t-80 19.5q-39 -1 -63.5 -15.5t-41.5 -29t-35 -15.5q-23 0 -38 18.5t-17 45.5z" />
<glyph unicode="&#x2000;" horiz-adv-x="1029" />
<glyph unicode="&#x2001;" horiz-adv-x="2059" />
<glyph unicode="&#x2002;" horiz-adv-x="1029" />
<glyph unicode="&#x2003;" horiz-adv-x="2059" />
<glyph unicode="&#x2004;" horiz-adv-x="686" />
<glyph unicode="&#x2005;" horiz-adv-x="514" />
<glyph unicode="&#x2006;" horiz-adv-x="343" />
<glyph unicode="&#x2007;" horiz-adv-x="343" />
<glyph unicode="&#x2008;" horiz-adv-x="257" />
<glyph unicode="&#x2009;" horiz-adv-x="411" />
<glyph unicode="&#x200a;" horiz-adv-x="114" />
<glyph unicode="&#x2010;" horiz-adv-x="985" d="M154 600q0 26 18 44t43 18h555q25 0 43 -18t18 -44t-18 -44.5t-43 -18.5h-555q-25 0 -43 18.5t-18 44.5z" />
<glyph unicode="&#x2011;" horiz-adv-x="985" d="M154 600q0 26 18 44t43 18h555q25 0 43 -18t18 -44t-18 -44.5t-43 -18.5h-555q-25 0 -43 18.5t-18 44.5z" />
<glyph unicode="&#x2012;" horiz-adv-x="985" d="M154 600q0 26 18 44t43 18h555q25 0 43 -18t18 -44t-18 -44.5t-43 -18.5h-555q-25 0 -43 18.5t-18 44.5z" />
<glyph unicode="&#x2013;" horiz-adv-x="761" d="M-33 557q0 25 19 43t45 18h702q26 0 44 -18t18 -43q0 -26 -18 -44.5t-44 -18.5h-702q-26 0 -45 18.5t-19 44.5z" />
<glyph unicode="&#x2014;" horiz-adv-x="1509" d="M-33 557q0 25 19 43t45 18h1448q26 0 44.5 -18t18.5 -43q0 -26 -18.5 -44.5t-44.5 -18.5h-1448q-26 0 -45 18.5t-19 44.5z" />
<glyph unicode="&#x2018;" horiz-adv-x="370" d="M86 1282q-1 93 59.5 163.5t100.5 72.5q14 0 24.5 -11t10.5 -24q0 -16 -15.5 -30t-34 -37t-22.5 -60q34 -8 55 -33t21 -59q1 -41 -28 -70t-71 -29q-44 0 -72 32.5t-28 84.5z" />
<glyph unicode="&#x2019;" horiz-adv-x="370" d="M86 1419q0 41 28 69t70 30q45 0 73 -32.5t28 -84.5q1 -50 -18 -96.5t-46 -75.5t-52.5 -46.5t-41.5 -17.5q-14 0 -25.5 10t-11.5 25q0 13 10 24.5t22.5 20.5t24.5 30t15 50q-33 8 -54.5 34.5t-21.5 59.5z" />
<glyph unicode="&#x201a;" horiz-adv-x="370" d="M86 82q0 41 29 68.5t69 27.5q45 0 73 -33t28 -86q0 -49 -19.5 -95t-47 -74t-53.5 -45t-42 -17q-14 0 -24.5 10t-10.5 25q0 13 10 24.5t22.5 20.5t25 30t16.5 50q-34 7 -55 33.5t-21 60.5z" />
<glyph unicode="&#x201c;" horiz-adv-x="675" d="M86 1282q-1 93 59.5 163.5t100.5 72.5q14 0 24.5 -11t10.5 -24q0 -16 -15.5 -30t-34 -37t-22.5 -60q34 -8 55 -33t21 -59q1 -41 -28 -70t-71 -29q-44 0 -72 32.5t-28 84.5zM389 1282q0 94 60 164t100 72q13 0 24 -10.5t13 -24.5q0 -13 -10 -25t-22.5 -21.5t-25 -30.5 t-16.5 -50q34 -8 56 -33.5t22 -58.5q0 -41 -28.5 -70t-69.5 -29q-44 0 -73 32.5t-30 84.5z" />
<glyph unicode="&#x201d;" horiz-adv-x="675" d="M86 1419q0 41 28 69t70 30q45 0 73 -32.5t28 -84.5q1 -50 -18 -96.5t-46 -75.5t-52.5 -46.5t-41.5 -17.5q-14 0 -25.5 10t-11.5 25q0 13 10 24.5t22.5 20.5t24.5 30t15 50q-33 8 -54.5 34.5t-21.5 59.5zM389 1419q0 41 29 69t69 30q46 0 73.5 -32t29.5 -85 q1 -50 -18.5 -96.5t-46.5 -75.5t-53 -46.5t-42 -17.5q-14 0 -24.5 10t-10.5 25q0 13 10 24.5t22.5 20.5t24.5 30t15 50q-33 7 -54.5 33.5t-23.5 60.5z" />
<glyph unicode="&#x201e;" horiz-adv-x="673" d="M86 82q0 41 29 68.5t69 27.5q45 0 73 -33t28 -86q0 -49 -19.5 -95t-47 -74t-53.5 -45t-42 -17q-14 0 -24.5 10t-10.5 25q0 13 10 24.5t22.5 20.5t25 30t16.5 50q-34 7 -55 33.5t-21 60.5zM389 82q0 41 29 68.5t69 27.5q45 0 73 -33t28 -86q0 -49 -19.5 -95t-47 -74 t-53.5 -45t-42 -17q-14 0 -24.5 10t-10.5 25q0 13 10 24.5t22.5 20.5t25 30t16.5 50q-34 7 -55 33.5t-21 60.5z" />
<glyph unicode="&#x2022;" horiz-adv-x="1021" d="M113 686q0 146 103 249t249 103t249 -103t103 -249t-103 -249t-249 -103t-249 103t-103 249z" />
<glyph unicode="&#x2026;" horiz-adv-x="1380" d="M123 80q0 41 29 69.5t69 28.5q41 0 69.5 -28.5t28.5 -69.5q0 -40 -28.5 -69t-69.5 -29q-40 0 -69 29t-29 69zM584 80q0 41 28.5 69.5t69.5 28.5q40 0 69 -28.5t29 -69.5q0 -40 -29 -69t-69 -29q-41 0 -69.5 29t-28.5 69zM1044 80q0 41 29 69.5t70 28.5q40 0 69 -28.5 t29 -69.5q0 -40 -29 -69t-69 -29q-41 0 -70 29t-29 69z" />
<glyph unicode="&#x202f;" horiz-adv-x="411" />
<glyph unicode="&#x2039;" horiz-adv-x="690" d="M70 551q0 25 18 43l395 410q19 19 44 19t44 -17q19 -19 20 -44t-18 -44l-354 -367l354 -367q19 -19 18 -44t-20 -44t-44 -18t-44 20l-395 410q-18 18 -18 43z" />
<glyph unicode="&#x203a;" horiz-adv-x="690" d="M99 140q-1 25 18 44l354 367l-354 367q-19 19 -18 44t20 44q19 17 44 17t44 -19l395 -410q19 -19 19 -43t-19 -43l-395 -410q-19 -19 -44 -20t-44 18t-20 44z" />
<glyph unicode="&#x205f;" horiz-adv-x="514" />
<glyph unicode="&#x2122;" horiz-adv-x="1658" d="M61 1413q0 20 15 34.5t35 14.5h571q20 0 33.5 -14.5t13.5 -34.5t-13.5 -34.5t-33.5 -14.5h-236v-752q0 -20 -14.5 -34.5t-36.5 -14.5q-20 0 -34.5 14.5t-14.5 34.5v752h-235q-20 0 -35 14.5t-15 34.5zM797 610v815q0 21 13.5 34.5t35.5 13.5q35 0 47 -31l274 -580 l273 582q14 29 47 29q21 0 35 -13.5t14 -34.5v-815q0 -20 -13.5 -33.5t-33.5 -13.5t-34.5 13.5t-14.5 33.5v625l-230 -490q-11 -28 -45 -28q-31 0 -47 28l-227 488v-623q0 -20 -14 -33.5t-33 -13.5q-20 0 -33.5 13.5t-13.5 33.5z" />
<glyph unicode="&#x25fc;" horiz-adv-x="1034" d="M0 0v1034h1034v-1034h-1034z" />
<glyph unicode="&#xfb01;" horiz-adv-x="915" d="M37 963q0 25 17 42t42 17h72v74q0 93 12 159t43 122t91 84t149 28h43q26 0 43.5 -17t17.5 -42q0 -26 -17.5 -44t-43.5 -18h-29q-108 0 -144 -58.5t-36 -219.5v-68h147q25 0 42.5 -17t17.5 -42t-17.5 -42.5t-42.5 -17.5h-147v-848q0 -27 -18.5 -46t-45.5 -19 q-28 0 -46.5 18.5t-18.5 46.5v848h-72q-25 0 -42 17.5t-17 42.5zM621 1378q0 33 23 56.5t56 23.5t56.5 -23.5t23.5 -56.5q0 -34 -23 -58t-57 -24q-33 0 -56 24t-23 58zM633 55v914q0 27 19 46t46 19q28 0 47 -19t19 -46v-914q0 -28 -19 -46.5t-47 -18.5t-46.5 18.5 t-18.5 46.5z" />
<glyph unicode="&#xfb02;" horiz-adv-x="931" d="M37 963q0 25 17 42t42 17h72v74q0 93 12 159t43 122t91 84t149 28h43q26 0 43.5 -17t17.5 -42q0 -26 -17.5 -44t-43.5 -18h-29q-108 0 -144 -58.5t-36 -219.5v-68h147q25 0 42.5 -17t17.5 -42t-17.5 -42.5t-42.5 -17.5h-147v-848q0 -27 -18.5 -46t-45.5 -19 q-28 0 -46.5 18.5t-18.5 46.5v848h-72q-25 0 -42 17.5t-17 42.5zM621 199v1220q0 28 18.5 47t46.5 19q27 0 46.5 -19.5t19.5 -46.5v-1186q0 -64 14.5 -91.5t50.5 -43.5q33 -14 33 -49q0 -28 -18 -43.5t-46 -15.5q-21 0 -50 12t-50 31q-65 57 -65 166z" />
</font>
</defs>
</svg>
