<?xml version="1.0" encoding="UTF-8" standalone="no"?>
<!-- Created with Inkscape (http://www.inkscape.org/) -->

<svg
   xmlns:dc="http://purl.org/dc/elements/1.1/"
   xmlns:cc="http://creativecommons.org/ns#"
   xmlns:rdf="http://www.w3.org/1999/02/22-rdf-syntax-ns#"
   xmlns:svg="http://www.w3.org/2000/svg"
   xmlns="http://www.w3.org/2000/svg"
   xmlns:sodipodi="http://sodipodi.sourceforge.net/DTD/sodipodi-0.dtd"
   xmlns:inkscape="http://www.inkscape.org/namespaces/inkscape"
   width="34.43111mm"
   height="25.377756mm"
   viewBox="0 0 122 89.921183"
   id="svg2"
   version="1.1"
   inkscape:version="0.91 r13725"
   sodipodi:docname="logo.svg">
  <defs
     id="defs4" />
  <sodipodi:namedview
     id="base"
     pagecolor="#ffffff"
     bordercolor="#666666"
     borderopacity="1.0"
     inkscape:pageopacity="0.0"
     inkscape:pageshadow="2"
     inkscape:zoom="4"
     inkscape:cx="56.432143"
     inkscape:cy="68.39724"
     inkscape:document-units="px"
     inkscape:current-layer="layer1"
     showgrid="false"
     fit-margin-top="0"
     fit-margin-left="0"
     fit-margin-right="0"
     fit-margin-bottom="0"
     inkscape:window-width="1052"
     inkscape:window-height="634"
     inkscape:window-x="93"
     inkscape:window-y="232"
     inkscape:window-maximized="0" />
  <metadata
     id="metadata7">
    <rdf:RDF>
      <cc:Work
         rdf:about="">
        <dc:format>image/svg+xml</dc:format>
        <dc:type
           rdf:resource="http://purl.org/dc/dcmitype/StillImage" />
        <dc:title></dc:title>
      </cc:Work>
    </rdf:RDF>
  </metadata>
  <g
     inkscape:label="Layer 1"
     inkscape:groupmode="layer"
     id="layer1"
     transform="translate(-31.201368,-760.11971)">
    <rect
       style="fill:#002d5a;fill-opacity:1;stroke:#ffffff;stroke-width:3.28814101;stroke-miterlimit:4;stroke-dasharray:none"
       id="rect4155"
       width="118.71185"
       height="86.633041"
       x="32.845436"
       y="761.76379"
       ry="30.73473" />
    <path
       style="fill:#ffffff;fill-opacity:1"
       d="m 57.615846,788.1743 c -1.62414,0.0167 -3.170961,-0.007 -4.246073,0.13863 -0.57981,0.0785 -0.843575,-0.0175 -1.312832,0.47442 -0.96736,1.01401 -1.122602,1.73131 -1.230979,5.68465 l -0.102408,3.73403 -2.53789,0 -2.538238,0 0,2.00635 0,2.00635 2.563666,0 2.563666,0 0,9.10276 c 0,5.00658 0.067,9.16975 0.148735,9.25149 0.08174,0.0817 1.736977,0.14873 3.6783,0.14873 l 3.529571,0 0,-9.25149 0,-9.25149 2.229275,0 2.229274,0 0,-2.00635 0,-2.00635 -2.229274,0 -2.229275,0 0,-2.40761 c 0,-1.57536 0.09247,-2.50009 0.267513,-2.67513 0.167535,-0.16753 1.000697,-0.26751 2.229275,-0.26751 l 1.961761,0 0,-2.34075 0,-2.34073 z m 36.339965,0.44585 c -0.159435,0 -0.868328,0.56034 -1.575474,1.24526 -1.404079,1.35997 -2.663703,2.02508 -4.245026,2.24182 l -1.023376,0.14037 0,2.97922 0,2.97921 -1.894883,0 -1.894883,0 0,2.00635 0,2.00635 1.894883,0 1.894883,0 0.0025,6.96648 c 0.0021,6.85863 0.01034,6.98375 0.529106,8.08113 0.477108,1.00921 1.061314,1.68461 2.211858,2.55669 0.825885,0.626 2.475657,0.87514 5.505264,0.83111 l 3.009521,-0.0439 0.06479,-1.72769 0.06514,-1.72768 -1.579998,0 c -1.380297,0 -1.649191,-0.0692 -2.127216,-0.54722 -0.322167,-0.32194 -0.625452,-0.85254 -0.618551,-1.515 0.01874,-1.80032 0.07133,-4.5652 0.07133,-5.95307 l 0,-6.92086 2.117812,0 2.117814,0 0,-2.00634 0,-2.00635 -2.117814,0 -2.117812,0 0,-4.79294 c 0,-3.78466 -0.06091,-4.79294 -0.289802,-4.79294 z m -20.608949,9.58588 c -2.007087,0 -3.827274,0.11021 -4.334899,0.26229 -1.176303,0.35243 -2.701554,1.73605 -3.337984,3.02833 -0.500091,1.01545 -0.522905,1.29192 -0.591806,7.13055 -0.07984,6.76565 0.05502,7.9214 1.110459,9.51482 0.698892,1.05513 2.124317,2.05722 3.382227,2.37766 1.240634,0.31604 7.070684,0.10727 7.967566,-0.28528 1.230892,-0.53874 2.454535,-1.73788 3.02659,-2.96632 0.507416,-1.08964 0.519831,-1.27323 0.520742,-7.69274 4.63e-4,-3.84964 -0.0949,-6.9207 -0.229894,-7.40677 -0.352898,-1.27068 -1.529483,-2.64423 -2.861483,-3.34008 -1.155323,-0.60355 -1.297476,-0.62246 -4.651518,-0.62246 z m 57.970888,0 -0.93141,2.73087 c -0.51223,1.50197 -1.00906,2.8556 -1.10419,3.00813 -0.1053,0.16881 -0.57097,-0.8778 -1.19057,-2.67514 l -1.0178,-2.95239 c -0.85732,-0.11851 -7.17551,-9.3e-4 -7.13787,0.16162 0.0581,0.15637 0.93157,2.67247 1.94122,5.5913 l 1.83567,5.30672 -1.91509,5.55334 c -1.0534,3.05424 -1.91544,5.60663 -1.91544,5.67211 0,0.0655 1.59684,0.11912 3.54838,0.11912 l 3.54838,0 1.09374,-3.28156 1.09373,-3.28157 1.09827,3.22584 1.09827,3.22583 3.5111,0.0613 c 2.72996,0.0477 3.51102,-0.002 3.51042,-0.22293 -4.7e-4,-0.15637 -0.84315,-2.71004 -1.87294,-5.6749 l -1.87259,-5.39066 1.87328,-5.39101 c 1.03022,-2.96517 1.87294,-5.60643 1.87294,-5.71496 -2.47085,0.0766 -4.38715,-0.0711 -7.0675,-0.0711 z m -22.16177,0.005 c -3.86091,0.006 -4.6344,0.21173 -6.02984,1.60716 -1.62701,1.62701 -1.63538,1.67615 -1.63538,9.66357 l 0.0631,7.02498 c 0.043,2.10981 2.2035,3.38486 3.99736,3.90995 1.64465,0.4605 7.2863,0.30274 8.31206,-0.23233 1.4128,-0.73696 2.12096,-1.39942 2.77092,-2.59362 0.54794,-1.00674 0.64436,-1.44111 0.66286,-2.98061 l 0.0216,-1.80223 -3.34391,0 -3.34392,0 -0.0662,1.66186 c -0.0741,1.85321 -0.27111,2.23937 -1.1425,2.23937 -1.01558,0 -1.13205,-0.32538 -1.13205,-3.16557 l 0,-2.63054 4.57001,0 4.57001,0 0,-3.74936 c 0,-4.77372 -0.23929,-5.71171 -1.86005,-7.29008 -1.52619,-1.48627 -2.22873,-1.66852 -6.41404,-1.66255 z m -36.125048,3.78489 c 1.501917,0 1.512955,1.20851 0.04038,4.39515 l -1.110803,2.40414 -0.004,-2.96842 c -0.0021,-1.63264 0.100187,-3.16249 0.227109,-3.39965 0.142731,-0.26669 0.465911,-0.43122 0.847124,-0.43122 z m 36.410668,0 c 0.88096,0 1.07772,0.54721 1.07772,2.99489 l 0,2.13244 -1.11464,0 -1.11463,0 0,-2.29615 c 0,-2.49618 0.13641,-2.83118 1.15155,-2.83118 z m -35.293941,8.13685 0.01742,3.05272 c 0.0164,2.91152 -0.0057,3.06864 -0.478249,3.39964 -0.272508,0.19087 -0.551277,0.34693 -0.619321,0.34693 -0.06805,0 -0.346471,-0.15606 -0.61897,-0.34693 -0.775646,-0.54328 -0.629167,-1.55159 0.601903,-4.14262 z"
       id="rect4149"
       inkscape:connector-curvature="0"
       sodipodi:nodetypes="cssccccccccssscccccccccsssccccsscccccccccccssccccscsccccccccssscsssssscssscsssccsccssccccccccccccssscccscccccsscccsssssccsssscccsscccsscccc" />
  </g>
</svg>
